<svg version="1.1" id="Layer_1" xmlns="http://www.w3.org/2000/svg" xmlns:xlink="http://www.w3.org/1999/xlink" x="0" y="0" width="80" height="80" viewBox="0 0 80 80" xml:space="preserve"><defs><path id="SVGID_1_" d="M0 0h80v80H0z"/></defs><clipPath id="SVGID_2_"><use xlink:href="#SVGID_1_" overflow="visible"/></clipPath><path clip-path="url(#SVGID_2_)" fill="#BE0000" d="M20.5 62.5c-1.611 0-3.064-.653-4.206-1.89-1.119-1.025-1.566-2.649-1.164-4.254.89-3.674 7.327-7.974 15.381-10.3.103-.195.211-.392.32-.59.26-.474.53-.966.755-1.473 4.193-8.387 3.717-19.298 3.318-23.603-.132-.776-.224-1.477-.302-2.065l-.102-.753-.005-.292c-.017-.517-.041-1.298.524-2.004l.137-.172.382-.194c.35-.182.786-.41 1.362-.41 1.347 0 2.175.804 2.459 2.388l.021.116c.12.828.221 1.763.317 2.913.717 4.206 3.078 14.938 9.252 21.921a45.088 45.088 0 001.601 1.792c7.357.564 15.536 2.739 17.528 6.392.692 1.032.805 2.525.263 4.02l-.036.1-.057.09C67.011 56.21 65.147 57.3 63 57.3c-3.773 0-8.332-2.862-14.322-8.999-2.552.013-4.716.144-6.437.39-.389.048-.864.095-1.34.141-.544.054-1.089.106-1.461.159-1.815.191-3.893.661-5.589 1.079C29.005 58.317 24.514 62.5 20.5 62.5m-.831-5.065c.311.236.606.267.731.267 1.013 0 3.06-1.346 5.844-4.931-3.884 1.828-6.04 3.713-6.575 4.664m36.841-8.318c3.52 2.89 5.47 3.383 6.39 3.383.564 0 .816-.144.985-.414-.672-.77-3.2-2.112-7.375-2.969M39.206 34.952c-.573 3.437-1.485 6.618-2.727 9.503a27.6 27.6 0 012.25-.252c.67-.002 1.588-.139 2.258-.238l.372-.055c.838-.111 1.728-.192 2.645-.276l.375-.033c-1.985-2.482-3.713-5.373-5.173-8.649"/><path clip-path="url(#SVGID_2_)" fill="#BE0000" d="M40 80C17.9 80 0 62.1 0 40S17.9 0 40 0s40 17.9 40 40-17.9 40-40 40m0-77.8c-20.8 0-37.8 17-37.8 37.9 0 20.8 17 37.8 37.899 37.8C60.9 77.9 77.9 60.9 77.9 40.1c0-20.9-17-37.9-37.9-37.9"/></svg>