<svg version="1.1" id="Isolation_Mode" xmlns="http://www.w3.org/2000/svg" x="0" y="0" width="100" height="100" viewBox="0 0 100 100" xml:space="preserve"><path d="M71.9 77.2H28.2c-.1-.3-.3-.6-.4-.9-2.4-5-4.2-10.1-4.5-15.6-.3-5.4-.2-10.8-.1-16.2 0-2.6 1.4-4.6 3.7-5.8 1.9-1.1 4-1.1 6.2-.3 0-3.1-.5-6.1 1.9-8.6 2.4-2.4 5.1-2.7 8.2-1.7.9-3 2.9-4.6 5.8-5.3h2.2c1.9.6 3.7 1.4 4.8 3.2.4.7.7 1.4 1.1 2.1 2.1-.8 4.2-.8 6.2.2s3.1 2.8 3.6 4.5c1.7 0 3.2-.2 4.6 0 3.5.7 5.5 3.5 5.5 7.3v18.2c0 1.3-.1 2.7-.3 4-.8 5.3-2.6 10.2-4.8 14.9zm-29-37.5c0-1.9.1-3.6 0-5.4-.1-1.3-1.1-2.3-2.4-2.5-1.3-.2-2.6.5-3 1.7-.2.5-.2 1.2-.2 1.8v22.1h-4.2V45.3c0-1.9-1.2-3.2-2.8-3.2-1.7 0-2.8 1.3-2.8 3.2 0 3.8.1 7.6 0 11.3-.2 5.3 1.1 10.3 3 15.3.3.8.7 1.1 1.7 1.1h36.2c.4 0 1.1-.3 1.2-.6 1.7-4 3-8.1 3.2-12.5.1-4 .1-8 .1-12.1v-8c0-1.6-1.1-2.7-2.6-2.8-1.3-.1-2.6.8-3 2.3 0 .2-.1.4-.1.5h-4.1c0-.1-.1-.2-.1-.2v-4.5c0-2-1.1-3.2-2.8-3.2s-2.8 1.2-2.8 3.2v4.7h-4.2v-9c0-2.3-1-3.6-2.8-3.6s-2.8 1.3-2.8 3.6v9.1c-1.9-.2-3.2-.2-4.7-.2z" fill="#444"/><path d="M50 94C25.7 94 6 74.3 6 50S25.7 6 50 6s44 19.7 44 44-19.7 44-44 44zm0-85.9C26.9 8.1 8.1 26.9 8.1 50S26.9 91.9 50 91.9 91.9 73.1 91.9 50 73.1 8.1 50 8.1z" fill="#444"/></svg>