<svg version="1.1" id="Capa_1" xmlns="http://www.w3.org/2000/svg" x="0" y="0" width="294.8" height="294.8" viewBox="0 0 294.8 294.8" xml:space="preserve"><style>.st0{fill:#fff}</style><path class="st0" d="M147.4 291.8C67.8 291.8 3 227.1 3 147.4S67.8 3 147.4 3C227 3 291.8 67.8 291.8 147.4c0 23-5.5 45.8-16 66.1-10.1 19.6-24.9 36.9-42.7 50.1-.5.4-1.1.6-1.8.6-1 0-1.8-.4-2.4-1.2-.5-.6-.7-1.4-.6-2.2.1-.8.5-1.5 1.2-2 17.1-12.6 31.2-29.2 40.9-48 10.2-19.7 15.3-41 15.3-63.4C285.8 71.1 223.7 9 147.4 9S9 71.1 9 147.4c0 76.3 62.1 138.4 138.4 138.4 1.7 0 3 1.3 3 3s-1.3 3-3 3z"/><path class="st0" d="M109.7 215.9c-1.9-1.1-3-3.1-3-5.2V79c0-3.3 2.7-6 6-6s6 2.7 6 6v121.1l88.8-52.9-65.3-42.1a5.99 5.99 0 01-1.8-8.3c1.8-2.8 5.5-3.6 8.3-1.8l73.5 47.3c1.7 1.1 2.8 3.1 2.7 5.1s-1.1 4-2.9 5.1l-106.2 63.2c-1.9 1.2-4.2 1.2-6.1.2z"/></svg>