<svg version="1.1" id="Layer_1" xmlns="http://www.w3.org/2000/svg" x="0" y="0" width="40" height="40" viewBox="0 0 40 40" xml:space="preserve"><style>.st0{fill:#fff}</style><path class="st0" d="M20 0C8.9 0 0 9 0 20s9 20 20 20c11.1 0 20-8.9 20-20C40 9 31 0 20 0zm0 37.7c-9.8 0-17.7-7.9-17.7-17.7 0-9.8 7.9-17.7 17.7-17.7 9.8 0 17.7 7.9 17.7 17.7 0 9.8-7.9 17.7-17.7 17.7z"/><path class="st0" d="M24.1 29.7c1.5 0 3.3-1 4.2-2 1.1-1.2.5-2 .3-2.2L25.1 22c-.3-.3-.6-.4-1-.4s-.7.1-1 .4l-.1.1c-.3.3-.8.7-1 1.4-1.8-1.4-3.4-3-4.9-4.9.6-.2 1-.7 1.4-1l.1-.1c.6-.6.6-1.5 0-2l-3.9-3.9c-.6-.6-1.5-.5-2.3.2-1.4 1.3-2.7 4.3-1.6 5.9 3.6 4.6 7.5 8.5 11.6 11.6.5.3 1.1.4 1.7.4M11.2 17.3z"/></svg>