<svg version="1.1" id="Layer_1" xmlns="http://www.w3.org/2000/svg" x="0" y="0" width="80" height="80" viewBox="0 0 80 80" xml:space="preserve"><path d="M32.2 38.7H18.6c-3.6 0-6.5-2.9-6.5-6.5V17.7c0-3.6 2.9-6.5 6.5-6.5h13.6c3.6 0 6.5 2.9 6.5 6.5v14.5c0 3.6-2.9 6.5-6.5 6.5zM18.6 14.2c-1.9 0-3.5 1.6-3.5 3.5v14.5c0 1.9 1.6 3.5 3.5 3.5h13.6c1.9 0 3.5-1.6 3.5-3.5V17.7c0-1.9-1.6-3.5-3.5-3.5H18.6zm42.8 24.5H47.8c-3.6 0-6.5-2.9-6.5-6.5V17.7c0-3.6 2.9-6.5 6.5-6.5h13.6c3.6 0 6.5 2.9 6.5 6.5v14.5c0 3.6-2.9 6.5-6.5 6.5zM47.8 14.2c-1.9 0-3.5 1.6-3.5 3.5v14.5c0 1.9 1.6 3.5 3.5 3.5h13.6c1.9 0 3.5-1.6 3.5-3.5V17.7c0-1.9-1.6-3.5-3.5-3.5H47.8zM32.2 68.9H18.6c-3.6 0-6.5-2.9-6.5-6.5V47.9c0-3.6 2.9-6.5 6.5-6.5h13.6c3.6 0 6.5 2.9 6.5 6.5v14.5c0 3.6-2.9 6.5-6.5 6.5zM18.6 44.4c-1.9 0-3.5 1.6-3.5 3.5v14.5c0 1.9 1.6 3.5 3.5 3.5h13.6c1.9 0 3.5-1.6 3.5-3.5V47.9c0-1.9-1.6-3.5-3.5-3.5H18.6zm42.8 24.5H47.8c-3.6 0-6.5-2.9-6.5-6.5V47.9c0-3.6 2.9-6.5 6.5-6.5h13.6c3.6 0 6.5 2.9 6.5 6.5v14.5c0 3.6-2.9 6.5-6.5 6.5zM47.8 44.4c-1.9 0-3.5 1.6-3.5 3.5v14.5c0 1.9 1.6 3.5 3.5 3.5h13.6c1.9 0 3.5-1.6 3.5-3.5V47.9c0-1.9-1.6-3.5-3.5-3.5H47.8z" fill="#fff"/></svg>