<svg xmlns="http://www.w3.org/2000/svg" viewBox="0 0 200 150"><linearGradient id="gradient_1" gradientUnits="userSpaceOnUse" x1="74" y1="52" x2="127" y2="52"><stop offset="0" stop-color="#e0b03c"/><stop offset=".5" stop-color="#ffc643"/><stop offset="1" stop-color="#e0b03c"/></linearGradient><linearGradient id="gradient_2" gradientUnits="userSpaceOnUse" x1="101" y1="28" x2="101" y2="102"><stop offset="0" stop-color="#006cb7"/><stop offset="1" stop-color="#002440"/></linearGradient><linearGradient id="gradient_3" gradientUnits="userSpaceOnUse" x1="74" y1="59" x2="125" y2="59"><stop offset="0" stop-color="#adadae"/><stop offset=".5" stop-color="#fff"/><stop offset="1" stop-color="#d0d1d1"/></linearGradient><path d="M118.7 16.1v.3c0 2.7-2.2 4.9-4.9 4.9-1.6 0-3-.7-3.9-1.9-.7-.8-1.1-1.9-1.1-3s.4-2.2 1-3l-9.2-7-9.2 7.1c.6.8 1 1.9 1 3s-.4 2.2-1.1 3c-.9 1.2-2.3 1.9-3.9 1.9-2.7 0-4.9-2.2-4.9-4.9v-.3L74.3 13v10c0 1.8 1.5 3.3 3.3 3.3-1.8 0-3.3 1.5-3.3 3.3V86c0 1.4.8 2.5 2 3l23.7 9.5c.2.1.4.1.6.1s.4 0 .6-.1l23.7-9.5c1.2-.5 2-1.7 2-3V29.6c0-1.8-1.5-3.3-3.3-3.3 1.8 0 3.3-1.5 3.3-3.3V13l-8.2 3.1z" fill="url(#gradient_1)"/><path d="M124.8 86c0 .4-.3.8-.7 1l-22.6 9c-.6.2-1.2.2-1.8 0l-22.6-9c-.4-.2-.6-.6-.6-1V29.6c0-.6.5-1.1 1.1-1.1h46.1c.6 0 1.1.5 1.1 1.1V86z" fill="url(#gradient_2)"/><path fill="url(#gradient_3)" d="M99 59.7l-22.5 9.7v6.5l34.1-14.5-5.8-4.1 20-8.6v-6.5L93.2 55.6z"/><path d="M79.3 140.4c-.2-.3-.4-.5-.7-.7-.3-.2-.7-.3-1.1-.3-.6 0-1.1.2-1.5.6-.4.4-.6.9-.6 1.5s.2 1.1.6 1.5c.4.4.9.6 1.5.6.5 0 .9-.1 1.2-.3.3-.2.6-.5.7-.9h-2.3v-1.1h3.7v.6c-.1.9-.4 1.5-1 2.1-.6.5-1.4.8-2.3.8-1 0-1.7-.3-2.4-.9-.6-.6-.9-1.4-.9-2.3 0-.9.3-1.7.9-2.3.6-.6 1.4-.9 2.4-.9.7 0 1.4.2 1.9.6.6.4.9.9 1.2 1.5h-1.3zm12.8 4.2h-1.4l-1.3-2.1h-1.1v2.1H87v-6.2h2.6c.8 0 1.3.2 1.7.6.4.4.6.9.6 1.5 0 .5-.1.9-.3 1.2-.2.3-.5.6-1 .7l1.5 2.2zm-3.9-3.2h1.4c.7 0 1-.3 1-.9 0-.6-.3-.9-1-.9h-1.4v1.8zm15.3-2.2c.6.6.9 1.4.9 2.3 0 .9-.3 1.7-.9 2.3-.6.6-1.4.9-2.4.9s-1.7-.3-2.4-.9c-.6-.6-.9-1.4-.9-2.3 0-.9.3-1.7.9-2.3.6-.6 1.4-.9 2.4-.9s1.8.3 2.4.9zm-3.9 3.8c.4.4.9.6 1.5.6s1.1-.2 1.5-.6c.4-.4.6-.9.6-1.5s-.2-1.1-.6-1.5c-.4-.4-.9-.6-1.5-.6s-1.1.2-1.5.6c-.4.4-.6.9-.6 1.5.1.6.3 1.1.6 1.5zm14.9-4.6h1.2v3.7c0 .4-.1.8-.2 1.1-.1.3-.3.6-.5.8-.2.2-.5.4-.8.5-.3.1-.7.2-1.1.2-.8 0-1.5-.2-1.9-.7-.5-.5-.7-1.1-.7-1.9v-3.7h1.2v3.7c0 .5.1.8.4 1.1.2.3.6.4 1 .4.5 0 .8-.1 1.1-.4.2-.3.4-.6.4-1.1v-3.7zm8.8 6.2h-1.2v-6.2h2.5c.8 0 1.4.2 1.7.6.4.4.6.9.6 1.5s-.2 1.1-.6 1.5c-.4.4-1 .6-1.7.6h-1.3v2zm0-3.1h1.3c.7 0 1.1-.3 1.1-1 0-.6-.4-1-1.1-1h-1.3v2z" fill="#e0b03a"/><path d="M43.5 122.6c.8.8 1.2 1.8 1.2 2.9 0 1.6-.7 2.9-2.2 4-1.4 1.1-3.2 1.6-5.4 1.6h-6.6l-2.3.3.2-1.2 1.8-.2v-16.3l-2-.8.3-.9h1.7l9.2-.3c1.4.5 2.4 1.1 3.1 1.9.7.7 1.1 1.7 1.1 2.8 0 .8-.4 1.6-1.1 2.4-.7.8-1.6 1.6-2.7 2.2 1.7.3 2.9.8 3.7 1.6zm-6.6-9.6l-2.8.3v7.1l3 .5c.6-.3 1.2-.8 1.8-1.6.6-.8.9-1.6.9-2.4 0-.5-.1-1-.2-1.5s-.3-.9-.4-1.1l-2.3-1.3zm.2 17.2c2.5-.4 3.7-1.8 3.7-4.3 0-1.1-.3-2-1-2.6-.7-.6-1.5-1-2.6-1.2h-3v7.6l2.9.5zm26.2-4.6l-.9 5.6H50.6l-2.3.3.2-1.2 1.8-.2v-16.3l-2-.8.3-.9H57l-.3 1.2h-2.4v16.9l5.6-.5 1.5-4.1h1.9zm22.1-13.7l-.2 1.2-1.8.2v13.8c-.6 1.3-1.6 2.3-2.8 3.2-1.3.8-2.7 1.3-4.3 1.3-.6 0-1.3-.1-1.9-.3-.7-.2-1.3-.5-2-.8-.7-.4-1.2-.8-1.8-1.4-.5-.5-.9-1.2-1.3-1.9-.3-.8-.5-1.6-.5-2.5v-10.8l-2-.8.3-.9h5.3l2.3-.2-.3 1.2-1.7.2v10.5c0 1.7.4 3 1.1 4 .7.9 1.9 1.7 3.4 2.2.7-.2 1.4-.4 2-.7.6-.3 1-.5 1.4-.9.4-.3.6-.6.9-.9s.4-.6.6-1V114l-2-.8.3-.9h2.8l2.2-.4zm18.6 13.7l-.9 5.6H91.3l-2.3.3.2-1.2 1.8-.3v-16.3l-2-.8.3-.9H103l-.1 5.2-2.1-.1-.9-3.8-5.1-.3v8l6.3-.4-.2 1.7-6.1-.4v8.1l5.6-.4 1.5-4.2h2.1zm13.4 2.9l2.7-2.2 4.3 3.6c1.2 0 2.1-.3 2.7-.7.7-.4 1-1.1 1-2 0-.4-.1-.9-.2-1.2-.2-.4-.4-.7-.8-1.1-.4-.3-.8-.7-1.3-.9-.5-.3-1.1-.6-1.8-1l-.9-.5c-.5-.3-1-.5-1.4-.8-.4-.2-.8-.5-1.3-.9-.4-.4-.8-.7-1.1-1.1-.3-.4-.5-.8-.7-1.2-.2-.5-.3-.9-.3-1.4 0-1.2.4-2.1 1.2-2.9.8-.8 1.8-1.4 3.1-1.8 1.3-.4 2.9-.6 4.7-.6l4.1 3-2.7 2.2-4.1-3.5c-.4.1-.8.2-1.2.4-.4.2-.7.5-1 .9-.3.4-.4.9-.4 1.4 0 .6.2 1.2.7 1.7.5.5 1.2 1 2.2 1.5l.9.4c.5.3.9.5 1.2.7.3.2.7.4 1.2.7.5.3.9.5 1.2.8.3.2.6.5 1 .8.3.3.6.6.8 1 .2.3.4.7.5 1 .1.4.2.8.2 1.2 0 1.2-.4 2.2-1.3 3-.9.8-2 1.5-3.5 1.9-1.5.4-3.2.6-5.2.6l-4.5-3zm32.8-2.9l-.9 5.6h-11.8l-2.3.3.2-1.2 1.7-.2v-16.3l-2-.8.3-.9H149l-.1 5.2-2.1-.1-.9-3.8-5.1-.3v8l6.2-.4-.2 1.7-6-.4v8.1l5.5-.4 1.4-4.2h2.5zm22.9 4.6l-.3.9h-5.1l-2.5.3.3-1.2 1.9-.2-1.7-4.6h-7.1l-1.5 4.1 2.4.7-.4.9h-3.4l-1.8.3.2-1.2 1.4-.2 5.8-15-1.3-2 4.6-1.2 6.6 17.7 1.9.7zm-8-6.1l-1.9-5.2-1.3-2.4-2.8 7.6h6z" fill="#004e7c"/></svg>