<svg version="1.1" id="Layer_1" xmlns="http://www.w3.org/2000/svg" x="0" y="0" width="60" height="60" viewBox="0 0 60 60" xml:space="preserve"><path fill="#FFF" d="M45.7 8.7c-3.5 0-6.3 2.9-6.3 6.5 0 .6.1 1.2.3 1.8l-18.4 8c-1.1-2-3.1-3.3-5.4-3.3-3.5 0-6.3 2.9-6.3 6.5s2.8 6.5 6.3 6.5c1.8 0 3.4-.8 4.6-2.101L32.3 41.4c-.5.899-.7 1.899-.7 3 0 3.6 2.801 6.5 6.301 6.5s6.3-2.9 6.3-6.5c0-3.601-2.8-6.5-6.3-6.5-1.801 0-3.5.8-4.601 2.199l-11.8-8.8c.5-.9.8-2 .8-3.1 0-.6-.1-1.2-.3-1.7l18.4-8c1.1 1.9 3.1 3.2 5.399 3.2 3.5 0 6.3-2.9 6.3-6.5C52 11.6 49.2 8.7 45.7 8.7"/></svg>