<svg version="1.1" id="Layer_1" xmlns="http://www.w3.org/2000/svg" x="0" y="0" width="80" height="80" viewBox="0 0 80 80" xml:space="preserve"><linearGradient id="SVGID_1_" gradientUnits="userSpaceOnUse" x1="0" y1="39.853" x2="78.43" y2="39.853"><stop offset="0" stop-color="#ffbe15"/><stop offset="1" stop-color="#d46400"/></linearGradient><path d="M27 2.9L5.3 19.7c-3.9 3-5.9 7.9-5.1 12.8L4 58.3c.7 4.9 4 9 8.6 10.7l25.6 9.7c4.4 1.7 9.4.9 13.2-2L73.1 60c3.9-3 5.9-7.9 5.1-12.8l-3.8-25.9c-.7-4.9-4-9-8.6-10.7L40.2.9c-4.4-1.7-9.4-1-13.2 2z" fill="url(#SVGID_1_)"/><path d="M15.7 58.1l-3-20.1 4.6-1.5 4.9 6.4c1.6 2.2 2.7 4 3.9 5.9h.1c-.6-2-1.1-4.1-1.5-7.1l-1.1-7.3 3.6-1.2 3 20.1-4 1.3-5.2-6.7c-1.7-2.3-2.8-3.9-4.1-6l-.1.1c.4 1.9.9 4.7 1.4 7.9l1.1 7-3.6 1.2zm27.2-17.8l-6.5 2.1.7 4.9 7.3-2.4.6 3.7-11.2 3.7-3-20.1 10.8-3.5.5 3.7-6.9 2.2.6 4.3 6.5-2.1.6 3.5zm7.7 6.4L43.4 28l3.9-1.3 2.9 8.4c.8 2.3 1.5 4.5 2 6.2h.1c0-2.1 0-4.2.1-6.8l.4-9.6 4.3-1.4 2.8 8.5c.8 2.3 1.3 4.2 1.9 6.1h.1c-.1-2.2-.1-4.4-.1-6.7l.3-9.5 4.1-1.3-1.6 21.6-4.3 1.4-2.8-7.8c-.8-2.2-1.4-4.2-2-6.3h-.1c0 2.2.1 4.5 0 7.1l-.4 8.7-4.4 1.4z" fill="#fff"/></svg>