<svg version="1.1" id="Layer_1" xmlns="http://www.w3.org/2000/svg" x="0" y="0" width="2000" height="1125" viewBox="0 0 2000 1125" xml:space="preserve"><path d="M1101.6 965.1l-248.3 248.3c-23.3 23.3-61.5 23.3-84.9 0L520.1 965.1c-23.3-23.3-23.3-61.5 0-84.9l248.3-248.3c23.3-23.3 61.5-23.3 84.9 0l248.3 248.3c23.3 23.3 23.3 61.5 0 84.9z" opacity=".6" fill="#1865c2"/><path d="M559.3 788.9L403.7 944.5c-15.6 15.6-41 15.6-56.6 0L191.6 788.9c-15.6-15.6-15.6-41 0-56.6l155.6-155.6c15.6-15.6 41-15.6 56.6 0l155.6 155.6c15.5 15.6 15.5 41.1-.1 56.6z" opacity=".5" fill="#3b7ecf"/></svg>