<svg version="1.1" id="Layer_1" xmlns="http://www.w3.org/2000/svg" x="0" y="0" width="40" height="40" viewBox="0 0 40 40" xml:space="preserve"><style>.st0{fill:#fff}</style><path class="st0" d="M29.9 20.3l5.2-5.1-5.2-5.2zM5.2 14.5l-.7.7 5.3 5.2V10zm-.8 2.7v17.4l8.7-8.7.1-.1L4.4 17zm28.7 17.2L20.9 22.2c-.6-.6-1.6-.6-2.2 0L6.2 34.7l-.7.7h28.7l-.3-.3-.8-.7zm-6.7-8.7l.1.2 8.7 8.7V16.9z"/><path class="st0" d="M17.8 21.2c.5-.5 1.3-.9 2.1-.9s1.5.3 2.1.9l.5.5 3.1 3.1 3.1-3.1V8.6l-4-4H11.1v17.2l3 3 3.7-3.6zM15.1 8.6h9.4V10h-9.4V8.6zm0 4h6.7V14h-6.7v-1.4zm0 4.1h9.4V18h-9.4v-1.3z"/></svg>