<svg version="1.1" id="Isolation_Mode" xmlns="http://www.w3.org/2000/svg" x="0" y="0" width="60" height="60" viewBox="0 0 60 60" xml:space="preserve"><style>.st0{fill:#fff}</style><path class="st0" d="M44.4 47.9H15.6l-.3-.6c-1.6-3.3-2.8-6.7-3-10.3-.2-3.6-.1-7.1-.1-10.7 0-1.7.9-3 2.4-3.8 1.3-.7 2.6-.7 4.1-.2 0-2-.3-4 1.3-5.7 1.6-1.6 3.4-1.8 5.4-1.1.6-2 1.9-3 3.8-3.5h1.5c1.3.4 2.4.9 3.2 2.1.3.5.5.9.7 1.4 1.4-.5 2.8-.5 4.1.1 1.3.7 2 1.8 2.4 3 1.1 0 2.1-.1 3 0 2.3.5 3.6 2.3 3.6 4.8v12c0 .9-.1 1.8-.2 2.6-.4 3.6-1.6 6.8-3.1 9.9zM25.3 23.2c0-1.3.1-2.4 0-3.6-.1-.9-.7-1.5-1.6-1.6-.9-.1-1.7.3-2 1.1-.1.3-.1.8-.1 1.2v14.6h-2.8v-8c0-1.3-.8-2.1-1.8-2.1-1.1 0-1.8.9-1.8 2.1 0 2.5.1 5 0 7.4-.1 3.5.7 6.8 2 10.1.2.5.5.7 1.1.7h23.9c.3 0 .7-.2.8-.4 1.1-2.6 2-5.3 2.1-8.2.1-2.6.1-5.3.1-8v-5.3c0-1.1-.7-1.8-1.7-1.8-.9-.1-1.7.5-2 1.5 0 .1-.1.3-.1.3h-2.7c0-.1-.1-.1-.1-.1v-3c0-1.3-.7-2.1-1.8-2.1s-1.8.8-1.8 2.1v3.1h-2.8v-6c0-1.5-.7-2.4-1.8-2.4s-1.8.9-1.8 2.4v6h-3.3z"/><path class="st0" d="M30 59C14 59 1 46 1 30S14 1 30 1s29 13 29 29-13 29-29 29zm0-56.6C14.8 2.4 2.4 14.8 2.4 30S14.8 57.6 30 57.6 57.6 45.2 57.6 30 45.2 2.4 30 2.4z"/></svg>