<svg version="1.1" id="Layer_1" xmlns="http://www.w3.org/2000/svg" x="0" y="0" width="30" height="30" viewBox="0 0 30 30" xml:space="preserve"><style>.st0{fill:#fff}</style><path class="st0" d="M2 10.3v9.2h7.4l6.1 6.3V4.1l-6.1 6.3-7.4-.1zm8.7 1.3l3-3.1v12.8l-3-3.1-.5-.5H3.8v-5.5h6.3l.6-.6zM25.4 4l-1.2.9c2.1 2.8 3.3 6.3 3.3 10.1s-1.2 7.3-3.3 10.1l1.2.9c2.2-3.1 3.6-6.9 3.6-11s-1.3-7.9-3.6-11z"/><path class="st0" d="M22 23.3c1.7-2.3 2.7-5.2 2.7-8.3s-1-6-2.7-8.3l-1.2.9c1.5 2.1 2.4 4.7 2.4 7.5s-.9 5.4-2.4 7.5l1.2.7zm-3.5-2.6c1.2-1.6 1.9-3.6 1.9-5.7s-.7-4.1-1.9-5.7l-1.2.9c1 1.4 1.6 3 1.6 4.8s-.6 3.5-1.6 4.8l1.2.9z"/></svg>