<svg version="1.1" id="Layer_1" xmlns="http://www.w3.org/2000/svg" x="0" y="0" width="30" height="30" viewBox="0 0 30 30" xml:space="preserve"><path d="M11.5 13L7 8.5v3l-.6.6h-.8l-.6-.6V5.6l.6-.6h5.9l.6.6v.8l-.6.6h-3l4.5 4.5v.9l-.6.6zm6.1 0l-.6-.6v-.9L21.5 7h-3l-.6-.6v-.8l.6-.6h5.9l.6.6v5.9l-.6.6h-.8l-.6-.6v-3L18.5 13zm-12 12l-.6-.6v-5.9l.6-.6h.8l.6.6v3l4.5-4.5h.9l.6.6v.9L8.5 23h3l.6.6v.8l-.6.6zm12.9 0l-.6-.6v-.8l.6-.6h3L17 18.5v-.9l.6-.6h.9l4.5 4.5v-3l.6-.6h.8l.6.6v5.9l-.6.6z" fill="#fff"/></svg>