<svg height="512" viewBox="0 0 512 512" width="512" xmlns="http://www.w3.org/2000/svg"><g><g><g><g><g fill="#ffdaaa"><path d="m272 290.42v28.85l-56 40.73-56-40.73v-28.85c18.6 13.53 39.37 21.58 56 21.58s37.4-8.05 56-21.58z"/><path d="m352 172v24a19.994 19.994 0 0 1 -20 20h-12v-64h12a19.994 19.994 0 0 1 20 20z"/><path d="m112 152v64h-12a19.994 19.994 0 0 1 -20-20v-24a19.994 19.994 0 0 1 20-20z"/></g><path d="m349.45 342.32-20.11-5.8-25.34-7.3-32-9.22-56 40-56-40-32 9.22-52.36 15.09a79.992 79.992 0 0 0 -59.64 77.36v74.33h400v-.36z" fill="#e0e0e2"/></g><path d="m186.17 370.85 5.83 37.15h48l5.83-37.15-29.83-11z" fill="#ff9811"/><path d="m248 496h-64l8-88h48z" fill="#ff9811"/><path d="m216 360-29.83 10.85-58.17 21.15 16-62.78 13.81-8.59 2.19-1.36z" fill="#c6c5ca"/><path d="m304 392-58.17-21.15-29.83-10.85 56-40.73 2.19 1.36 13.81 8.59z" fill="#c6c5ca"/><path d="m320 144v64c0 33.56-21.85 63.41-48 82.42-18.6 13.53-39.37 21.58-56 21.58s-37.4-8.05-56-21.58a137.35 137.35 0 0 1 -11-8.88c-21-18.82-37-44.82-37-73.54v-64s136-24 144-56c0 0 24 56 64 56z" fill="#ffdaaa"/><path d="m320 120v24c-40 0-64-56-64-56-8 32-144 56-144 56v-24a104 104 0 1 1 208 0z" fill="#ff9811"/></g><circle cx="408" cy="408" fill="#006df0" r="88"/><ellipse cx="408" cy="408" fill="#78b9eb" rx="40" ry="88"/></g><g><circle cx="168" cy="176" r="16"/><circle cx="264" cy="176" r="16"/><path d="m192 256h48a8 8 0 0 0 0-16h-48a8 8 0 0 0 0 16z"/><path d="m408 312a95.531 95.531 0 0 0 -60.42 21.46l-67.58-19.48v-19.63c22.44-17.33 41.17-42.15 46.48-70.35h5.52a28.031 28.031 0 0 0 28-28v-24a28.031 28.031 0 0 0 -28-28h-4v-24a112 112 0 0 0 -224 0v24h-4a28.031 28.031 0 0 0 -28 28v24a27.88 27.88 0 0 0 8.02 19.59c-.01.14-.02.27-.02.41v48a8 8 0 0 0 8 8h40.91a142.581 142.581 0 0 0 23.09 22.35v19.63l-78.49 22.62a88.03 88.03 0 0 0 -65.51 85.07v74.33a8 8 0 0 0 8 8h392a96 96 0 0 0 0-192zm-80-152h4a12.01 12.01 0 0 1 12 12v24a12.01 12.01 0 0 1 -12 12h-4zm48.57 174.44q-2.175 3.72-4.14 8.02c-7.14 15.72-11.41 35.91-12.26 57.54h-31.77a80.185 80.185 0 0 1 48.17-65.56zm-256.57-214.44a96 96 0 0 1 192 0v15.07c-29.63-6.88-48.45-49.76-48.65-50.22a8 8 0 0 0 -15.11 1.21c-.55 2.22-3.77 8.31-21.57 16.98-11.84 5.76-27.91 11.56-47.76 17.24-23.34 6.67-46.46 11.58-58.91 14.05zm-32 76v-24a12.01 12.01 0 0 1 12-12h4v48h-4a12.01 12.01 0 0 1 -12-12zm8 60v-32.29a27.8 27.8 0 0 0 4 .29h5.52a100.521 100.521 0 0 0 12.22 32zm54.51 16h9.49a8 8 0 0 0 0-16h-23.38c-14.07-19.68-16.62-37.63-16.62-48v-57.36c11.7-2.27 37.3-7.55 63.2-14.95 36.46-10.42 59.94-20.85 71.83-32.08 9.4 16.32 28.9 43.29 56.97 47.74v56.65c0 13.75-4.46 40.8-34.34 67.58-19.26 17.26-43.47 28.42-61.66 28.42s-42.4-11.16-61.66-28.42c-1.33-1.19-2.6-2.39-3.83-3.58zm17.49 43.2v-10.1c16.38 9.48 33.46 14.9 48 14.9s31.62-5.42 48-14.9v10.1l-48 34.91zm68.91 60.91-3.75 23.89h-34.32l-3.75-23.89 20.91-7.6zm-60.22 111.89h-96.69v-56a8 8 0 0 0 -16 0v56h-40v-66.33a72.03 72.03 0 0 1 53.67-69.62 1.332 1.332 0 0 1 .19-.05l56.21-16.2-13.82 54.22a8 8 0 0 0 10.48 9.5l49.04-17.83 4.17 26.57zm-37.2-108.69 12.26-48.11-.91-.24 7.66-2.2 40.48 28.92zm53.27 108.69 6.55-72h33.38l6.55 72zm40.26-130.32 40.48-28.92 7.66 2.2-.91.24 12.26 48.11zm22.29 130.32-7.25-79.74 4.17-26.57 49.04 17.83a8 8 0 0 0 10.48-9.5l-13.82-54.22 36.56 10.53a95.87 95.87 0 0 0 20.51 141.67zm73.09-72h31.77c.85 21.63 5.12 41.82 12.26 57.54q1.965 4.29 4.14 8.02a80.185 80.185 0 0 1 -48.17-65.56zm71.6 68.95c-4.64-3.44-9.19-9.66-13-18.03-6.24-13.73-10.01-31.58-10.83-50.92h23.83zm0-84.95h-23.83c.82-19.34 4.59-37.19 10.83-50.92 3.81-8.37 8.36-14.59 13-18.03zm87.6 0h-31.77c-.85-21.63-5.12-41.82-12.26-57.54q-1.965-4.29-4.14-8.02a80.185 80.185 0 0 1 48.17 65.56zm-71.6-68.95c4.64 3.44 9.19 9.66 13 18.03 6.24 13.73 10.01 31.58 10.83 50.92h-23.83zm0 153.9v-68.95h23.83c-.82 19.34-4.59 37.19-10.83 50.92-3.81 8.37-8.36 14.59-13 18.03zm23.43-3.39q2.175-3.72 4.14-8.02c7.14-15.72 11.41-35.91 12.26-57.54h31.77a80.185 80.185 0 0 1 -48.17 65.56z"/></g></g></svg>