<svg id="Layer_1" enable-background="new 0 0 512 512" height="512" viewBox="0 0 512 512" width="512" xmlns="http://www.w3.org/2000/svg"><g><path d="m307.5 37.5h-103c-8.284 0-15-6.716-15-15 0-8.284 6.716-15 15-15h103c8.284 0 15 6.716 15 15 0 8.284-6.716 15-15 15z" fill="#d4f2f6"/><path d="m307.5 7.5h-30c8.284 0 15 6.716 15 15s-6.716 15-15 15h30c8.284 0 15-6.716 15-15s-6.716-15-15-15z" fill="#a6e7f0"/><path d="m427 397.026c0 94.429-76.554 107.474-171 107.474s-171-13.044-171-107.474c0-54.558 57.102-124.357 105.311-173.562 11.66-11.901 18.189-27.887 18.189-44.547v-141.417h95v141.418c0 16.66 6.529 32.646 18.189 44.547 48.209 49.205 105.311 119.003 105.311 173.561z" fill="#eaf9fa"/><path d="m321.689 223.465c-11.66-11.901-18.189-27.887-18.189-44.547v-141.418h-30.005v141.418c0 16.659 6.529 32.646 18.189 44.547 48.21 49.205 105.311 119.003 105.311 173.562 0 89.374-68.58 105.841-155.997 107.348 4.945.085 9.946.126 15.003.126 94.446 0 171-13.044 171-107.474-.001-54.559-57.103-124.357-105.312-173.562z" fill="#d4f2f6"/><path d="m426.042 414.392h-340.084c9.059 78.694 81.724 90.108 170.042 90.108s160.983-11.414 170.042-90.108z" fill="#ffd15b"/><path d="m396.037 414.392c-8.541 74.189-73.616 88.579-155.04 89.983 4.945.085 9.946.125 15.003.125 88.318 0 160.983-11.414 170.042-90.108z" fill="#ffc344"/><path d="m303.5 71.06c-9.65-2.97-19.69-5.06-30.01-6.17-5.74-.62-11.58-.94-17.49-.94-16.52 0-32.47 2.49-47.5 7.11-66.23 20.34-114.5 82.08-114.5 154.89 0 31.03 8.77 60.06 23.97 84.72 28.54 46.33 79.74 77.28 138.03 77.28 48.3 0 91.73-21.25 121.44-54.89 6.14-6.96 11.7-14.45 16.59-22.39 15.2-24.66 23.97-53.69 23.97-84.72 0-72.81-48.27-134.55-114.5-154.89zm-166.19 212.6c-8.52-17.44-13.31-37.02-13.31-57.71 0-56.06 35.12-104.06 84.5-123.16 14.75-5.71 30.76-8.84 47.5-8.84 5.93 0 11.77.39 17.49 1.16 10.44 1.38 20.49 3.99 30.01 7.68 12.57 4.87 24.2 11.6 34.58 19.86l-185.38 185.38c-5.98-7.5-11.15-15.67-15.39-24.37zm223.59 22.34c-24.15 31.56-62.19 51.95-104.9 51.95-31 0-59.53-10.75-82.08-28.71l112.23-112.23 19.98-19.98 53.17-53.17c17.95 22.55 28.7 51.09 28.7 82.09 0 20.69-4.78 40.28-13.3 57.72-3.87 7.92-8.5 15.4-13.8 22.33z" fill="#f37c7c"/><g><path d="m402.847 310.501c14.825-25.651 22.653-54.774 22.653-84.551 0-39.233-13.768-77.511-38.768-107.782-2.638-3.194-7.365-3.646-10.559-1.007-3.194 2.638-3.645 7.365-1.007 10.559 22.785 27.589 35.333 62.475 35.333 98.23 0 28.593-7.903 56.527-22.855 80.787-4.629 7.517-9.955 14.704-15.826 21.358-29.384 33.273-71.599 52.355-115.818 52.355-53.998 0-103.211-27.557-131.646-73.716-14.952-24.257-22.854-52.191-22.854-80.784 0-67.229 44.905-127.975 109.204-147.721 14.633-4.498 29.873-6.779 45.296-6.779 5.564 0 11.178.302 16.688.897 9.688 1.042 19.312 3.021 28.61 5.882 19.082 5.86 36.65 15.27 52.216 27.968 3.208 2.617 7.934 2.138 10.552-1.071s2.139-7.934-1.071-10.552c-15.623-12.745-33.096-22.462-51.995-28.949v-20.899c10.75-1.686 19-11.01 19-22.226 0-12.407-10.093-22.5-22.5-22.5h-103c-12.407 0-22.5 10.093-22.5 22.5 0 11.216 8.25 20.54 19 22.226v20.898c-31.797 10.959-60.253 31.643-80.583 58.699-22.188 29.532-33.917 64.674-33.917 101.627 0 29.777 7.828 58.901 22.653 84.551-21.003 32.97-31.653 62.065-31.653 86.529 0 46.737 17.761 78.103 54.298 95.89 34.538 16.813 82.167 19.08 124.202 19.08s89.664-2.267 124.202-19.081c36.537-17.787 54.298-49.152 54.298-95.89 0-24.463-10.65-53.558-31.653-86.528zm-146.847-254.051c-13.539 0-26.951 1.608-40 4.778v-16.228h80v16.235c-7.141-1.735-14.406-3.016-21.704-3.801-6.04-.653-12.196-.984-18.296-.984zm-59-33.95c0-4.136 3.364-7.5 7.5-7.5h103c4.136 0 7.5 3.364 7.5 7.5s-3.364 7.5-7.5 7.5h-103c-4.136 0-7.5-3.364-7.5-7.5zm176.636 456.933c-31.799 15.48-77.31 17.567-117.636 17.567s-85.837-2.087-117.636-17.567c-24.43-11.893-38.67-30.463-43.739-57.541h233.298c4.142 0 7.5-3.358 7.5-7.5s-3.358-7.5-7.5-7.5h-235.113c-.201-3.191-.31-6.471-.31-9.862 0-20.178 8.624-44.562 25.644-72.591 14.247 19.876 32.708 36.6 53.961 48.756 25.457 14.56 54.467 22.256 83.895 22.256 48.519 0 94.831-20.931 127.064-57.428 3.824-4.334 7.43-8.878 10.796-13.576 17.018 28.026 25.64 52.408 25.64 72.584 0 3.391-.11 6.671-.31 9.862h-56.036c-4.142 0-7.5 3.358-7.5 7.5s3.358 7.5 7.5 7.5h54.222c-5.07 27.077-19.309 45.647-43.74 57.54z"/><path d="m345.568 122.226c-.121-2.133-1.146-4.114-2.818-5.444-11.095-8.829-23.389-15.889-36.54-20.984-10.201-3.954-20.879-6.687-31.72-8.12-6.047-.814-12.268-1.227-18.491-1.227-17.296 0-34.188 3.145-50.206 9.345-25.976 10.048-48.179 27.482-64.209 50.419-16.411 23.481-25.085 51.054-25.085 79.736 0 21.27 4.696 41.705 13.95 60.744 0 .001.001.002.001.003.041.085.079.171.12.255 4.456 9.143 9.928 17.808 16.265 25.754 1.331 1.67 3.311 2.693 5.443 2.813.141.008.281.012.421.012 1.983 0 3.893-.787 5.303-2.197l185.38-185.38c1.512-1.513 2.307-3.596 2.186-5.729zm-192.032 174.361c-2.684-3.882-5.147-7.919-7.373-12.082 7.439-9.449 15.669-19.231 24.519-29.137 2.759-3.089 2.492-7.83-.597-10.59-3.088-2.758-7.83-2.491-10.59.597-7.176 8.033-13.95 15.99-20.255 23.772-5.133-13.772-7.74-28.251-7.74-43.197 0-47.303 27.522-90.844 69.5-111.651v64.621c0 14.776-5.699 28.73-16.046 39.29-1.144 1.167-2.291 2.344-3.443 3.534-2.882 2.975-2.808 7.723.167 10.605 1.457 1.412 3.338 2.114 5.218 2.114 1.959 0 3.916-.763 5.387-2.281 1.132-1.168 2.26-2.325 3.384-3.472 13.112-13.382 20.333-31.064 20.333-49.79v-70.873c12.848-4.376 26.279-6.597 40-6.597 5.556 0 11.104.368 16.507 1.095 7.991 1.057 15.869 2.914 23.493 5.51v46.069zm157.464-157.463v-24.844c5.42 2.682 10.644 5.757 15.635 9.209z"/><path d="m169.248 335.107c24.923 19.851 54.922 30.343 86.752 30.343 43.756 0 84.162-20.007 110.856-54.893 0 0 .001 0 .001-.001 5.609-7.333 10.515-15.271 14.582-23.595 9.33-19.099 14.061-39.626 14.061-61.012 0-31.376-10.772-62.188-30.332-86.761-1.331-1.671-3.311-2.696-5.444-2.817-2.135-.124-4.216.674-5.727 2.185l-53.147 53.147c-.016.016-.031.031-.047.047l-132.186 132.187c-1.511 1.51-2.305 3.593-2.185 5.726s1.145 4.113 2.816 5.444zm189.219-179.807c14.443 20.819 22.033 45.072 22.033 70.65 0 14.958-2.604 29.439-7.731 43.204-13.336-16.461-28.668-33.55-45.722-50.944-5.363-5.473-9.552-12.047-12.3-19.19zm-55.103 55.103c3.328 6.73 7.707 12.936 12.971 18.308 18.784 19.159 35.417 37.908 49.504 55.794-3.177 5.932-6.824 11.616-10.894 16.938-23.834 31.144-59.898 49.007-98.945 49.007-25.576 0-49.828-7.593-70.642-22.042z"/></g></g></svg>