<?xml version="1.0" encoding="utf-8"?>
<!-- Generator: Adobe Illustrator 25.0.0, SVG Export Plug-In . SVG Version: 6.00 Build 0)  -->
<svg version="1.1" id="_x31_px" xmlns="http://www.w3.org/2000/svg" xmlns:xlink="http://www.w3.org/1999/xlink" x="0px" y="0px"
	 viewBox="0 0 512 512" style="enable-background:new 0 0 512 512;" xml:space="preserve">
<style type="text/css">
	.st0{fill:#007A53;}
</style>
<path class="st0" d="M352,426.7h-64c-5.9,0-10.7-4.8-10.7-10.7c0-5.9,4.8-10.7,10.7-10.7h64c5.9,0,10.7,4.8,10.7,10.7
	C362.7,421.9,357.9,426.7,352,426.7z"/>
<path class="st0" d="M352,469.3c-5.9,0-10.7-4.8-10.7-10.7V352c0-5.9,4.8-10.7,10.7-10.7c5.9,0,10.7,4.8,10.7,10.7v106.7
	C362.7,464.6,357.9,469.3,352,469.3z"/>
<path class="st0" d="M288,469.3c-5.9,0-10.7-4.8-10.7-10.7V352c0-5.9,4.8-10.7,10.7-10.7s10.7,4.8,10.7,10.7v106.7
	C298.7,464.6,293.9,469.3,288,469.3z"/>
<path class="st0" d="M181.3,490.7c-5.9,0-10.7-4.8-10.7-10.7v-85.3c0-5.9,4.8-10.7,10.7-10.7h21.3c17.6,0,32,14.4,32,32
	c0,17.6-14.4,32-32,32H192v32C192,485.9,187.2,490.7,181.3,490.7z M192,426.7h10.7c5.9,0,10.7-4.8,10.7-10.7
	c0-5.9-4.8-10.7-10.7-10.7H192V426.7z"/>
<path class="st0" d="M501.3,288H288c-5.9,0-10.7-4.8-10.7-10.7s4.8-10.7,10.7-10.7h202.4c-5.6-124.5-108.6-224-234.4-224
	s-228.8,99.5-234.4,224H224c5.9,0,10.7,4.8,10.7,10.7S229.9,288,224,288H10.7C4.8,288,0,283.2,0,277.3c0-141.2,114.8-256,256-256
	s256,114.8,256,256C512,283.2,507.2,288,501.3,288z"/>
<path class="st0" d="M256,320c-23.5,0-42.7-19.1-42.7-42.7s19.1-42.7,42.7-42.7s42.7,19.1,42.7,42.7S279.5,320,256,320z M256,256
	c-11.8,0-21.3,9.6-21.3,21.3s9.6,21.3,21.3,21.3c11.8,0,21.3-9.6,21.3-21.3S267.8,256,256,256z"/>
<path class="st0" d="M394.7,288c-5.9,0-10.7-4.8-10.7-10.7c0-29.6-9.9-57.5-28.6-80.8c-3.7-4.6-3-11.3,1.6-15c4.6-3.7,11.3-3,15,1.6
	c21.8,27.1,33.3,59.7,33.3,94.2C405.3,283.2,400.6,288,394.7,288z"/>
<path class="st0" d="M117.3,288c-5.9,0-10.7-4.8-10.7-10.7c0-82.3,67-149.3,149.3-149.3c24.9,0,48.7,6,70.7,17.7
	c5.2,2.8,7.2,9.2,4.4,14.4c-2.8,5.2-9.2,7.1-14.4,4.4c-18.9-10.1-39.3-15.2-60.7-15.2c-70.6,0-128,57.4-128,128
	C128,283.2,123.2,288,117.3,288L117.3,288z"/>
<path class="st0" d="M270.7,259.8c-1.7,0-3.5-0.4-5.1-1.3c-5.2-2.8-7.1-9.3-4.3-14.5l59.9-110.5c2.8-5.2,9.3-7.1,14.5-4.3
	c5.2,2.8,7.1,9.3,4.3,14.5l-59.9,110.5C278.2,257.8,274.5,259.8,270.7,259.8L270.7,259.8z"/>
<path class="st0" d="M256,85.3c-5.9,0-10.7-4.8-10.7-10.7V32c0-5.9,4.8-10.7,10.7-10.7s10.7,4.8,10.7,10.7v42.7
	C266.7,80.6,261.9,85.3,256,85.3z"/>
<path class="st0" d="M399.4,144.6c-2.7,0-5.5-1-7.6-3.1c-4.2-4.2-4.2-10.9,0-15.1l30.1-30.1c4.2-4.2,10.9-4.2,15.1,0
	s4.2,10.9,0,15.1l-30.1,30.1C404.8,143.6,402.1,144.6,399.4,144.6L399.4,144.6z"/>
<path class="st0" d="M112.6,144.6c-2.7,0-5.5-1-7.6-3.1L75,111.4c-4.2-4.2-4.2-10.9,0-15.1c4.2-4.2,10.9-4.2,15.1,0l30.1,30.1
	c4.2,4.2,4.2,10.9,0,15.1C118.1,143.6,115.4,144.6,112.6,144.6L112.6,144.6z"/>
</svg>
