<?xml version="1.0" encoding="utf-8"?>
<!-- Generator: Adobe Illustrator 25.0.0, SVG Export Plug-In . SVG Version: 6.00 Build 0)  -->
<svg version="1.1" id="Capa_1" xmlns="http://www.w3.org/2000/svg" xmlns:xlink="http://www.w3.org/1999/xlink" x="0px" y="0px"
	 viewBox="0 0 512 512" style="enable-background:new 0 0 512 512;" xml:space="preserve">
<style type="text/css">
	.st0{fill:#007A53;}
</style>
<g>
	<path class="st0" d="M422.5,493.8c-1.5,0-3.1-0.1-4.7-0.4c-7-1.2-13-5.1-17.1-10.9c-0.1-0.1-0.1-0.2-0.2-0.3
		c-0.1,0.1-0.2,0.1-0.3,0.2c-5.8,4-12.9,5.6-19.8,4.3c-7.3-1.3-13.4-5.5-17.3-11.3c-0.1,0.1-0.2,0.2-0.3,0.2
		c-5.8,4.1-12.9,5.6-19.8,4.3c-7-1.2-13-5.1-17.1-10.9c-0.1-0.1-0.1-0.2-0.2-0.3c-5.6,4-12.8,5.9-20.1,4.6
		c-12.6-2.2-21.5-13-21.8-25.3l-96.8-56.4c-3.6-2.1-4.8-6.7-2.7-10.3c2.1-3.6,6.7-4.8,10.3-2.7l100.8,58.8c2.7,1.6,4.2,4.7,3.6,7.8
		c-1.1,6.3,3.1,12.3,9.3,13.4c6.2,1.1,12.3-3.1,13.4-9.3c1.6-9-0.4-18.2-5.6-25.7c-2.4-3.4-1.5-8.1,1.9-10.4
		c3.4-2.4,8.1-1.5,10.4,1.9c7.5,10.8,10.4,23.9,8.1,36.9c0,0,0,0,0,0c-0.5,3,0.1,6.1,1.9,8.6c1.8,2.5,4.4,4.2,7.4,4.8
		c3,0.5,6.1-0.1,8.6-1.9c2.5-1.8,4.2-4.4,4.8-7.4c2-11.5,0.3-22.9-5.1-33.2c-1.9-3.7-0.5-8.2,3.2-10.1c3.7-1.9,8.2-0.5,10.1,3.2
		c6.9,13.2,9.2,28,6.5,42.8c0,0,0,0,0,0c-1.1,6.3,3.1,12.3,9.3,13.4c3,0.5,6.1-0.1,8.6-1.9c2.5-1.8,4.2-4.4,4.8-7.4
		c2.5-13.7,0.7-27.6-5.1-40.3c-1.7-3.8-0.1-8.2,3.7-10c3.8-1.7,8.2-0.1,10,3.7c7.1,15.4,9.3,32.4,6.3,49.2c0,0,0,0,0,0
		c-0.5,3,0.1,6.1,1.9,8.6c1.8,2.5,4.4,4.2,7.4,4.8c6.3,1.1,12.3-3.1,13.4-9.3c2.9-16,1.1-32.3-5.2-47.2c-1.6-3.8,0.2-8.2,4-9.8
		c3.8-1.6,8.2,0.2,9.8,4c5.2,12.3,7.7,25.5,7.6,38.8l7.5,4.3c6.6,3.8,14.2,4.7,21.4,2.6c7.2-2.1,13.1-6.8,16.7-13.4
		c2.8-6.4,0.8-14.7-4.5-18.4l-6-3.5c-44.9-25.9-84.2-62.2-113.6-104.9c-2.3-3.4-1.5-8.1,1.9-10.4c3.4-2.4,8.1-1.5,10.4,1.9
		c28.1,40.9,65.7,75.6,108.7,100.4l6.3,3.6c0.1,0.1,0.3,0.2,0.4,0.3c11.6,7.8,15.9,24.2,9.9,37.4c-0.1,0.1-0.1,0.3-0.2,0.4
		c-5.5,10.3-14.7,17.8-25.9,21c-11.2,3.2-23,1.8-33.1-4.1l-1.5-0.9c0,0.1,0,0.3-0.1,0.4C446.3,484.7,435.1,493.8,422.5,493.8
		L422.5,493.8z M27.5,448.7c-4.1,0-7.5-3.4-7.5-7.5v-22.5H7.5c-4.1,0-7.5-3.4-7.5-7.5s3.4-7.5,7.5-7.5H20v-22.5
		c0-4.1,3.4-7.5,7.5-7.5s7.5,3.4,7.5,7.5v22.5h12.5c4.1,0,7.5,3.4,7.5,7.5s-3.4,7.5-7.5,7.5H35v22.5C35,445.4,31.6,448.7,27.5,448.7
		z M120.8,419.8c-12.4,0-22.5-10.1-22.5-22.5s10.1-22.5,22.5-22.5s22.5,10.1,22.5,22.5S133.2,419.8,120.8,419.8z M120.8,389.8
		c-4.1,0-7.5,3.4-7.5,7.5s3.4,7.5,7.5,7.5s7.5-3.4,7.5-7.5S124.9,389.8,120.8,389.8z M166.1,378.3c-1.3,0-2.6-0.3-3.8-1l-89.2-52
		C54.5,314.5,41.4,296.1,37,275s0.5-43.2,13.4-60.5L82.7,171L1,29.5c-2.1-3.6-0.8-8.2,2.7-10.2c3.6-2.1,8.2-0.8,10.2,2.7l84.2,145.8
		c1.5,2.6,1.3,5.8-0.5,8.2l-35.2,47.5C52.2,237.4,48.2,255,51.7,272c3.5,16.9,14,31.7,29,40.4l89.2,52c3.6,2.1,4.8,6.7,2.7,10.3
		C171.2,377,168.7,378.3,166.1,378.3L166.1,378.3z M306.4,356c-4.1,0-7.5-3.4-7.5-7.5V326h-12.5c-4.1,0-7.5-3.4-7.5-7.5
		s3.4-7.5,7.5-7.5h12.5v-22.5c0-4.1,3.4-7.5,7.5-7.5s7.5,3.4,7.5,7.5V311h12.5c4.1,0,7.5,3.4,7.5,7.5s-3.4,7.5-7.5,7.5h-12.5v22.5
		C313.9,352.6,310.5,356,306.4,356z M363.3,302c-2.6,0-5.1-1.3-6.5-3.8L201.6,29.5c-2.1-3.6-0.8-8.2,2.7-10.2
		c3.6-2.1,8.2-0.8,10.2,2.7l155.2,268.8c2.1,3.6,0.8,8.2-2.7,10.2C365.8,301.7,364.6,302,363.3,302z M484.5,285.7
		c-4.1,0-7.5-3.4-7.5-7.5v-22.5h-12.5c-4.1,0-7.5-3.4-7.5-7.5s3.4-7.5,7.5-7.5H477v-22.5c0-4.1,3.4-7.5,7.5-7.5s7.5,3.4,7.5,7.5
		v22.5h12.5c4.1,0,7.5,3.4,7.5,7.5s-3.4,7.5-7.5,7.5H492v22.5C492,282.3,488.6,285.7,484.5,285.7L484.5,285.7z M146.6,244
		c-1.3,0-2.6-0.3-3.8-1c-12.3-7.1-20.9-19.2-23.8-33.1c-2.9-13.9,0.4-28.4,8.8-39.8c2.5-3.3,7.2-4,10.5-1.6c3.3,2.5,4,7.2,1.6,10.5
		c-5.9,8-8.2,18.1-6.2,27.9s8.1,18.2,16.6,23.2c3.6,2.1,4.8,6.7,2.7,10.3C151.7,242.7,149.2,244,146.6,244z M329.5,154.4
		c-12.4,0-22.5-10.1-22.5-22.5s10.1-22.5,22.5-22.5s22.5,10.1,22.5,22.5S341.9,154.4,329.5,154.4z M329.5,124.4
		c-4.1,0-7.5,3.4-7.5,7.5s3.4,7.5,7.5,7.5s7.5-3.4,7.5-7.5S333.6,124.4,329.5,124.4z"/>
</g>
</svg>
