<?xml version="1.0" encoding="utf-8"?>
<!-- Generator: Adobe Illustrator 25.0.0, SVG Export Plug-In . SVG Version: 6.00 Build 0)  -->
<svg version="1.1" id="Layer_1" xmlns="http://www.w3.org/2000/svg" xmlns:xlink="http://www.w3.org/1999/xlink" x="0px" y="0px"
	 viewBox="0 0 512 512" style="enable-background:new 0 0 512 512;" xml:space="preserve">
<style type="text/css">
	.st0{fill:#007A53;}
</style>
<g>
	<path class="st0" d="M237.7,71.8c0-9.4,7.7-17.1,17.1-17.1c9.4,0,17.1,7.7,17.1,17.1c0,4.1,3.4,7.5,7.5,7.5s7.5-3.4,7.5-7.5
		c0-17.7-14.4-32.1-32.1-32.1c-17.7,0-32.1,14.4-32.1,32.1c0,4.1,3.4,7.5,7.5,7.5S237.7,76,237.7,71.8L237.7,71.8z"/>
	<path class="st0" d="M508.7,336c-16.8-11.5-36.5-17.6-56.9-17.6h-18.4c-20.4,0-40.3-11.1-55.9-31.3c-21.2-29.8-27.8-67.7-28.4-86.3
		c47.7-43.7,71.8-83.1,71.8-117.4c0-4.2-0.2-8.5-0.5-12.6c0,0,0-0.1,0-0.1c-1-9.8-1.5-32.8-1.6-63.2c0-4.1-3.4-7.5-7.5-7.5h-32.9
		c-4.1,0-7.5,3.4-7.5,7.5s3.4,7.5,7.5,7.5h25.4c0.1,27.1,0.7,47.7,1.6,57.1c0.3,3.7,0.5,7.5,0.5,11.3c0,35.4-31.2,78.7-92.8,128.5
		c-16.3,13.3-36.9,20.6-58,20.6c-0.1,0-0.3,0-0.4,0c-21.1,0-41.7-7.3-58.1-20.6c-61.5-49.8-92.7-93-92.7-128.4c0-4,0.2-7.8,0.5-11.2
		c0.8-8.3,1.2-23.4,1.4-34.7c0.1-6.9,0.2-14.5,0.2-22.6h237.8c4.1,0,7.5-3.4,7.5-7.5S347.8,0,343.6,0H98.4c-4.1,0-7.5,3.4-7.5,7.5
		c0,10.9-0.1,21-0.2,29.9c-0.3,15.7-0.7,27.3-1.3,33.5c-0.3,3.9-0.5,8.1-0.5,12.6c0,34.3,24.2,73.7,71.8,117.4
		c-0.7,18.6-7.2,56.4-28.4,86.3c-15.7,20.2-35.5,31.3-55.9,31.3c0,0,0,0,0,0H59.6c-10.2,0-20.2,1.5-29.7,4.5c-0.1,0-0.1,0-0.2,0.1
		c-9.3,2.9-18.2,7.1-26.4,12.7C1.2,337,0,339.3,0,341.8v125.5C0,491.9,20.1,512,44.7,512c4.1,0,7.5-3.4,7.5-7.5s-3.4-7.5-7.5-7.5
		C28.3,497,15,483.7,15,467.3V345.9c4.8-2.9,9.8-5.3,15-7.3c29.2,28.3,63.6,50.4,102.4,65.8c38.9,15.4,80,23.2,122.4,23.3
		c52.4-0.1,104.4-12.5,150.1-35.8c3.7-1.9,5.2-6.4,3.3-10.1s-6.4-5.2-10.1-3.3c-43.7,22.3-93.2,34.1-143.3,34.2
		c-40.4-0.1-79.8-7.6-116.9-22.3c-34-13.5-64.5-32.3-90.7-56.2c4.1-0.6,8.2-0.9,12.3-0.9h14.1c25.8,19.9,54.5,35.4,85.3,45.9
		c30.8,10.5,63,15.8,95.6,15.9h0.2c32.6,0,64.7-5.3,95.5-15.8c30.9-10.5,59.7-26,85.6-46h15.9c3.6,0,7.3,0.2,10.8,0.7
		c-11.3,10.2-23.4,19.7-36.2,28.1c-3.5,2.3-4.4,6.9-2.2,10.4c1.4,2.2,3.8,3.4,6.3,3.4c1.4,0,2.8-0.4,4.1-1.2
		c16.3-10.7,31.6-23,45.5-36.5c5.9,2.1,11.5,4.8,16.9,8.1v121c0,16.4-13.3,29.7-29.7,29.7H79.5c-4.1,0-7.5,3.4-7.5,7.5
		s3.4,7.5,7.5,7.5h387.7c24.7,0,44.7-20.1,44.7-44.7V342.2C512,339.7,510.8,337.4,508.7,336L508.7,336z M345.5,365.1
		c-29.2,9.9-59.7,15-90.6,15c-0.1,0-0.1,0-0.1,0c-31,0-61.5-5.1-90.8-15c-24.3-8.3-47.2-19.8-68.3-34.3c18-5,34.8-16.8,48.6-34.6
		c0.1-0.1,0.1-0.2,0.2-0.2c19.4-27.2,27.7-60.5,30.3-82.7c4,3.4,8.1,6.9,12.4,10.3c19,15.5,43,24,67.5,24c0.2,0,0.3,0,0.5,0
		c24.5,0,48.4-8.5,67.4-23.9c4.3-3.5,8.5-6.9,12.5-10.4c2.7,22.2,10.9,55.5,30.3,82.7c0.1,0.1,0.1,0.2,0.2,0.2
		c13.8,17.8,30.6,29.6,48.6,34.6C392.9,345.3,369.9,356.8,345.5,365.1L345.5,365.1z"/>
	<path class="st0" d="M202.6,151.7c-1.6,2.6-1.4,5.9,0.3,8.3c1.8,2.4,4.8,3.6,7.8,2.9c28.7-6.7,59.5-6.7,88.2,0
		c0.6,0.1,1.1,0.2,1.7,0.2c2.4,0,4.6-1.1,6.1-3.1c1.8-2.4,1.9-5.7,0.3-8.3c-9.9-16.2-23.4-38.4-52.2-38.4
		C226,113.3,212.5,135.5,202.6,151.7L202.6,151.7z M254.8,128.3c13.6,0,22.7,7.4,29.8,16.6c-9.8-1.4-19.8-2.1-29.8-2.1
		c-10,0-20,0.7-29.8,2.1C232.2,135.7,241.2,128.3,254.8,128.3z"/>
	<path class="st0" d="M293.1,304.4h-13.6c-0.5-1.6-1.1-3.2-1.9-4.6l6.6-6.6c2.9-2.9,2.9-7.7,0-10.6c-2.9-2.9-7.7-2.9-10.6,0
		l-6.6,6.6c-1.5-0.8-3-1.4-4.6-1.9v-13.6c0-4.1-3.4-7.5-7.5-7.5s-7.5,3.4-7.5,7.5v13.6c-1.6,0.5-3.2,1.1-4.6,1.9l-17.6-17.6
		c-2.9-2.9-7.7-2.9-10.6,0c-2.9,2.9-2.9,7.7,0,10.6l17.6,17.6c-0.8,1.5-1.4,3-1.9,4.6h-13.6c-4.1,0-7.5,3.4-7.5,7.5s3.4,7.5,7.5,7.5
		h13.6c0.5,1.6,1.1,3.2,1.9,4.6l-6.6,6.6c-2.9,2.9-2.9,7.7,0,10.6c1.5,1.5,3.4,2.2,5.3,2.2c1.9,0,3.8-0.7,5.3-2.2l6.6-6.6
		c1.5,0.8,3,1.4,4.6,1.9v13.6c0,4.1,3.4,7.5,7.5,7.5c4.1,0,7.5-3.4,7.5-7.5v-13.6c1.6-0.5,3.2-1.1,4.6-1.9l17.6,17.6
		c1.5,1.5,3.4,2.2,5.3,2.2s3.8-0.7,5.3-2.2c2.9-2.9,2.9-7.7,0-10.6l-17.6-17.6c0.8-1.5,1.4-3,1.9-4.6h13.6c4.1,0,7.5-3.4,7.5-7.5
		S297.2,304.4,293.1,304.4z M254.8,322.7c-5.9,0-10.8-4.8-10.8-10.8s4.8-10.8,10.8-10.8c5.9,0,10.8,4.8,10.8,10.8
		S260.8,322.7,254.8,322.7z"/>
	<path class="st0" d="M4.2,175.7L43.3,195l-10.7,8c-2.2,1.6-3.3,4.3-3,6.9s2.1,5,4.6,6l81.3,33.6c0.9,0.4,1.9,0.6,2.9,0.6
		c2.2,0,4.3-1,5.8-2.7c2.1-2.5,2.3-6.1,0.5-8.9l-25.7-39.3l10.5-8.5c1.8-1.4,2.8-3.6,2.8-5.8c0-2.3-1-4.4-2.8-5.8l-57-46.2
		c-2.7-2.2-6.5-2.2-9.2-0.2L3,162.9c-2.1,1.6-3.2,4.1-3,6.7C0.3,172.2,1.8,174.5,4.2,175.7L4.2,175.7z M47.5,148.4L92.7,185
		l-8.6,6.9c-3,2.4-3.7,6.7-1.6,10l16.1,24.6l-46.6-19.3l9.9-7.4c2.1-1.6,3.2-4.1,3-6.7c-0.2-2.6-1.8-4.9-4.1-6l-39.1-19.4
		L47.5,148.4z"/>
	<path class="st0" d="M45.8,288.2c1,2.5,3.3,4.3,6,4.6l39.6,5.1c0.3,0,0.7,0.1,1,0.1c3.7,0,6.9-2.8,7.4-6.5c0.5-4.1-2.4-7.9-6.5-8.4
		l-26.5-3.4l7.8-9.9c1.7-2.1,2.1-5,1.1-7.5s-3.3-4.3-6-4.6l-39.6-5.1c-4.1-0.5-7.9,2.4-8.4,6.5c-0.5,4.1,2.4,7.9,6.5,8.4l26.5,3.4
		l-7.8,9.9C45.2,282.9,44.8,285.7,45.8,288.2L45.8,288.2z"/>
	<path class="st0" d="M399.8,185.4c0,2.3,1,4.4,2.8,5.8l10.5,8.5L387.4,239c-1.8,2.8-1.6,6.4,0.5,8.9c1.5,1.8,3.6,2.7,5.8,2.7
		c1,0,1.9-0.2,2.9-0.6l81.3-33.6c2.5-1,4.2-3.3,4.6-6c0.3-2.7-0.8-5.3-3-6.9l-10.7-8l39.1-19.4c2.3-1.2,3.9-3.4,4.1-6
		c0.2-2.6-0.9-5.1-3-6.7l-40.2-30.1c-2.8-2.1-6.5-2-9.2,0.2l-57,46.2C400.8,181,399.8,183.2,399.8,185.4L399.8,185.4z M427.9,192.3
		l-8.6-6.9l45.2-36.6l25.8,19.3l-39.1,19.4c-2.3,1.2-3.9,3.4-4.1,6c-0.2,2.6,0.9,5.1,3,6.7l9.9,7.4l-46.6,19.3l16.1-24.6
		C431.6,199,430.9,194.7,427.9,192.3L427.9,192.3z"/>
	<path class="st0" d="M490.2,259.4c-0.5-4.1-4.3-7-8.4-6.5l-39.6,5.1c-2.7,0.3-5,2.1-6,4.6s-0.6,5.4,1.1,7.5l7.8,9.9l-26.5,3.4
		c-4.1,0.5-7,4.3-6.5,8.4c0.5,3.8,3.7,6.5,7.4,6.5c0.3,0,0.6,0,1-0.1l39.6-5.1c2.7-0.3,5-2.1,6-4.6s0.6-5.4-1.1-7.5l-7.8-9.9
		l26.5-3.4C487.9,267.3,490.8,263.5,490.2,259.4L490.2,259.4z"/>
	<ellipse class="st0" cx="189.2" cy="345.1" rx="7.5" ry="7.5"/>
	<ellipse class="st0" cx="185.4" cy="296.8" rx="7.5" ry="7.5"/>
	<ellipse class="st0" cx="316.4" cy="258.8" rx="7.5" ry="7.5"/>
	<ellipse class="st0" cx="322.4" cy="325.8" rx="7.5" ry="7.5"/>
</g>
</svg>
