<?xml version="1.0" encoding="utf-8"?>
<!-- Generator: Adobe Illustrator 25.0.0, SVG Export Plug-In . SVG Version: 6.00 Build 0)  -->
<svg version="1.1" id="Layer_1" xmlns="http://www.w3.org/2000/svg" xmlns:xlink="http://www.w3.org/1999/xlink" x="0px" y="0px"
	 viewBox="0 0 512 512" style="enable-background:new 0 0 512 512;" xml:space="preserve">
<style type="text/css">
	.st0{fill:#007A53;}
</style>
<g>
	<path class="st0" d="M424.8,252.3v-15.5c0-17.5-2.7-34.7-8-51.2l59.9-48.2c6.4-5.1,8.7-13.4,6-21.1c-2.7-7.7-9.7-12.7-17.9-12.7
		h-25.8l39.7-70c4-7,3.9-15.4-0.1-22.4C474.4,4.2,467.2,0,459.1,0h-73.3c-8.5,0-16.5,5-20.2,12.6l0,0l-35.8,73.5
		C317,80,303.5,75.6,289.6,72.9c-10.4-2-21-3-31.7-3c-39.8,0-78.3,14.3-108.5,40.1c-3.2,2.7-3.6,7.5-0.8,10.7
		c1.5,1.8,3.6,2.7,5.8,2.7c1.8,0,3.5-0.6,4.9-1.8c27.4-23.5,62.5-36.5,98.6-36.5c9.7,0,19.4,0.9,28.8,2.7
		c12.6,2.4,24.8,6.4,36.3,11.9l-12.7,26.1c-2.8,5.8-2.5,12.6,1,18.1c3.4,5.5,9.4,8.8,15.8,8.8h24.3l-22.2,59
		c-3,7.9-0.4,16.6,6.5,21.5c3.3,2.4,7.1,3.6,10.9,3.6c4.1,0,8.2-1.4,11.6-4.1l45.7-36.8c3.7,13.3,5.6,27,5.6,40.9v15.8
		c-52.1-0.7-123.9-8-184.2-37.4c-37.7-18.4-53.3-36.9-53.4-37.1c-2-2.5-5.4-3.4-8.4-2.4c-3,1.1-5.1,3.9-5.1,7.2
		c0,13.3-6.6,28-18.5,41.3c-9.3,10.4-21.1,19.1-33.6,24.9v-12.3c0-33.5,10.7-65.3,31-91.9c2.5-3.3,1.9-8.1-1.4-10.7
		c-3.3-2.5-8.1-1.9-10.7,1.4c-22.3,29.3-34.1,64.2-34.1,101.1v15.6c-1.3,0-2.4-0.1-3.1-0.1c-33,0-59.8,26.8-59.8,59.8
		c0,33,26.8,59.8,59.8,59.8c1.7,0,3.4-0.1,5.1-0.2C105.9,451.1,174.9,512,257.9,512c10.7,0,21.3-1,31.7-3
		c44.2-8.5,83.7-35.2,108.4-73.1c2.3-3.5,1.3-8.2-2.2-10.5c-3.5-2.3-8.2-1.3-10.5,2.2c-22.4,34.5-58.3,58.7-98.5,66.5
		c-9.4,1.8-19.1,2.7-28.8,2.7c-83.6,0-151.6-68-151.6-151.6v-79.6c16.8-6.5,32.6-17.4,44.9-31.2c10-11.2,16.9-23.4,20.2-35.6
		c9.1,7.8,24,18.7,46.1,29.6c35.6,17.5,97.5,38.3,192,39.5v77.4c0,20-3.8,39.4-11.3,57.7c-1.6,3.9,0.3,8.3,4.1,9.9
		c0.9,0.4,1.9,0.6,2.9,0.6c3,0,5.8-1.8,7-4.7c4.9-11.9,8.4-24.2,10.4-36.8c0.3,0,0.7,0,1,0c33,0,59.8-26.8,59.8-59.8
		C483.4,279.5,457.2,252.9,424.8,252.3z M348.7,220.8c-1.7,1.4-3.2,0.7-4,0.1c-0.8-0.6-1.9-1.8-1.2-3.8l26.1-69.2
		c0.9-2.3,0.6-5-0.9-7c-1.4-2.1-3.8-3.3-6.3-3.3h-35.3c-1.7,0-2.6-1-2.9-1.6c-0.4-0.6-0.9-1.9-0.2-3.4l55.1-113.3l0,0
		c1.2-2.5,3.8-4.1,6.5-4.1h73.3c3.8,0,5.7,2.5,6.3,3.6c0.6,1.1,1.9,4,0,7.2l-46.1,81.3c-1.3,2.4-1.3,5.2,0,7.6
		c1.4,2.3,3.9,3.8,6.6,3.8h38.8c2.4,0,3.3,1.8,3.6,2.5c0.3,0.8,0.7,2.7-1.2,4.2L348.7,220.8z M88.1,356.6c-24.6,0-44.6-20-44.6-44.6
		c0-24.6,20-44.6,44.6-44.6c0.5,0,1.7,0,3.1,0.1V293c-10.4-0.2-23.4,3.4-29.6,17.5c-1.7,3.9,0.1,8.3,3.9,10c1,0.4,2,0.6,3,0.6
		c2.9,0,5.7-1.7,7-4.6c3.3-7.5,10.5-8.6,15.6-8.4v37c0,3.8,0.1,7.5,0.4,11.3C90.4,356.5,89.2,356.6,88.1,356.6z M424.4,356.6
		c0.3-3.8,0.4-7.6,0.4-11.4v-37c5.1-0.2,12.4,0.9,15.6,8.4c1.2,2.9,4,4.6,7,4.6c1,0,2-0.2,3-0.6c3.9-1.7,5.6-6.2,3.9-10
		c-6.2-14.2-19.2-17.7-29.6-17.5v-25.6c24,0.6,43.4,20.3,43.4,44.5C468.2,336.4,448.6,356.2,424.4,356.6z"/>
	<path class="st0" d="M219.5,413.6c21.2-21.2,55.7-21.2,76.9,0c1.5,1.5,3.4,2.2,5.4,2.2s3.9-0.7,5.4-2.2c3-3,3-7.8,0-10.8
		c-27.1-27.1-71.3-27.1-98.4,0c-3,3-3,7.8,0,10.8C211.7,416.6,216.5,416.6,219.5,413.6z"/>
	<path class="st0" d="M168.2,343.9c1,3.3,4,5.4,7.3,5.4c0.7,0,1.5-0.1,2.2-0.3l40.2-12.4c2.5-0.8,4.5-2.8,5.1-5.4
		c0.6-2.6-0.1-5.3-2-7.2l-27-27c-3-3-7.8-3-10.8,0c-3,3-3,7.8,0,10.8l18.1,18.1l-28.1,8.7C169.2,335.7,167,339.9,168.2,343.9z"/>
	<path class="st0" d="M339.3,349.3c3.3,0,6.3-2.1,7.3-5.4c1.2-4-1-8.3-5-9.5l-28.1-8.7l18.1-18.1c3-3,3-7.8,0-10.8
		c-3-3-7.8-3-10.8,0l-27,27c-1.9,1.9-2.6,4.6-2,7.2c0.6,2.6,2.6,4.6,5.1,5.4l40.2,12.4C337.8,349.2,338.6,349.3,339.3,349.3z"/>
	<path class="st0" d="M74.9,92.6l-29.4,6.8c-2.4,0.6-4.4,2.3-5.4,4.6c-0.9,2.3-0.6,4.9,0.7,7l30.9,46.4c1.5,2.2,3.9,3.4,6.3,3.4
		c1.4,0,2.9-0.4,4.2-1.3c3.5-2.3,4.4-7,2.1-10.5l-24.8-37.2l29.5-6.8c2.4-0.6,4.4-2.3,5.4-4.6s0.6-5-0.8-7L50.9,29.9
		c-2.3-3.5-7.1-4.4-10.6-2c-3.5,2.3-4.4,7.1-2,10.6L74.9,92.6z"/>
	<path class="st0" d="M132.5,93.7c1.2,2.9,4,4.6,7,4.6c1,0,2-0.2,3-0.6c3.9-1.7,5.6-6.1,4-10l-12.3-28.5l20.1-0.9
		c2.5-0.1,4.8-1.5,6.1-3.6c1.3-2.1,1.5-4.8,0.5-7.1l-15.7-35.9c-1.7-3.8-6.2-5.6-10-3.9c-3.8,1.7-5.6,6.2-3.9,10l11.3,25.8l-20,0.9
		c-2.5,0.1-4.8,1.4-6.1,3.6c-1.3,2.1-1.5,4.7-0.5,7L132.5,93.7z"/>
</g>
</svg>
