<?xml version="1.0" encoding="utf-8"?>
<!-- Generator: Adobe Illustrator 25.0.0, SVG Export Plug-In . SVG Version: 6.00 Build 0)  -->
<svg version="1.1" id="Capa_1" xmlns="http://www.w3.org/2000/svg" xmlns:xlink="http://www.w3.org/1999/xlink" x="0px" y="0px"
	 viewBox="0 0 512 512" style="enable-background:new 0 0 512 512;" xml:space="preserve">
<style type="text/css">
	.st0{fill:#007A53;}
</style>
<g>
	<g>
		<path class="st0" d="M419.6,143.5c-15,0-27.3,12.2-27.3,27.3c0,15,12.2,27.3,27.3,27.3c15,0,27.3-12.2,27.3-27.3
			C446.9,155.7,434.7,143.5,419.6,143.5z M419.6,183c-6.8,0-12.3-5.5-12.3-12.3c0-6.8,5.5-12.3,12.3-12.3c6.8,0,12.3,5.5,12.3,12.3
			C431.9,177.5,426.4,183,419.6,183z"/>
		<path class="st0" d="M343.9,143.5c-15,0-27.3,12.2-27.3,27.3c0,15,12.2,27.3,27.3,27.3c15,0,27.3-12.2,27.3-27.3
			C371.1,155.7,358.9,143.5,343.9,143.5z M343.9,183c-6.8,0-12.3-5.5-12.3-12.3c0-6.8,5.5-12.3,12.3-12.3c6.8,0,12.3,5.5,12.3,12.3
			C356.1,177.5,350.6,183,343.9,183z"/>
		<path class="st0" d="M434.3,39.4H329.2c-6.9,0-12.6,5.7-12.6,12.6v50.3c0,6.9,5.6,12.6,12.6,12.6h36.3c4.1,0,7.5-3.4,7.5-7.5
			s-3.4-7.5-7.5-7.5h-33.9V54.4h100.3v45.5h-30c-4.1,0-7.5,3.4-7.5,7.5s3.4,7.5,7.5,7.5h32.4c6.9,0,12.6-5.7,12.6-12.6V52
			C446.9,45.1,441.3,39.4,434.3,39.4z"/>
		<path class="st0" d="M441.2,0H322.3c-24.9,0-45.2,20.3-45.2,45.2v143.2c0,42.2,34.2,76.5,76.4,76.7v39.6H249.4
			c5.6-16.8,4-31.9,1.2-42.3c-4.2-15.8-13.3-29.8-24.9-38.4c-7.4-5.4-16.9-6.6-24.7-3.1c-7.9,3.6-13.1,11.4-14.1,21.6
			c-2.4,24.8-9.9,41.2-22.7,50.2c-10,7-30.3,11.8-39.3,12h-20.4v-3.2c0-5.9-4.8-10.7-10.7-10.7H36.4c-5.9,0-10.7,4.8-10.7,10.7v72.7
			c0,4.1,3.4,7.5,7.5,7.5s7.5-3.4,7.5-7.5v-68.4h48.7v175.5H40.6v-72.5c0-4.1-3.4-7.5-7.5-7.5s-7.5,3.4-7.5,7.5v76.8
			c0,5.9,4.8,10.7,10.7,10.7h57.3c5.9,0,10.7-4.8,10.7-10.7v-3.2h15.9c12.7,0,19.3,5.1,27.6,11.5c9.2,7.1,20.6,15.8,41.8,18.1
			c0.3,0,0.5,0,0.8,0h70h63.5c12.6,0,20.3-5.4,24.5-9.9c5.4-5.8,8.4-13.4,8.4-21.7c0-6.9-2.2-13.8-6.5-19.4
			c12.1-5.3,18.3-17,18.3-28.7c0-6.9-2.2-13.8-6.5-19.4c4.4-1.9,7.7-4.6,9.9-7c5.4-5.8,8.4-13.4,8.4-21.7c0-5.7-1.5-11.5-4.5-16.5
			H407c21.6,0,32.9-15.9,32.9-31.5c0-14.9-10.3-30-29.9-31.4v-39.7c42.1-0.2,76.4-34.5,76.4-76.7V45.2C486.4,20.3,466.1,0,441.2,0
			L441.2,0z M395,306.5c0,7.3-6,13.3-13.3,13.3c-7.3,0-13.3-5.9-13.3-13.3v-78.4H395V306.5z M337.7,491.9c-3.2,3.4-7.9,5.1-13.6,5.1
			h-63.5c-12.4,0-17.9-8.3-17.9-16.5c0-4.4,1.5-8.4,4.3-11.4c3.2-3.4,7.9-5.1,13.6-5.1h63.5c12.4,0,17.9,8.3,17.9,16.5
			C342,484.9,340.4,488.9,337.7,491.9z M335.9,449h-75.3c-12.4,0-17.9-8.3-17.9-16.5c0-4.4,1.5-8.4,4.3-11.4
			c3.2-3.4,7.9-5.1,13.6-5.1h75.3c12.4,0,17.9,8.3,17.9,16.5C353.8,440.6,348.3,449,335.9,449z M365.6,384.4
			c0,8.2-5.5,16.5-17.9,16.5h-87.1c-12.4,0-17.9-8.3-17.9-16.5c0-4.4,1.5-8.4,4.3-11.4c3.2-3.4,7.9-5.1,13.6-5.1h87.1
			C360.1,367.8,365.6,376.1,365.6,384.4z M424.9,336.3c0,8.2-5.5,16.5-17.9,16.5H260.6c-21.6,0-32.9,15.9-32.9,31.5
			c0,8.9,3.7,17.9,10.9,24c-7.2,6.1-10.9,15.1-10.9,24c0,9,3.7,18,10.9,24.1c-0.9,0.8-1.8,1.6-2.5,2.4c-5.4,5.8-8.4,13.4-8.4,21.7
			c0,5.7,1.5,11.5,4.5,16.5H191c-16.8-1.9-25.1-8.3-33.9-15.1c-9.3-7.2-19-14.6-36.8-14.6h-15.9V319.8h21.1
			c9.5-0.1,34.5-5.9,47.2-14.7c16.7-11.6,26.2-31.6,29.1-61.1c0.3-3.3,1.5-7.7,5.3-9.4c2.9-1.3,6.7-0.7,9.8,1.5
			c18.2,13.3,28.9,44.9,14.6,72.7c-1.2,2.3-1.1,5.1,0.3,7.3c1.4,2.2,3.8,3.6,6.4,3.6h118.7c4.8,8.9,14.2,15,25,15
			c10.8,0,20.2-6.1,25-15c0.1,0,0.2,0,0.3,0C419.4,319.8,424.9,328.1,424.9,336.3L424.9,336.3z M471.4,188.4
			c0,33.9-27.5,61.5-61.4,61.7v-24.8c0-6.7-5.5-12.2-12.2-12.2h-32.2c-6.7,0-12.2,5.5-12.2,12.2v24.8c-33.9-0.2-61.4-27.8-61.4-61.7
			V45.2c0-16.7,13.6-30.2,30.2-30.2h118.9c16.7,0,30.2,13.6,30.2,30.2L471.4,188.4L471.4,188.4z"/>
	</g>
</g>
</svg>
