<?xml version="1.0" encoding="utf-8"?>
<!-- Generator: Adobe Illustrator 25.0.0, SVG Export Plug-In . SVG Version: 6.00 Build 0)  -->
<svg version="1.1" id="Capa_1" xmlns="http://www.w3.org/2000/svg" xmlns:xlink="http://www.w3.org/1999/xlink" x="0px" y="0px"
	 viewBox="0 0 512 512" style="enable-background:new 0 0 512 512;" xml:space="preserve">
<style type="text/css">
	.st0{fill:#007A53;}
</style>
<g>
	<g>
		<g>
			<path class="st0" d="M509.9,397.7c-0.1-0.2-0.1-0.4-0.2-0.6l-56.8-174.4c-14.9-57.9-65.1-89.8-141.3-89.8
				c-7.9,0-15.7,2.5-22.1,6.9c-1.8-1.6-4.1-2.5-6.7-2.5h0c-5.5,0-10,4.5-10,10c0,9.2,0.1,35,0.1,35h-33.6l0-126.1h33.5l0,0.6
				c-0.1,5.5,4.4,10,9.9,10.1c5.5,0.1,10-4.4,10.1-9.9l0.1-10.7c0-2.7-1-5.2-2.9-7.1s-4.4-3-7.1-3h-53.6c-5.5,0-10,4.5-10,10v91.5
				c-5.7-3.1-12.1-4.8-18.7-4.8c-76.3,0-126.4,31.9-141.3,89.8L2.3,397.1c-0.1,0.2-0.1,0.4-0.2,0.6c-5.9,23.2,0.5,45.3,17.5,60.8
				c12.5,11.3,28.9,17.3,46,17.3c8.7,0,17.6-1.5,26.3-4.7c7.5-2.7,37.7-7.7,54.9-10.1c0.3,0,0.5-0.1,0.8-0.1
				c30.3-6.9,57.3-23.6,76.2-47c12.9-16,13.8-33.8,14.7-51c0.2-2.9,0.3-5.9,0.5-8.9c0-0.2,0-0.5,0-0.7v-67.1l16.8-7.7l16.8,7.7v67.1
				c0,0.2,0,0.5,0,0.7c0.2,3,0.4,6,0.5,8.9c0.9,17.2,1.9,35,14.7,51c18.9,23.5,45.9,40.1,76.2,47c0.3,0.1,0.5,0.1,0.8,0.1
				c17.2,2.5,47.4,7.4,54.9,10.1c8.7,3.1,17.6,4.7,26.3,4.7c17.1,0,33.5-5.9,46-17.3C509.4,443.1,515.8,420.9,509.9,397.7
				L509.9,397.7z M219.2,352.8c-0.2,3-0.4,6-0.5,8.9c-0.8,15.3-1.5,28.6-10.4,39.5c-16,19.9-38.9,34-64.6,39.9
				c-6.4,0.9-46.8,6.8-58.5,11.1c-18.8,6.8-38.8,3.5-52.1-8.6c-11.3-10.2-15.5-25-11.6-40.7l56.8-174.4c0.1-0.2,0.1-0.4,0.2-0.6
				c15.8-62,75.1-75,122-75c5.3,0,10.1,2.1,13.7,6c2.8,3,4.5,6.8,4.9,10.8v21.4c0,0.3,0,0.7,0,1v0c-0.5,18.9-13.5,35.4-31.8,40.2
				l-4.2,1.1c-8.9,2.3-18.3,1.3-26.5-2.8l-1.9-0.9c-3.6-1.8-8-1.3-11.1,1.4c-3.1,2.7-4.2,7-2.8,10.8l9.1,26h-30.3
				c-5.5,0-10,4.5-10,10s4.5,10,10,10h37.3l9,25.8v1c0,1.7,0,3.4-0.1,5l-71.1,9.7c-5.5,0.7-9.3,5.8-8.6,11.3c0.7,5,5,8.6,9.9,8.6
				c0.5,0,0.9,0,1.4-0.1l64.9-8.9c-6.2,18.9-20.3,31.8-43.2,49.4l-2,1.6c-4.4,3.4-5.2,9.6-1.8,14c2,2.6,4.9,3.9,7.9,3.9
				c2.1,0,4.3-0.7,6.1-2.1l2-1.6c31.8-24.5,54.4-45.4,54.6-90.4c0-0.1,0-0.2,0.1-0.3c0.7-3.3,3-6.1,6.1-7.5l27.1-12.4L219.2,352.8z
				 M183.8,289.4c-1.5,0.7-3,1.5-4.3,2.4l-13.1-37.6c7.3,0.9,14.7,0.5,21.9-1.4l4.2-1.1c23.6-6.2,41.4-25.8,45.7-49.3h7.8V261
				L183.8,289.4z M266,202.3h7.8c4.3,23.5,22.1,43.1,45.7,49.3l4.2,1.1c7.2,1.9,14.7,2.4,21.9,1.4l-13.1,37.6
				c-1.4-0.9-2.8-1.7-4.3-2.4L266,261L266,202.3L266,202.3z M478.9,443.7c-13.4,12.1-33.3,15.4-52.1,8.6
				c-11.6-4.2-52.1-10.1-58.5-11.1c-25.7-5.9-48.7-20.1-64.6-39.9c-8.8-11-9.5-24.2-10.4-39.5c-0.2-2.9-0.3-5.9-0.5-8.9v-57.6
				l27.1,12.4c3.1,1.4,5.4,4.2,6.1,7.5c0,0.1,0,0.2,0.1,0.3c0.2,45,22.8,65.9,54.6,90.4l2,1.6c1.8,1.4,4,2.1,6.1,2.1
				c3,0,6-1.3,7.9-3.9c3.4-4.4,2.5-10.7-1.8-14l-2-1.6c-22.9-17.6-37-30.5-43.2-49.4l64.9,8.9c0.5,0.1,0.9,0.1,1.4,0.1
				c4.9,0,9.2-3.6,9.9-8.6c0.7-5.5-3.1-10.5-8.6-11.3l-71.1-9.7c-0.1-1.6-0.1-3.3-0.1-5v-1l9-25.8h37.3c5.5,0,10-4.5,10-10
				s-4.5-10-10-10H362l9.1-26c1.3-3.8,0.2-8.1-2.8-10.8c-3.1-2.7-7.4-3.2-11.1-1.4l-1.9,0.9c-8.2,4.1-17.6,5.1-26.5,2.8l-4.2-1.1
				c-18.2-4.8-31.3-21.3-31.8-40.1c0-0.7-0.1-20.9-0.1-22c0.3-4.2,2-8.2,5-11.3c3.6-3.9,8.5-6,13.7-6c47,0,106.3,13,122,75
				c0.1,0.2,0.1,0.4,0.2,0.6L490.5,403C494.4,418.6,490.2,433.5,478.9,443.7L478.9,443.7z"/>
			<path class="st0" d="M280.8,92.5c-4.1,0.8-7.3,4.2-7.9,8.4c-0.6,4.2,1.6,8.4,5.3,10.3c3.8,2,8.6,1.2,11.6-1.8
				c3-2.9,3.7-7.6,2-11.3C289.8,93.9,285.2,91.6,280.8,92.5z"/>
		</g>
	</g>
</g>
</svg>
