<?xml version="1.0" encoding="utf-8"?>
<!-- Generator: Adobe Illustrator 25.0.0, SVG Export Plug-In . SVG Version: 6.00 Build 0)  -->
<svg version="1.1" id="Layer_1" xmlns="http://www.w3.org/2000/svg" xmlns:xlink="http://www.w3.org/1999/xlink" x="0px" y="0px"
	 viewBox="0 0 512 512" style="enable-background:new 0 0 512 512;" xml:space="preserve">
<style type="text/css">
	.st0{fill:#007A53;}
</style>
<g id="Page-1">
	<g id="_x30_12---Blood-Pressure" transform="translate(0 -1)">
		<path id="Shape" class="st0" d="M486.4,359.4h-17.1v-8.5c0-14.1-11.5-25.6-25.6-25.6h-30.7c-10.1,0-19.7,4.5-26.2,12.3l-27.3,32.8
			c-3.2,3.9-8,6.1-13.1,6.1H179.2c-4.7,0-8.5-3.8-8.5-8.5v-10.1c10.2-3.6,17-13.2,17.1-24v-93.9h8.5c18.9,0,34.1-15.3,34.1-34.1
			v-68.3c0-4.7,3.8-8.5,8.5-8.5c4.7,0,8.5,3.8,8.5,8.5v170.7c0,28.3,22.9,51.2,51.2,51.2s51.2-22.9,51.2-51.2v-0.9
			c19.9-4.8,36.1-19.1,43.4-38.2c0.1-0.1,0.2-0.3,0.2-0.4c5-11.8,7.6-24.5,7.5-37.3c0.5-23-8.2-45.3-24.3-61.7
			c8.7-3.6,14.7-11.8,15.6-21.2s-3.5-18.6-11.4-23.8c24.1-17.2,34.4-48.1,25.3-76.4c-9.1-28.3-35.3-47.4-65-47.4s-56,19.2-65,47.4
			s1.2,59.1,25.3,76.4c-7.9,5.2-12.3,14.4-11.4,23.8c0.9,9.4,6.9,17.6,15.6,21.2c-16.1,16.4-24.9,38.7-24.3,61.7
			c-0.1,12.8,2.5,25.5,7.5,37.3c0.1,0.2,0.1,0.3,0.2,0.4c7.3,19.1,23.5,33.4,43.4,38.2v0.9c0,18.9-15.3,34.1-34.1,34.1
			c-18.9,0-34.1-15.3-34.1-34.1V137.5c0-14.1-11.5-25.6-25.6-25.6c-14.1,0-25.6,11.5-25.6,25.6v68.3c0,9.4-7.6,17.1-17.1,17.1h-8.5
			v-59.7c0-10.8-6.9-20.4-17.1-24V77.8C170.7,35.4,136.3,1,93.9,1S17.1,35.4,17.1,77.8v61.3c-10.2,3.6-17,13.2-17.1,24v170.7
			c0,10.8,6.9,20.4,17.1,24v44.2c0.1,51.8,42.1,93.8,93.9,93.9h239.7c3.4,0,6.7,1,9.5,2.9l12.7,8.5c5.6,3.7,12.2,5.7,18.9,5.7h76.7
			c12.7,0.2,23.8-8.8,26.2-21.3c1-5.8-0.1-11.9-3.1-17c6.1-3.8,10.4-10,11.6-17.1c1-5.8-0.1-11.9-3.1-17c6.1-3.8,10.4-10,11.6-17.1
			c1.2-7.4-0.9-15.1-5.7-20.8l-0.4-0.5c6.7-7.5,8.4-18.3,4.3-27.5C505.6,365.3,496.5,359.4,486.4,359.4z M290.9,77.8h7.8
			c4.7,0,8.5-3.8,8.5-8.5s-3.8-8.5-8.5-8.5h-7.8c1.3-7.6,4.3-14.8,8.7-21.1l5.5,5.5c2.1,2.2,5.3,3.1,8.3,2.3s5.3-3.1,6.1-6.1
			c0.8-3-0.1-6.2-2.3-8.3l-5.5-5.5c6.3-4.5,13.5-7.5,21.1-8.7v7.8c0,4.7,3.8,8.5,8.5,8.5s8.5-3.8,8.5-8.5v-7.8
			c7.6,1.3,14.8,4.3,21.1,8.7l-5.5,5.5c-2.2,2.1-3.1,5.3-2.3,8.3c0.8,3,3.1,5.3,6.1,6.1s6.2-0.1,8.3-2.3l5.5-5.5
			c4.5,6.3,7.5,13.5,8.7,21.1H384c-4.7,0-8.5,3.8-8.5,8.5s3.8,8.5,8.5,8.5h7.8c-1.3,7.6-4.3,14.8-8.7,21.1l-5.5-5.5
			c-3.3-3.2-8.7-3.2-12,0.1s-3.3,8.6-0.1,12l5.5,5.5c-17.7,12.7-41.5,12.7-59.2,0l5.5-5.5c3.2-3.3,3.2-8.7-0.1-12s-8.6-3.3-12-0.1
			l-5.5,5.5C295.2,92.6,292.2,85.4,290.9,77.8L290.9,77.8z M315.7,154.6c-4.7,0-8.5-3.8-8.5-8.5c0-4.7,3.8-8.5,8.5-8.5h51.2
			c4.7,0,8.5,3.8,8.5,8.5c0,4.7-3.8,8.5-8.5,8.5H315.7z M311.5,274.1h12.7c4.7,0,8.5-3.8,8.5-8.5s-3.8-8.5-8.5-8.5h-21.4
			c-1.9-5.5-3.1-11.3-3.7-17.1h25.1c4.7,0,8.5-3.8,8.5-8.5s-3.8-8.5-8.5-8.5h-25.1c0.6-5.8,1.8-11.5,3.7-17.1h21.4
			c4.7,0,8.5-3.8,8.5-8.5s-3.8-8.5-8.5-8.5h-12.7c6.2-10.6,17.5-17.1,29.8-17.1c12.3,0,23.6,6.5,29.8,17.1h-12.7
			c-4.7,0-8.5,3.8-8.5,8.5s3.8,8.5,8.5,8.5h21.4c1.9,5.5,3.1,11.3,3.7,17.1h-25.1c-4.7,0-8.5,3.8-8.5,8.5s3.8,8.5,8.5,8.5h25.1
			c-0.6,5.8-1.8,11.5-3.7,17.1h-21.4c-4.7,0-8.5,3.8-8.5,8.5s3.8,8.5,8.5,8.5h12.7c-6.2,10.6-17.5,17.1-29.8,17.1
			C329.1,291.1,317.7,284.6,311.5,274.1z M93.9,18.1c33,0,59.7,26.8,59.7,59.7v59.7H34.1V77.8C34.2,44.8,60.9,18.1,93.9,18.1z
			 M17.1,163.1c0-4.7,3.8-8.5,8.5-8.5h136.5c4.7,0,8.5,3.8,8.5,8.5v170.7c0,4.7-3.8,8.5-8.5,8.5H25.6c-4.7,0-8.5-3.8-8.5-8.5V163.1z
			 M486.4,410.6c2.5,0,4.9,1.1,6.5,3s2.3,4.5,1.9,7c-1,4.3-4.9,7.2-9.3,7h-7.6c-4.7,0-8.5,3.8-8.5,8.5s3.8,8.5,8.5,8.5
			c2.5,0,4.9,1.1,6.5,3s2.3,4.5,1.9,7c-1,4.3-4.9,7.2-9.3,7h-7.6c-4.7,0-8.5,3.8-8.5,8.5c0,4.7,3.8,8.5,8.5,8.5c2.5,0,4.9,1.1,6.5,3
			s2.3,4.5,1.9,7c-1,4.3-4.9,7.2-9.3,7h-76.7c-3.4,0-6.7-1-9.5-2.9l-12.7-8.5c-5.6-3.7-12.2-5.7-18.9-5.7H110.9
			c-42.4-0.1-76.7-34.4-76.8-76.8v-42.7h119.5v8.5c0,14.1,11.5,25.6,25.6,25.6h167.3c10.1,0,19.7-4.5,26.2-12.3l27.3-32.8
			c3.2-3.9,8-6.1,13.1-6.1h30.7c4.7,0,8.5,3.8,8.5,8.5v8.5h-25.6c-4.7,0-8.5,3.8-8.5,8.5s3.8,8.5,8.5,8.5h59.7
			c4.7,0,8.5,3.8,8.5,8.5s-3.8,8.5-8.5,8.5s-8.5,3.8-8.5,8.5S481.7,410.6,486.4,410.6z"/>
		<path id="Shape_1_" class="st0" d="M341.3,77.8c2.3,0,4.4-0.9,6-2.5l8.5-8.5c2.2-2.1,3.1-5.3,2.3-8.3s-3.1-5.3-6.1-6.1
			s-6.2,0.1-8.3,2.3l-8.5,8.5c-2.4,2.4-3.2,6.1-1.8,9.3C334.8,75.7,337.9,77.8,341.3,77.8z"/>
		<path id="Shape_2_" class="st0" d="M42.7,325.3c4.7,0,8.5-3.8,8.5-8.5V180.2c0-4.7-3.8-8.5-8.5-8.5s-8.5,3.8-8.5,8.5v136.5
			C34.1,321.4,38,325.3,42.7,325.3z"/>
		<path id="Shape_3_" class="st0" d="M145.1,325.3c4.7,0,8.5-3.8,8.5-8.5V180.2c0-4.7-3.8-8.5-8.5-8.5c-4.7,0-8.5,3.8-8.5,8.5v136.5
			C136.5,321.4,140.4,325.3,145.1,325.3z"/>
		<path id="Shape_4_" class="st0" d="M76.8,239.9h34.1c4.7,0,8.5-3.8,8.5-8.5s-3.8-8.5-8.5-8.5H76.8c-4.7,0-8.5,3.8-8.5,8.5
			S72.1,239.9,76.8,239.9z"/>
		<path id="Shape_5_" class="st0" d="M102.4,257H85.3c-4.7,0-8.5,3.8-8.5,8.5s3.8,8.5,8.5,8.5h17.1c4.7,0,8.5-3.8,8.5-8.5
			S107.1,257,102.4,257z"/>
	</g>
</g>
</svg>
