<?xml version="1.0" encoding="utf-8"?>
<!-- Generator: Adobe Illustrator 25.0.0, SVG Export Plug-In . SVG Version: 6.00 Build 0)  -->
<svg version="1.1" id="Capa_1" xmlns="http://www.w3.org/2000/svg" xmlns:xlink="http://www.w3.org/1999/xlink" x="0px" y="0px"
	 viewBox="0 0 512 512" style="enable-background:new 0 0 512 512;" xml:space="preserve">
<style type="text/css">
	.st0{fill:#007A53;}
</style>
<g>
	<path class="st0" d="M257.6,491.3H37.5C16.8,491.3,0,474.5,0,453.8v-33.6c0-4.1,3.4-7.5,7.5-7.5s7.5,3.4,7.5,7.5v33.6
		c0,12.4,10.1,22.5,22.5,22.5h220.1c12.4,0,22.5-10.1,22.5-22.5V338.3c0-4.1,3.4-7.5,7.5-7.5s7.5,3.4,7.5,7.5v115.5
		C295.1,474.5,278.3,491.3,257.6,491.3z M119.6,397.7c-4.1,0-7.5-3.4-7.5-7.5v-81.7c0-4.1,3.4-7.5,7.5-7.5s7.5,3.4,7.5,7.5v24.3
		l31.3-28.8c3.1-2.8,7.8-2.6,10.6,0.4s2.6,7.8-0.4,10.6l-35.4,32.6l38.5,37.1c3,2.9,3.1,7.6,0.2,10.6c-2.9,3-7.6,3.1-10.6,0.2
		l-34.1-32.9v27.5C127.1,394.4,123.8,397.7,119.6,397.7L119.6,397.7z M7.5,397.7c-4.1,0-7.5-3.4-7.5-7.5V233.7
		c0-20.7,16.8-37.5,37.5-37.5h179.4v-138c0-20.7,16.8-37.5,37.5-37.5h220.1c20.7,0,37.5,16.8,37.5,37.5v33.7c0,4.1-3.4,7.5-7.5,7.5
		S497,96,497,91.9V58.2c0-12.4-10.1-22.5-22.5-22.5H254.4c-12.4,0-22.5,10.1-22.5,22.5v138h25.8c20.7,0,37.5,16.8,37.5,37.5v67.1
		h179.4c12.4,0,22.5-10.1,22.5-22.5V121.9c0-4.1,3.4-7.5,7.5-7.5s7.5,3.4,7.5,7.5v156.4c0,20.7-16.8,37.5-37.5,37.5H254.4
		c-20.7,0-37.5-16.8-37.5-37.5v-44.8c0-4.1,3.4-7.5,7.5-7.5s7.5,3.4,7.5,7.5v44.8c0,12.4,10.1,22.5,22.5,22.5h25.8v-67.1
		c0-12.4-10.1-22.5-22.5-22.5H37.5c-12.4,0-22.5,10.1-22.5,22.5v156.6C15,394.4,11.6,397.7,7.5,397.7L7.5,397.7z M447.2,211
		c-3.7,0-6.8-2.7-7.4-6.3c-5.6,4-12.5,6.3-19.9,6.3c-19.2,0-34.8-15.6-34.8-34.8s15.6-34.8,34.8-34.8c7.4,0,14.3,2.3,19.9,6.3
		c0.6-3.6,3.7-6.3,7.4-6.3c4.1,0,7.5,3.4,7.5,7.5v54.7C454.7,207.7,451.3,211,447.2,211L447.2,211z M419.8,156.4
		c-10.9,0-19.8,8.9-19.8,19.8s8.9,19.8,19.8,19.8s19.8-8.9,19.8-19.8S430.8,156.4,419.8,156.4z M337.4,211
		c-26.6,0-48.3-21.7-48.3-48.3s21.7-48.3,48.3-48.3c9.7,0,19,2.9,27,8.3c3.4,2.3,4.3,7,2,10.4s-7,4.3-10.4,2
		c-5.5-3.7-11.9-5.7-18.6-5.7c-18.4,0-33.3,15-33.3,33.3s15,33.3,33.3,33.3c6.9,0,12.8-2.1,17.4-6.2c0.9-0.8,1.8-1.7,2.6-2.6
		c2.7-3.2,7.4-3.6,10.6-0.9s3.6,7.4,0.9,10.6c-1.3,1.5-2.6,2.9-4.1,4.2C357.4,207.6,347.9,211,337.4,211L337.4,211z"/>
</g>
</svg>
