<?xml version="1.0" encoding="utf-8"?>
<!-- Generator: Adobe Illustrator 25.0.0, SVG Export Plug-In . SVG Version: 6.00 Build 0)  -->
<svg version="1.1" id="Capa_1" xmlns="http://www.w3.org/2000/svg" xmlns:xlink="http://www.w3.org/1999/xlink" x="0px" y="0px"
	 viewBox="0 0 512 512" style="enable-background:new 0 0 512 512;" xml:space="preserve">
<style type="text/css">
	.st0{fill:#007A53;}
</style>
<g>
	<g>
		<g>
			<path class="st0" d="M203,202.7c0-19.2,7.6-28.1,18.1-40.3c7.2-8.4,6.3-21-2.1-28.2c-8.4-7.2-21-6.3-28.2,2.1
				c-12.4,14.4-27.9,32.3-27.9,66.4s15.4,52,27.9,66.4c10.5,12.2,18.1,21,18.1,40.3c0,19.2-7.6,28.1-18.1,40.3
				c-7.2,8.4-6.3,21,2.1,28.2c8.4,7.2,21,6.3,28.2-2.1c12.4-14.4,27.9-32.3,27.9-66.4c0-34.1-15.4-52-27.9-66.4
				C210.6,230.7,203,221.9,203,202.7z"/>
			<path class="st0" d="M303,202.7c0-19.2,7.6-28.1,18.1-40.3c7.2-8.4,6.3-21-2.1-28.2c-8.4-7.2-21-6.3-28.2,2.1
				c-12.4,14.4-27.9,32.3-27.9,66.4s15.4,52,27.9,66.4c10.5,12.2,18.1,21,18.1,40.3c0,19.2-7.6,28.1-18.1,40.3
				c-7.2,8.4-6.3,21,2.1,28.2c8.4,7.2,21,6.3,28.2-2.1c12.4-14.4,27.9-32.3,27.9-66.4c0-34.1-15.4-52-27.9-66.4
				C310.6,230.7,303,221.9,303,202.7z"/>
			<path class="st0" d="M256,0C114.5,0,0,114.5,0,256c0,141.5,114.5,256,256,256c141.5,0,256-114.5,256-256C512,114.5,397.5,0,256,0
				z M256,472c-119.4,0-216-96.6-216-216c0-119.4,96.6-216,216-216c119.4,0,216,96.6,216,216C472,375.4,375.4,472,256,472z"/>
		</g>
	</g>
</g>
</svg>
