<?xml version="1.0" encoding="utf-8"?>
<!-- Generator: Adobe Illustrator 25.0.0, SVG Export Plug-In . SVG Version: 6.00 Build 0)  -->
<svg version="1.1" id="Capa_1" xmlns="http://www.w3.org/2000/svg" xmlns:xlink="http://www.w3.org/1999/xlink" x="0px" y="0px"
	 viewBox="0 0 512 512" style="enable-background:new 0 0 512 512;" xml:space="preserve">
<style type="text/css">
	.st0{fill:#007A53;}
</style>
<path class="st0" d="M139.5,425.4c-27.1-5.5-55.3-4.7-81.4,2.3l-31.9,8.6c-4.5,1.2-7.5-1.2-8.6-2.3s-3.5-4.1-2.3-8.6l9.5-35.4
	c6.9-25.6,8-52.2,3.3-77c-1.9-9.9-2.8-20.4-2.8-31.2s0.9-21.3,2.8-31.2c4.7-24.8,3.6-51.5-3.3-77l-9.5-35.4
	c-1.2-4.5,1.2-7.5,2.3-8.6c1.1-1.1,4.1-3.5,8.6-2.3l31.9,8.6c18.4,4.9,37.4,6.8,56.7,5.6c4.1-0.3,7.2-3.8,7-7.9s-3.8-7.2-7.9-7
	c-17.6,1.1-35.1-0.6-51.9-5.1l-31.9-8.6c-8.3-2.2-17,0.1-23.1,6.2c-6.1,6.1-8.4,14.7-6.2,23.1l9.5,35.4c6.3,23.4,7.3,47.8,3,70.4
	c-2,10.8-3.1,22.2-3.1,34s1,23.2,3.1,34c4.3,22.6,3.2,47-3,70.4l-9.5,35.4c-2.2,8.3,0.1,17,6.2,23.1c4.6,4.6,10.6,7,16.8,7
	c2.1,0,4.2-0.3,6.3-0.8l31.9-8.6c23.9-6.4,49.7-7.1,74.5-2.1c4,0.8,8-1.8,8.8-5.8C146.2,430.1,143.6,426.2,139.5,425.4L139.5,425.4z
	"/>
<path class="st0" d="M501.7,386c-6.3-23.4-7.3-47.8-3-70.4c2-10.8,3.1-22.2,3.1-34s-1-23.2-3.1-34c-4.3-22.6-3.2-47,3-70.4l9.5-35.4
	c2.2-8.3-0.1-17-6.2-23.1c-6.1-6.1-14.7-8.4-23.1-6.2L450,121c-27.3,7.3-56.6,7.2-84.7-0.3C333.6,112.3,296.9,108,256,108
	s-77.6,4.3-109.2,12.8c-4,1.1-6.3,5.2-5.3,9.1c1.1,4,5.2,6.3,9.1,5.3c30.3-8.1,65.8-12.2,105.4-12.2s75,4.1,105.4,12.2
	c30.6,8.2,62.6,8.3,92.5,0.3l31.9-8.6c4.5-1.2,7.5,1.2,8.6,2.3c1.1,1.1,3.5,4.1,2.3,8.6l-9.5,35.4c-6.9,25.6-8,52.2-3.3,77
	c1.9,9.9,2.8,20.4,2.8,31.2s-0.9,21.3-2.8,31.2c-4.7,24.8-3.6,51.5,3.3,77l9.5,35.4c1.2,4.5-1.2,7.5-2.3,8.6
	c-1.1,1.1-4.1,3.5-8.6,2.3l-31.9-8.6c-29.8-8-61.8-7.9-92.5,0.3c-5.1,1.4-10.4,2.6-15.8,3.8c5.2-9.4,9.1-19.8,11.1-30.8
	c16.1-5.2,28-25.7,29.4-43.7c1-13.6-4.3-21.8-8.9-26.3c-1.5-1.5-3.2-2.7-5-3.9v-46.9c0-46.4-37.8-84.2-84.2-84.2h-63.1
	c-46.4,0-84.2,37.8-84.2,84.2v46.5c-2.1,1.2-4,2.7-5.6,4.3c-4.6,4.5-9.9,12.7-8.9,26.3c1.4,19,14.3,39.7,30.8,44.1
	c9,47.6,51,82.7,99.9,82.7c30.2,0,57.8-13.4,76.6-34.9c11.1-1.8,21.9-4.2,32-6.9c28.1-7.5,57.4-7.6,84.7-0.3l31.9,8.6
	c2.1,0.6,4.2,0.8,6.3,0.8c6.2,0,12.2-2.4,16.8-7c6.1-6.1,8.4-14.7,6.2-23.1L501.7,386z M256.7,469.2c-43.4,0-80.4-32.4-86-75.4
	c-0.5-3.8-3.7-6.5-7.5-6.5c-9.7,0.1-21.1-15.8-22.3-31.1c-0.5-6.3,1-11.2,4.4-14.5c3.2-3.2,8.3-5.1,14.6-5.5c0.7,0,1.3-0.1,2,0
	c2.1,0.1,4.1-0.6,5.6-2s2.4-3.4,2.4-5.5v-31.9c0-13,10.6-23.6,23.6-23.6h79.5c4.1,0,7.5-3.3,7.5-7.5s-3.3-7.5-7.5-7.5h-79.5
	c-19.1,0-35,14-38,32.3v-10.4c0-38.2,31.1-69.3,69.3-69.3h63.1c38.2,0,69.3,31.1,69.3,69.3v7.2c-4.2-16.7-19.3-29.1-37.3-29.1h-10.4
	c-4.1,0-7.5,3.3-7.5,7.5s3.3,7.5,7.5,7.5h10.4c13,0,23.6,10.6,23.6,23.6v31.9c0,2,0.8,3.9,2.2,5.3c1.4,1.4,3.3,2.2,5.3,2.2h0
	c0.5,0,0.8,0,1.2,0c6.3,0.5,11.3,2.4,14.6,5.5c3.4,3.3,4.9,8.2,4.4,14.5c-1.1,14.8-12,30.4-21.5,31.1c-3.6,0.2-6.5,3-6.9,6.5
	C337.1,436.8,300.1,469.2,256.7,469.2L256.7,469.2z"/>
<path class="st0" d="M273.4,395.4c-4.6,4-10.7,6.1-17.4,6.1s-12.8-2.2-17.4-6.1c-3.1-2.7-7.8-2.4-10.5,0.8s-2.4,7.8,0.8,10.5
	c7.3,6.3,16.9,9.8,27.1,9.8c10.2,0,19.9-3.5,27.1-9.8c3.1-2.7,3.5-7.4,0.8-10.5C281.2,393,276.5,392.7,273.4,395.4z"/>
<path class="st0" d="M316.7,341.5c-3.9-1.2-8.1,1-9.3,4.9c-1.1,3.6-4.4,6-8.1,6s-7-2.4-8.1-6c-1.2-3.9-5.4-6.1-9.3-4.9
	c-3.9,1.2-6.1,5.4-4.9,9.3c3.1,9.8,12,16.4,22.4,16.4s19.3-6.6,22.4-16.4C322.8,346.9,320.6,342.7,316.7,341.5z"/>
<path class="st0" d="M236.5,350.8c1.2-3.9-1-8.1-4.9-9.3c-3.9-1.2-8.1,1-9.3,4.9c-1.1,3.6-4.4,6-8.1,6s-7-2.4-8.1-6
	c-1.2-3.9-5.4-6.1-9.3-4.9c-3.9,1.2-6.1,5.4-4.9,9.3c3.1,9.8,12.1,16.4,22.4,16.4C224.4,367.3,233.4,360.7,236.5,350.8L236.5,350.8z
	"/>
<path class="st0" d="M379.3,228.4c0,6.1,3.5,8.1,9.5,8.1h44.7c4.7,0,8.5-2.4,8.5-6.9c0-4.5-3.8-6.9-8.5-6.9h-32.1l37.9-45
	c1.5-1.7,2.3-3.9,2.3-5.9c0-5.7-3.4-7.5-7.6-7.5h-43.4c-4.7,0-8.5,2.4-8.5,6.9s3.8,6.9,8.5,6.9h28.7l-37.3,44
	C380.5,223.9,379.3,225.8,379.3,228.4L379.3,228.4z"/>
<path class="st0" d="M416,107.5h35c2.5,0,5.5-1.4,5.5-5.4s-3-5.4-5.5-5.4h-22.6l25.4-27.8c1.3-1.4,2.2-3.1,2.2-4.6c0-3.6-2-6-5.6-6
	h-32.6c-2.5,0-5.5,1.4-5.5,5.4s3,5.4,5.5,5.4h19.9l-25.9,28.1c-1.2,1.3-1.8,3-1.8,5C409.9,104.8,412,107.5,416,107.5L416,107.5z"/>
<path class="st0" d="M360.9,64.7h26.2c1.9,0,4.2-1.1,4.2-4c0-3-2.3-4-4.2-4h-16.9l19-20.8c1-1.1,1.6-2.3,1.6-3.4
	c0-2.7-1.5-4.5-4.2-4.5h-24.4c-1.9,0-4.2,1.1-4.2,4s2.3,4,4.2,4H377l-19.4,21c-0.9,1-1.3,2.3-1.3,3.7
	C356.3,62.7,357.9,64.7,360.9,64.7L360.9,64.7z"/>
</svg>
