<?xml version="1.0" encoding="utf-8"?>
<!-- Generator: Adobe Illustrator 25.0.0, SVG Export Plug-In . SVG Version: 6.00 Build 0)  -->
<svg version="1.1" id="Outline" xmlns="http://www.w3.org/2000/svg" xmlns:xlink="http://www.w3.org/1999/xlink" x="0px" y="0px"
	 viewBox="0 0 512 512" style="enable-background:new 0 0 512 512;" xml:space="preserve">
<style type="text/css">
	.st0{fill:#007A53;}
</style>
<path class="st0" d="M40,243.1c2.6,28.8,5.6,61.5,24.8,111.7c18.4,48,55.9,53.2,71.2,53.2c12.1,0,24.4-6.5,33.7-17.8
	c13.6-16.5,18.9-40.4,14.2-63.8c-3.6-18.3-10.5-62.6,4-80.4c3.3-4,7.3-6,12.1-6s8.8,2,12.1,6c14.6,17.8,7.7,62.1,4,80.4
	c-4.7,23.4,0.7,47.2,14.2,63.8c9.3,11.3,21.6,17.8,33.7,17.8v16c0,4.4,3.6,8,8,8h8v56c0,4.4,3.6,8,8,8h64c4.4,0,8-3.6,8-8v-56h8
	c4.4,0,8-3.6,8-8v-48c0-4.4-3.6-8-8-8h-6.6l22.4-134.7c0.7-4.4-2.2-8.5-6.6-9.2c-0.4-0.1-0.9-0.1-1.3-0.1h-14.1
	c1.8-15.6,4.9-32.7,13.1-53c5.8-14.4,9-32.5,9-51c0-27.5-7.3-52.6-20.6-70.9C347.7,27.5,324.3,16,295.8,16h-0.2
	c-31.8,0-56.5,10-74.6,17.3C212,36.9,204.3,40,200,40c-4.3,0-12-3.1-20.9-6.7C161,26,136.2,16,104.5,16h-0.2
	c-28.5,0-51.9,11.5-67.7,33.1C23.3,67.4,16,92.5,16,120c0,18.5,3.2,36.6,9,51C35.9,198.1,37.8,219,40,243.1z M344,480h-48v-48h48
	V480z M360,416h-80v-32h80V416z M345.2,368h-50.4l-21.3-128h15.8l6.9,41.3c0.6,3.9,4,6.7,7.9,6.7c0.4,0,0.9,0,1.3-0.1
	c4.4-0.7,7.3-4.8,6.6-9.2c0,0,0,0,0,0l-6.4-38.7h29.1l-6.4,38.7c-0.7,4.4,2.2,8.5,6.6,9.2s8.5-2.2,9.2-6.6l6.9-41.3h15.8L345.2,368z
	 M49.5,58.5C62.3,41,80.7,32,104.2,32h0.2c28.7,0,51.8,9.3,68.7,16.1C184,52.5,192.6,56,200,56c7.4,0,16-3.5,26.8-7.9
	c16.9-6.8,40-16.1,68.7-16.1h0.2c23.5,0,42,9,54.7,26.5C361.8,74.1,368,95.9,368,120c0,16.5-2.8,32.5-7.8,45
	c-9.2,22.9-12.4,41.8-14.4,59H264c-4.4,0-8,3.6-8,8c0,0.4,0,0.9,0.1,1.3L278.6,368H272c-4.4,0-8,3.6-8,8v16c-7.3,0-15.1-4.4-21.3-12
	c-10.6-12.9-14.6-31.8-10.9-50.5c8.9-44.6,6.4-77-7.3-93.7c-6.4-7.7-14.8-11.8-24.5-11.8s-18.1,4.1-24.5,11.8
	c-13.7,16.7-16.2,49.1-7.3,93.7c3.7,18.7-0.3,37.6-10.9,50.5c-6.2,7.6-14,12-21.3,12c-14.8,0-41.9-5.6-56.2-42.9
	c-18.5-48.2-21.3-79.6-23.8-107.4c-2.2-24.3-4.3-47.3-16.1-76.7c-5-12.5-7.8-28.5-7.8-45C32,95.9,38.2,74.1,49.5,58.5z"/>
<path class="st0" d="M87.4,165c-1.7-4.1-6.3-6.1-10.4-4.4c-4.1,1.7-6.1,6.3-4.4,10.4c11,27.2,12.9,48,15,72.2
	c2.5,27.1,5.3,57.9,21.9,103.6c1.5,4.2,6,6.4,10.2,4.9c4.2-1.5,6.4-6,4.9-10.2c0-0.1,0-0.1-0.1-0.2c-15.9-43.7-18.6-73.4-21-99.6
	C101.4,217.4,99.3,194.4,87.4,165z"/>
<path class="st0" d="M416.8,242.1c15.5-13.7,45.9-10.1,46.2-10.1c4.4,0.5,8.4-2.6,8.9-7c0.5-4.3-2.6-8.3-6.9-8.9
	c-1.5-0.2-37.8-4.5-58.7,14c-9.5,8.4-14.3,19.8-14.3,34c0,20.8,11.5,36.3,32.3,43.7c9.5,3.4,15.7,12.5,15.7,22.6V368
	c-13.2,0-24,10.8-24,24v96c0,4.4,3.6,8,8,8h48c4.4,0,8-3.6,8-8v-96c0-13.2-10.8-24-24-24v-37.7c0.1-16.9-10.5-31.9-26.3-37.7
	c-14.6-5.1-21.7-14.5-21.7-28.6C408,254.5,410.9,247.3,416.8,242.1z M432,480v-64h32v64H432z M464,392v8h-32v-8c0-4.4,3.6-8,8-8h16
	C460.4,384,464,387.6,464,392z"/>
<path class="st0" d="M72,127.9c-4.4,0-8-3.6-8-8c-0.1-21.1,4.7-36.5,14-45.8c6.6-6.7,15.6-10.2,26-10.2c4.4,0,8,3.6,8,8
	c0,4.4-3.6,8-8,8c-6.2,0-11,1.8-14.7,5.5c-6.1,6.2-9.4,18.1-9.3,34.5C80,124.3,76.4,127.9,72,127.9C72,127.9,72,127.9,72,127.9
	L72,127.9z"/>
</svg>
