<?xml version="1.0" encoding="utf-8"?>
<!-- Generator: Adobe Illustrator 25.0.0, SVG Export Plug-In . SVG Version: 6.00 Build 0)  -->
<svg version="1.1" id="Layer_1" xmlns="http://www.w3.org/2000/svg" xmlns:xlink="http://www.w3.org/1999/xlink" x="0px" y="0px"
	 viewBox="0 0 512 512" style="enable-background:new 0 0 512 512;" xml:space="preserve">
<style type="text/css">
	.st0{fill:#007A53;}
</style>
<g id="Page-1">
	<g id="_x30_96---Listening">
		<path id="Shape" class="st0" d="M153.6,0C68.9,0,0,74.6,0,166.8c0.3,21.4,6.2,42.3,17,60.7c5.1,8.7,9.5,17.9,13.1,27.3
			c2.4,6.9,0.1,14.6-5.7,19.1c-10.1,8.1-15.9,20.3-15.9,33.2c0,14.2,7,27.5,18.7,35.4c4.2,2.9,6.8,7.6,6.9,12.7v71.3
			c0,47.1,34.4,85.3,76.8,85.3s76.8-38.3,76.8-85.3c-0.1-35.1,15.2-68.6,41.8-91.5c50-41.7,78.5-103.7,77.7-168.8
			C307.2,74.6,238.3,0,153.6,0L153.6,0z M218.5,322.2c-30.5,26.1-47.9,64.3-47.8,104.4c0,37.6-26.8,68.3-59.7,68.3
			s-59.7-30.6-59.7-68.3v-71.3c-0.1-10.6-5.3-20.4-14-26.5c-7.3-4.8-11.7-12.9-11.6-21.6c-0.1-7.8,3.5-15.3,9.7-20.1
			C46.7,278,51,262.7,46.1,249c-3.9-10.3-8.7-20.3-14.3-29.9c-9.4-16-14.5-34.2-14.8-52.7c0-82.3,61.3-149.3,136.5-149.3
			s136.5,67,136.5,149.3C290.9,226.5,264.6,283.7,218.5,322.2z"/>
		<path id="Shape_1_" class="st0" d="M153.6,42.7c-47.6,0-88.1,33.7-103.9,80.9c-0.1,0.3-0.2,0.6-0.3,0.9c-4.5,13.7-6.8,28-6.8,42.4
			c0,10.2,0,41.6,19.6,61.1c3.3,3.2,8.7,3.2,12-0.1c3.3-3.3,3.3-8.6,0.1-12c-7-7.8-11.5-17.5-12.9-27.9c1.4-0.1,2.7-0.2,4.2-0.2
			c39.2,0,71,35.8,71,79.9c0,4.1-0.2,7.9-0.5,11.7c-4.2,4.5-8.8,8.8-13.5,12.8c-24.9,20.4-38.6,51.3-37.2,83.3
			c0,4.7,3.8,8.5,8.5,8.5c4.7,0,8.5-3.8,8.5-8.5c-1.5-27.1,10.1-53.2,31.1-70.3c30.1-23.1,47.1-59.4,45.7-97.3
			c0-53.4-40.2-96.9-89.6-96.9c-5.7,0-11.3,0.6-16.9,1.8c14.8-31.5,46.1-52,80.9-53c51.8,0,93.9,48,93.9,107
			c0.7,46.5-19.5,90.9-55,120.9c-1.2,1-2.5,2.1-3.9,3.3c-17,14.1-52.3,43.5-60.5,117.7c-0.5,4.7,2.9,8.9,7.5,9.4
			c0.3,0,0.6,0.1,0.9,0.1c4.3,0,8-3.3,8.5-7.6c7.5-67.3,38.1-92.8,54.5-106.4c1.5-1.3,2.9-2.4,4.1-3.5
			c39.3-33.3,61.6-82.4,60.9-133.8C264.5,98.3,214.8,42.7,153.6,42.7L153.6,42.7z M89.6,128c40,0,72.5,35.8,72.5,79.9
			c0.4,16.1-2.8,32.2-9.4,46.9c-5.7-47.4-42.6-84.1-87.2-84.1c-2,0-3.9,0.1-5.8,0.3c0-1.6,0-3.1,0-4.2c0-11.4,1.6-22.8,4.8-33.7
			C72.5,129.7,81,128,89.6,128z"/>
		<path id="Shape_2_" class="st0" d="M426.7,196.3c0.7-26.9,12.1-52.4,31.7-70.8c2.4-2.1,3.4-5.4,2.6-8.5c-0.8-3.1-3.2-5.5-6.3-6.2
			c-3.1-0.7-6.3,0.3-8.4,2.7c-22.8,21.6-36,51.4-36.6,82.8c0.6,31.4,13.8,61.2,36.6,82.8c2.1,2.4,5.3,3.5,8.4,2.7
			c3.1-0.7,5.5-3.1,6.3-6.2c0.8-3.1-0.2-6.4-2.6-8.5C438.7,248.7,427.3,223.2,426.7,196.3z"/>
		<path id="Shape_3_" class="st0" d="M483.5,147.2c-1.7-1.5-3.9-2.3-6.2-2.1c-2.3,0.1-4.4,1.2-5.9,2.8c-25.6,27.1-25.6,69.6,0,96.7
			c2,2.3,5.1,3.3,8.1,2.7s5.4-2.8,6.4-5.7c1-2.9,0.3-6.1-1.7-8.4c-19.9-20.7-19.9-53.3,0-74c1.5-1.7,2.3-3.9,2.1-6.2
			C486.3,150.8,485.2,148.7,483.5,147.2L483.5,147.2z"/>
		<path id="Shape_4_" class="st0" d="M509.8,173.5c-3.2-3.5-8.5-3.8-12-0.6c-7.2,5.7-11.4,14.3-11.4,23.4s4.2,17.8,11.4,23.4
			c2.3,2.1,5.5,2.8,8.4,1.9c2.9-0.9,5.2-3.4,5.8-6.4c0.6-3-0.4-6.2-2.8-8.2c-3.3-2.6-5.4-6.5-5.7-10.7c0.3-4.2,2.4-8.1,5.7-10.7
			C512.7,182.4,513,177,509.8,173.5L509.8,173.5z"/>
		<path id="Shape_5_" class="st0" d="M384,196.3c0-37.5,16.8-73.8,48.6-104.8c2.2-2.1,3.1-5.3,2.3-8.2c-0.8-3-3-5.3-6-6.1
			s-6.1,0-8.3,2.1c-35.2,34.3-53.8,74.7-53.8,117s18.6,82.8,53.8,117c3.4,3.3,8.8,3.2,12.1-0.1c3.3-3.4,3.2-8.8-0.1-12.1
			C400.8,270.1,384,233.8,384,196.3z"/>
		<path id="Shape_6_" class="st0" d="M341.3,196.3c0-46.9,19.8-92,57.3-130.6c2.1-2.2,2.9-5.3,2.1-8.3c-0.8-2.9-3.2-5.2-6.1-6
			c-3-0.8-6.1,0.1-8.2,2.3c-40.7,41.8-62.1,91.1-62.1,142.5s21.5,100.7,62.1,142.5c3.3,3.4,8.7,3.4,12.1,0.1
			c3.4-3.3,3.4-8.7,0.1-12.1C361.1,288.3,341.3,243.1,341.3,196.3z"/>
	</g>
</g>
</svg>
