<?xml version="1.0" encoding="utf-8"?>
<!-- Generator: Adobe Illustrator 25.0.0, SVG Export Plug-In . SVG Version: 6.00 Build 0)  -->
<svg version="1.1" id="Capa_1" xmlns="http://www.w3.org/2000/svg" xmlns:xlink="http://www.w3.org/1999/xlink" x="0px" y="0px"
	 viewBox="0 0 512 512" style="enable-background:new 0 0 512 512;" xml:space="preserve">
<style type="text/css">
	.st0{fill:#007A53;}
</style>
<g>
	<path class="st0" d="M174.5,68.2c7.5-4.2,12.1-12.2,12.1-20.7v-40c0-4.1-3.4-7.5-7.5-7.5s-7.5,3.4-7.5,7.5v40
		c0,3.2-1.7,6.1-4.5,7.7L98.5,94c-29.6,16.7-52.5,42.1-66.1,73.3c-1.7,3.8,0.1,8.2,3.9,9.9c1,0.4,2,0.6,3,0.6c2.9,0,5.6-1.7,6.9-4.5
		c12.3-28.2,33-51.1,59.8-66.3L174.5,68.2z"/>
	<path class="st0" d="M35.3,247.1c-1.8-14.8-1.3-29.8,1.6-44.5c0.8-4.1-1.8-8-5.9-8.8c-4.1-0.8-8,1.8-8.8,5.9
		c-3.2,16.3-3.8,32.8-1.8,49.2l3.6,29.6v151.3c0,4.1,3.4,7.5,7.5,7.5s7.5-3.4,7.5-7.5V278c0-0.3,0-0.6-0.1-0.9L35.3,247.1z"/>
	<path class="st0" d="M128.8,452.4c-4.1-0.3-7.7,2.8-8,7l-3.1,44.6c-0.3,4.1,2.8,7.7,7,8c0.2,0,0.4,0,0.5,0c3.9,0,7.2-3,7.5-7
		l3.1-44.6C136,456.3,132.9,452.7,128.8,452.4L128.8,452.4z"/>
	<path class="st0" d="M132,353.9c-4.8-20.4-7.3-62.3-7.3-62.3c0,0,0-68.9,0-68.9c0-4.1-3.4-7.5-7.5-7.5s-7.5,3.4-7.5,7.5v107.6
		c0,14.4-3,28.4-9,41.6c-1.7,3.8,0,8.2,3.7,9.9c1,0.5,2.1,0.7,3.1,0.7c2.9,0,5.6-1.6,6.8-4.4c1.9-4.2,3.5-8.5,4.9-12.8l0.6,2.7
		c3.7,15.5,5,31.4,3.9,47.2l-0.8,12.2c-0.3,4.1,2.8,7.7,7,8c0.2,0,0.4,0,0.5,0c3.9,0,7.2-3,7.5-7l0.8-12.2
		c1.2-17.4-0.2-34.8-4.2-51.8L132,353.9z"/>
	<path class="st0" d="M337.5,68.2l40,22.6c1.2,0.7,2.4,1,3.7,1c2.6,0,5.2-1.4,6.5-3.8c2-3.6,0.8-8.2-2.8-10.2l-40-22.6
		c-2.8-1.6-4.5-4.5-4.5-7.7v-40c0-4.1-3.4-7.5-7.5-7.5s-7.5,3.4-7.5,7.5v40C325.4,56.1,330,64,337.5,68.2L337.5,68.2z"/>
	<path class="st0" d="M413.5,94l-0.8-0.4c-3.6-2-8.2-0.8-10.2,2.8c-2,3.6-0.8,8.2,2.8,10.2l0.8,0.4c49.8,28.2,77.5,83.1,70.5,140
		l-3.7,30c0,0.3-0.1,0.6-0.1,0.9v151.8c0,4.1,3.4,7.5,7.5,7.5s7.5-3.4,7.5-7.5V278.5l3.6-29.6C499.3,186,468.7,125.2,413.5,94
		L413.5,94z"/>
	<path class="st0" d="M393.4,491.4c-0.3-4.1-3.9-7.2-8-7c-4.1,0.3-7.2,3.9-7,8l0.9,12.6c0.3,4,3.6,7,7.5,7c0.2,0,0.4,0,0.5,0
		c4.1-0.3,7.2-3.9,7-8L393.4,491.4z"/>
	<path class="st0" d="M387.3,291.6c0,20.9-2.5,41.9-7.3,62.3l-2.5,10.6c-1.6,6.9-2.9,14-3.6,21.2c-0.4,4.1,2.5,7.8,6.6,8.3
		c0.3,0,0.5,0,0.8,0c3.8,0,7-2.8,7.4-6.7c0.7-6.5,1.8-13,3.3-19.3l0.6-2.7c1.4,4.3,3,8.6,4.9,12.8c1.3,2.8,4,4.4,6.8,4.4
		c1,0,2.1-0.2,3.1-0.7c3.8-1.7,5.4-6.1,3.7-9.9c-6-13.2-9-27.1-9-41.6V222.7c0-4.1-3.4-7.5-7.5-7.5s-7.5,3.4-7.5,7.5V291.6z"/>
	<path class="st0" d="M207.4,135.4c-4.1,0-7.5,3.4-7.5,7.5v38.2c0,13.4-3,26.9-8.6,39l-6,12.9c-1.7,3.8-0.1,8.2,3.7,9.9
		c1,0.5,2.1,0.7,3.1,0.7c2.8,0,5.5-1.6,6.8-4.4l6-12.9c6.5-14.1,10-29.8,10-45.3v-38.2C214.9,138.8,211.6,135.4,207.4,135.4
		L207.4,135.4z"/>
	<path class="st0" d="M312.9,239.4c1.3,2.7,4,4.4,6.8,4.4c1.1,0,2.1-0.2,3.1-0.7c3.8-1.7,5.4-6.2,3.7-9.9l-6-12.9
		c-5.6-12.2-8.6-25.6-8.6-39v-38.2c0-4.1-3.4-7.5-7.5-7.5s-7.5,3.4-7.5,7.5v38.2c0,15.5,3.4,31.2,10,45.3L312.9,239.4z"/>
	<path class="st0" d="M244.5,104.7c12.5,0,22.6-10.1,22.6-22.6s-10.1-22.6-22.6-22.6c-12.5,0-22.6,10.1-22.6,22.6
		S232,104.7,244.5,104.7z M244.5,74.5c4.2,0,7.6,3.4,7.6,7.6c0,4.2-3.4,7.6-7.6,7.6s-7.6-3.4-7.6-7.6
		C236.9,77.9,240.3,74.5,244.5,74.5z"/>
	<path class="st0" d="M174.5,194.9c0-12-9.7-21.7-21.7-21.7c-12,0-21.7,9.7-21.7,21.7c0,12,9.7,21.7,21.7,21.7
		C164.8,216.5,174.5,206.8,174.5,194.9z M152.8,201.6c-3.7,0-6.7-3-6.7-6.7s3-6.7,6.7-6.7s6.7,3,6.7,6.7
		C159.5,198.5,156.5,201.6,152.8,201.6z"/>
	<path class="st0" d="M352.6,280.7c0-10.9-8.9-19.8-19.8-19.8c-10.9,0-19.8,8.9-19.8,19.8s8.9,19.8,19.8,19.8
		C343.8,300.4,352.6,291.6,352.6,280.7z M332.9,285.4c-2.6,0-4.8-2.1-4.8-4.8c0-2.6,2.1-4.8,4.8-4.8c2.6,0,4.8,2.1,4.8,4.8
		C337.6,283.3,335.5,285.4,332.9,285.4z"/>
	<path class="st0" d="M239.3,331.5c13.3,0,24.2-10.9,24.2-24.2s-10.9-24.2-24.2-24.2s-24.2,10.9-24.2,24.2S225.9,331.5,239.3,331.5
		L239.3,331.5z M239.3,298.1c5.1,0,9.2,4.1,9.2,9.2c0,5.1-4.1,9.2-9.2,9.2c-5.1,0-9.2-4.1-9.2-9.2
		C230.1,302.2,234.2,298.1,239.3,298.1L239.3,298.1z"/>
	<path class="st0" d="M182.3,385.8c-12,0-21.8,9.8-21.8,21.8s9.8,21.8,21.8,21.8s21.8-9.8,21.8-21.8S194.4,385.8,182.3,385.8z
		 M182.3,414.4c-3.7,0-6.8-3-6.8-6.8s3-6.8,6.8-6.8s6.8,3,6.8,6.8S186.1,414.4,182.3,414.4z"/>
	<path class="st0" d="M297.9,341.8c-12,0-21.8,9.8-21.8,21.8c0,12,9.8,21.8,21.8,21.8c12,0,21.8-9.8,21.8-21.8
		C319.6,351.6,309.9,341.8,297.9,341.8z M297.9,370.4c-3.7,0-6.8-3-6.8-6.8s3-6.8,6.8-6.8s6.8,3,6.8,6.8S301.6,370.4,297.9,370.4z"
		/>
	<path class="st0" d="M286.2,446.8h-1.4c-0.3-3.7-1.3-7.1-2.9-10.3l2.5-2.5c2.9-2.9,2.9-7.7,0-10.6c-2.9-2.9-7.7-2.9-10.6,0l-2,2
		c-2.1-1.3-4.4-2.3-6.8-3v-2.6c0-4.1-3.4-7.5-7.5-7.5c-4.1,0-7.5,3.4-7.5,7.5v2.6c-2.4,0.7-4.7,1.7-6.8,3l-2-2
		c-2.9-2.9-7.7-2.9-10.6,0c-2.9,2.9-2.9,7.7,0,10.6l2.5,2.5c-1.6,3.1-2.6,6.6-2.9,10.3h-1.4c-4.1,0-7.5,3.4-7.5,7.5s3.4,7.5,7.5,7.5
		h1.4c0.3,3.7,1.3,7.1,2.9,10.3l-2.5,2.5c-2.9,2.9-2.9,7.7,0,10.6c1.5,1.5,3.4,2.2,5.3,2.2c1.9,0,3.8-0.7,5.3-2.2l2-2
		c2.1,1.3,4.4,2.3,6.8,3v2.6c0,4.1,3.4,7.5,7.5,7.5c4.1,0,7.5-3.4,7.5-7.5v-2.6c2.4-0.7,4.7-1.7,6.8-3l2,2c1.5,1.5,3.4,2.2,5.3,2.2
		c1.9,0,3.8-0.7,5.3-2.2c2.9-2.9,2.9-7.7,0-10.6L282,472c1.6-3.1,2.6-6.6,2.9-10.3h1.4c4.1,0,7.5-3.4,7.5-7.5
		S290.4,446.8,286.2,446.8L286.2,446.8z M257.5,472.1c-6.9,0-12.4-5.6-12.4-12.4v-10.9c0-6.9,5.6-12.4,12.4-12.4s12.4,5.6,12.4,12.4
		v10.9C269.9,466.6,264.3,472.1,257.5,472.1z"/>
	<path class="st0" d="M418.2,431.8h-6.6c-0.7-2.8-1.8-5.5-3.3-7.9l4.7-4.7c2.9-2.9,2.9-7.7,0-10.6c-2.9-2.9-7.7-2.9-10.6,0l-4.7,4.7
		c-2.4-1.5-5.1-2.6-7.9-3.3v-6.6c0-4.1-3.4-7.5-7.5-7.5s-7.5,3.4-7.5,7.5v6.6c-2.8,0.7-5.5,1.8-7.9,3.3l-4.7-4.7
		c-2.9-2.9-7.7-2.9-10.6,0s-2.9,7.7,0,10.6l4.7,4.7c-1.5,2.4-2.6,5.1-3.3,7.9h-6.6c-4.1,0-7.5,3.4-7.5,7.5s3.4,7.5,7.5,7.5h6.6
		c0.7,2.8,1.8,5.5,3.3,7.9l-4.7,4.7c-2.9,2.9-2.9,7.7,0,10.6c1.5,1.5,3.4,2.2,5.3,2.2c1.9,0,3.8-0.7,5.3-2.2l4.7-4.7
		c2.4,1.5,5.1,2.6,7.9,3.3v6.6c0,4.1,3.4,7.5,7.5,7.5s7.5-3.4,7.5-7.5v-6.6c2.8-0.7,5.5-1.8,7.9-3.3l4.7,4.7
		c1.5,1.5,3.4,2.2,5.3,2.2c1.9,0,3.8-0.7,5.3-2.2c2.9-2.9,2.9-7.7,0-10.6l-4.7-4.7c1.5-2.4,2.6-5.1,3.3-7.9h6.6
		c4.1,0,7.5-3.4,7.5-7.5S422.4,431.8,418.2,431.8L418.2,431.8z M382.3,424c8.4,0,15.3,6.9,15.3,15.3c0,8.4-6.9,15.3-15.3,15.3
		c-8.4,0-15.3-6.9-15.3-15.3C367,430.8,373.9,424,382.3,424z"/>
</g>
</svg>
