<?xml version="1.0" encoding="utf-8"?>
<!-- Generator: Adobe Illustrator 25.0.0, SVG Export Plug-In . SVG Version: 6.00 Build 0)  -->
<svg version="1.1" id="Layer_1" xmlns="http://www.w3.org/2000/svg" xmlns:xlink="http://www.w3.org/1999/xlink" x="0px" y="0px"
	 viewBox="0 0 512 512" style="enable-background:new 0 0 512 512;" xml:space="preserve">
<style type="text/css">
	.st0{fill:#007A53;}
</style>
<path class="st0" d="M496.4,105.3H487c-0.3-15-12.5-27.1-27.5-27.1h-22.9V42.6c0-15.2-12.4-27.6-27.6-27.6H103
	c-15.2,0-27.6,12.4-27.6,27.6v35.7H52.5c-15,0-27.3,12.1-27.5,27.1h-9.5c-8.6,0-15.6,7-15.6,15.6V201c0,8.6,7,15.6,15.6,15.6h33.9
	c8.6,0,15.6-7,15.6-15.6v-80.1c0-8.6-7-15.6-15.6-15.6h-9.4c0.3-6.7,5.8-12,12.5-12h22.9v278.8c0,4.2,3.4,7.5,7.5,7.5
	c4.1,0,7.5-3.4,7.5-7.5v-62c3.8,1.9,8,3,12.5,3h306c4.5,0,8.8-1.1,12.5-3v121.3c0,6.9-5.6,12.5-12.5,12.5H103
	c-6.9,0-12.5-5.6-12.5-12.5v-24.6c0-4.1-3.4-7.5-7.5-7.5c-4.2,0-7.5,3.4-7.5,7.5v24.6c0,15.2,12.4,27.6,27.6,27.6h7.8v17.5
	c0,11.6,9.4,21,21,21h33.8c11.6,0,21-9.4,21-21V459h138.7v17.5c0,11.6,9.4,21,21,21h33.8c11.6,0,21-9.4,21-21V459h7.8
	c15.2,0,27.6-12.4,27.6-27.6V93.3h22.9c6.7,0,12.2,5.4,12.5,12h-9.4c-8.6,0-15.6,7-15.6,15.6V201c0,8.6,7,15.6,15.6,15.6h33.9
	c8.6,0,15.6-7,15.6-15.6v-80.1C512,112.3,505,105.3,496.4,105.3z M49.5,120.4c0.3,0,0.5,0.2,0.5,0.5V201c0,0.3-0.2,0.5-0.5,0.5H15.6
	c-0.3,0-0.5-0.2-0.5-0.5v-80.1c0-0.3,0.2-0.5,0.5-0.5H49.5z M171.6,476.5c0,3.3-2.7,6-6,6h-33.8c-3.3,0-6-2.7-6-6V459h45.8
	L171.6,476.5L171.6,476.5z M386.2,476.5c0,3.3-2.7,6-6,6h-33.8c-3.3,0-6-2.7-6-6V459h45.8V476.5z M421.5,104.8H118.1
	c-4.1,0-7.5,3.4-7.5,7.5c0,4.1,3.4,7.5,7.5,7.5h303.5v142.4h-49.6c-4.2,0-7.5,3.4-7.5,7.5s3.4,7.5,7.5,7.5h49.6v8.4
	c0,6.9-5.6,12.5-12.5,12.5H103c-6.9,0-12.5-5.6-12.5-12.5v-8.4h246.4c4.2,0,7.5-3.4,7.5-7.5s-3.4-7.5-7.5-7.5h-73.9l70.9-59.3
	c3.2-2.7,3.6-7.4,0.9-10.6c-2.7-3.2-7.4-3.6-10.6-0.9l-84.7,70.8h-32.3l70.9-59.3c3.2-2.7,3.6-7.4,0.9-10.6
	c-2.7-3.2-7.4-3.6-10.6-0.9l-84.7,70.8H90.5V80.7h331.1V104.8z M421.5,65.7H90.5V42.6c0-6.9,5.6-12.5,12.5-12.5h306
	c6.9,0,12.5,5.6,12.5,12.5V65.7z M497,201c0,0.3-0.2,0.5-0.5,0.5h-33.9c-0.3,0-0.5-0.2-0.5-0.5v-80.1c0-0.3,0.2-0.5,0.5-0.5h33.9
	c0.3,0,0.5,0.2,0.5,0.5V201z"/>
<path class="st0" d="M185.6,392.3c6.9,0,12.5-5.6,12.5-12.5v-12c0-16.3-13.3-29.6-29.6-29.6h-46.1c-6.9,0-12.5,5.6-12.5,12.5v12
	c0,16.3,13.3,29.6,29.6,29.6H185.6z M125,362.8v-9.5h43.6c8,0,14.5,6.5,14.5,14.5v9.5h-43.6C131.5,377.3,125,370.8,125,362.8z"/>
<path class="st0" d="M372.5,392.3c16.3,0,29.6-13.3,29.6-29.6v-12c0-6.9-5.6-12.5-12.5-12.5h-46.1c-16.3,0-29.6,13.3-29.6,29.6v12
	c0,6.9,5.6,12.5,12.5,12.5H372.5z M328.9,367.8c0-8,6.5-14.5,14.5-14.5H387v9.5c0,8-6.5,14.5-14.5,14.5h-43.6V367.8z"/>
<path class="st0" d="M289.2,432.7c5.3,0,9.6-4.3,9.6-9.6v-19.8c0-5.3-4.3-9.6-9.6-9.6h-66.3c-5.3,0-9.6,4.3-9.6,9.6v19.8
	c0,5.3,4.3,9.6,9.6,9.6H289.2z M228.2,408.7h55.5v9h-55.5V408.7z"/>
</svg>
