<?xml version="1.0" encoding="utf-8"?>
<!-- Generator: Adobe Illustrator 25.0.0, SVG Export Plug-In . SVG Version: 6.00 Build 0)  -->
<svg version="1.1" id="Layer_1" xmlns="http://www.w3.org/2000/svg" xmlns:xlink="http://www.w3.org/1999/xlink" x="0px" y="0px"
	 viewBox="0 0 612 306" style="enable-background:new 0 0 612 306;" xml:space="preserve">
<style type="text/css">
	.st0{display:none;}
	.st1{fill:#9633BB;}
</style>
<g id="Layer_1_1_" class="st0">
</g>
<g id="Layer_2_1_">
	<polygon class="st1" points="612,303.1 355.2,276.4 216,261.8 147.8,253.9 116.7,250.4 91.3,247.6 70.5,245.1 54.7,243.4 44,241.9 
		33.8,240.3 28.3,239.3 23.7,238.1 20.3,237.1 18,236.3 16.8,235.7 15.3,234.8 13.5,233.8 11.9,232.6 10,230.9 8.9,229.6 7.5,227.7 
		6.4,225.8 5.2,223.2 4.7,221 4,218.7 3.7,216.4 3.4,212.6 3.4,210.5 3.6,207.3 4.2,203.5 5.5,199.6 8.2,193.3 11.3,186.5 
		20.2,167.9 26.4,154.8 30.2,147 31.6,143.7 33.2,140.9 35.1,137.2 38.8,133.2 44.2,128.9 50.7,124.9 60.3,120.9 70.6,118.6 
		81.8,116.1 98.1,112.8 133.8,105.2 182,95.3 214.2,88.7 245.7,82.3 274.7,76.2 305.5,70 356.5,59 410.6,48.1 450.7,39.6 
		489.6,31.5 612,6 	"/>
</g>
</svg>
