<svg height="512" viewBox="0 0 128 128" width="512" xmlns="http://www.w3.org/2000/svg"><path d="m88.689 70.163h17.89v28.522h-17.89z" fill="#9fd4fe" transform="matrix(.945 .328 -.328 .945 33.136 -27.379)"/><path d="m91.79 74.01-4.98 14.31h-47a5.538 5.538 0 0 1 -4.39-2.15l-16.78-21.72a6.746 6.746 0 0 1 10.58-8.37l8.85 10.85 3.5 4.29.01.01a5.424 5.424 0 0 1 5.42-5.42h11.28a5.694 5.694 0 0 0 3.2-.98l1.88-1.27a2.382 2.382 0 0 1 1.32-.4h10.31a4.83 4.83 0 0 1 2.78.88z" fill="#ffc4b7"/><circle cx="61.797" cy="34.41" fill="#fdb0a0" r="7.241" transform="matrix(.527 -.85 .85 .527 .001 68.82)"/><path d="m61.8 41.65a12.815 12.815 0 0 1 12.811 12.815v4.209a0 0 0 0 1 0 0h-25.629a0 0 0 0 1 0 0v-4.209a12.815 12.815 0 0 1 12.818-12.815z" fill="#b2e59f"/><circle cx="83.131" cy="34.41" fill="#fdb0a0" r="7.241" transform="matrix(.229 -.973 .973 .229 30.596 107.449)"/><path d="m83.131 41.65a12.815 12.815 0 0 0 -12.815 12.815v4.208h25.629v-4.208a12.815 12.815 0 0 0 -12.814-12.815z" fill="#ff8086"/><circle cx="41.741" cy="34.41" fill="#fdb0a0" r="7.241" transform="matrix(.229 -.973 .973 .229 -1.314 67.16)"/><path d="m41.741 41.65a12.815 12.815 0 0 0 -12.814 12.815v4.208h25.629v-4.208a12.815 12.815 0 0 0 -12.815-12.815z" fill="#89cafe"/><g><path d="m112.345 73.128a1.752 1.752 0 0 0 -1-.891l-5.86-2.04a1.75 1.75 0 0 0 -1.15 3.306l4.206 1.464-.674 1.937a1.75 1.75 0 1 0 3.3 1.152l1.25-3.59a1.75 1.75 0 0 0 -.072-1.338z"/><path d="m107.945 82.027a1.747 1.747 0 0 0 -2.227 1.078l-5.4 15.5-13.591-4.724 8.222-23.634 3.218 1.116a1.749 1.749 0 1 0 1.146-3.306l-4.87-1.69a1.749 1.749 0 0 0 -2.226 1.079l-1.317 3.784-12.124-8.621a6.545 6.545 0 0 0 -3.786-1.2c-9.684.2-10.822-.495-12.609.7-1.479.873-2.3 1.95-4.1 1.95h-11.281a7.174 7.174 0 0 0 -6.157 3.5l-5.824-7.139h60.931a1.75 1.75 0 0 0 1.75-1.75v-4.21a14.572 14.572 0 0 0 -8.656-13.3 8.991 8.991 0 1 0 -11.836-.008 14.419 14.419 0 0 0 -4.743 3.4 14.552 14.552 0 0 0 -4.748-3.4 8.991 8.991 0 1 0 -11.834.006 14.426 14.426 0 0 0 -4.113 2.757 14.415 14.415 0 0 0 -4.115-2.757 8.99 8.99 0 1 0 -11.826 0 14.582 14.582 0 0 0 -8.5 11.357 8.493 8.493 0 0 0 -10.069 13l12.31 15.93a1.75 1.75 0 0 0 2.77-2.14l-12.315-15.924a4.994 4.994 0 0 1 7.614-6.449c.078.085.156.17.224.253l12 14.707a7.177 7.177 0 0 0 7.137 6.508h17.88a1.75 1.75 0 0 0 0-3.5h-17.88a3.67 3.67 0 1 1 0-7.34h11.28c3.163 0 4.741-1.811 6.052-2.545.3-.2-.095-.067 10.658-.105a3.061 3.061 0 0 1 1.766.556l12.944 9.207-4.138 11.9h-38.932a1.75 1.75 0 1 0 0 3.5h37.718l-1.5 4.315a1.75 1.75 0 0 0 1.079 2.228l16.9 5.87a1.75 1.75 0 0 0 2.227-1.078l5.969-17.15a1.749 1.749 0 0 0 -1.078-2.231zm-30.305-47.617a5.491 5.491 0 1 1 5.5 5.49h-.011a5.5 5.5 0 0 1 -5.489-5.49zm5.486 8.99h.009a11.077 11.077 0 0 1 11.065 11.06v2.46h-22.13v-2.46a11.066 11.066 0 0 1 11.056-11.06zm-26.82-8.99a5.491 5.491 0 1 1 5.5 5.49h-.01a5.5 5.5 0 0 1 -5.49-5.49zm5.494 8.99a11.039 11.039 0 0 1 8.559 4.083 14.441 14.441 0 0 0 -1.789 6.977v2.46h-12.26v-2.46a14.359 14.359 0 0 0 -2.31-7.846 10.987 10.987 0 0 1 7.794-3.214zm-25.549-8.99a5.491 5.491 0 1 1 5.494 5.49h-.009a5.5 5.5 0 0 1 -5.485-5.49zm5.485 8.99h.009a11.065 11.065 0 0 1 11.065 11.06v2.46h-20.647l-1.483-1.82v-.64a11.073 11.073 0 0 1 11.056-11.06z"/><path d="m40.1 86.57h-.29a3.764 3.764 0 0 1 -3-1.468l-.47-.61a1.751 1.751 0 0 0 -2.774 2.136l.472.611a7.242 7.242 0 0 0 5.772 2.831h.29a1.75 1.75 0 0 0 0-3.5z"/></g></svg>