<?xml version="1.0" encoding="utf-8"?>
<!-- Generator: Adobe Illustrator 25.0.0, SVG Export Plug-In . SVG Version: 6.00 Build 0)  -->
<svg version="1.1" id="Capa_1" xmlns="http://www.w3.org/2000/svg" xmlns:xlink="http://www.w3.org/1999/xlink" x="0px" y="0px"
	 viewBox="0 0 512 512" style="enable-background:new 0 0 512 512;" xml:space="preserve">
<style type="text/css">
	.st0{fill:#0070AC;}
</style>
<g>
	<path class="st0" d="M181,142.6l-8.7,3.1c-13.4,4.8-23.3,16.5-26,30.5l-2.9,15.4c-1.5,7.6,0.5,15.4,5.5,21.4c5,6,12.3,9.4,20,9.4
		H244c7.7,0,15-3.4,19.9-9.3c4.9-5.9,7-13.6,5.6-21.2l-2.7-15.3c-2.5-14.2-12.5-26.1-26.1-31l-9.2-3.3v-13.5c0-0.4,0-0.8-0.1-1.1
		c6.7-6.8,10.5-16.1,10.5-25.6V81.9c0-19.7-16-35.7-35.7-35.7s-35.7,16-35.7,35.7v20.8c0,9.8,4,18.7,10.5,25.2
		c0,0.3-0.1,0.6-0.1,0.9L181,142.6z M252,179.3l2.7,15.3c0.6,3.2-0.3,6.5-2.4,9c-2.1,2.5-5.2,3.9-8.4,3.9h-75.1
		c-3.3,0-6.4-1.5-8.5-4c-2.1-2.5-2.9-5.8-2.3-9.1l2.9-15.4c1.7-8.8,8-16.2,16.4-19.2l5.7-2.1c0.1,0.1,0.3,0.3,0.4,0.4
		c6.5,5.7,14.6,8.5,22.7,8.5c8.1,0,16.2-2.8,22.7-8.5c0.2-0.2,0.4-0.4,0.7-0.6l6,2.2C244.1,162.8,250.4,170.3,252,179.3z
		 M185.6,81.9c0-11.4,9.3-20.7,20.7-20.7c9.6,0,17.7,6.6,20,15.5c-1,0.5-2,0.9-3,1.3c-9.2,3.7-16.7,3.2-18.8,1.7
		c-3.4-2.4-8.1-1.6-10.4,1.8c-2.4,3.4-1.6,8.1,1.8,10.4c3.7,2.6,8.6,3.9,14.3,3.9c5.2,0,10.9-1.1,16.7-3.2v9.3
		c0,5.7-2.4,11.3-6.5,15.4c-1.9,1.9-4.1,3.3-6.5,4.3c-0.2,0.1-0.3,0.1-0.5,0.2c-2.4,1-5,1.4-7.6,1.4c-11.2-0.2-20.3-9.5-20.3-20.7
		L185.6,81.9z M205.6,138.3c0.2,0,0.5,0,0.7,0c3.5,0,7-0.5,10.3-1.5v12c-6.3,3.9-14.2,3.9-20.5,0v-12
		C199.1,137.8,202.3,138.3,205.6,138.3z"/>
	<path class="st0" d="M88.3,350.9h233.6c4.1,0,7.5-3.4,7.5-7.5s-3.4-7.5-7.5-7.5H88.3c-4.1,0-7.5,3.4-7.5,7.5S84.1,350.9,88.3,350.9
		z"/>
	<path class="st0" d="M88.3,391.3h233.6c4.1,0,7.5-3.4,7.5-7.5s-3.4-7.5-7.5-7.5H88.3c-4.1,0-7.5,3.4-7.5,7.5S84.1,391.3,88.3,391.3
		z"/>
	<path class="st0" d="M88.3,431.8h233.6c4.1,0,7.5-3.4,7.5-7.5s-3.4-7.5-7.5-7.5H88.3c-4.1,0-7.5,3.4-7.5,7.5S84.1,431.8,88.3,431.8
		z"/>
	<path class="st0" d="M88.3,472.2h233.6c4.1,0,7.5-3.4,7.5-7.5s-3.4-7.5-7.5-7.5H88.3c-4.1,0-7.5,3.4-7.5,7.5S84.1,472.2,88.3,472.2
		z"/>
	<path class="st0" d="M80.8,262.5c0,4.1,3.4,7.5,7.5,7.5h233.6c4.1,0,7.5-3.4,7.5-7.5s-3.4-7.5-7.5-7.5H88.3
		C84.1,255,80.8,258.4,80.8,262.5z"/>
	<path class="st0" d="M88.3,310.5h233.6c4.1,0,7.5-3.4,7.5-7.5s-3.4-7.5-7.5-7.5H88.3c-4.1,0-7.5,3.4-7.5,7.5S84.1,310.5,88.3,310.5
		z"/>
	<path class="st0" d="M60.6,350.9c4.2,0,7.5-3.4,7.5-7.5c0-4.2-3.4-7.5-7.5-7.5s-7.5,3.4-7.5,7.5S56.4,350.9,60.6,350.9z"/>
	<path class="st0" d="M60.6,270.1c4.2,0,7.5-3.4,7.5-7.5s-3.4-7.5-7.5-7.5s-7.5,3.4-7.5,7.5S56.4,270.1,60.6,270.1z"/>
	<path class="st0" d="M60.6,310.5c4.2,0,7.5-3.4,7.5-7.5s-3.4-7.5-7.5-7.5S53,298.8,53,303S56.4,310.5,60.6,310.5z"/>
	<path class="st0" d="M60.6,391.4c4.2,0,7.5-3.4,7.5-7.5s-3.4-7.5-7.5-7.5s-7.5,3.4-7.5,7.5S56.4,391.4,60.6,391.4z"/>
	<path class="st0" d="M60.6,431.8c4.2,0,7.5-3.4,7.5-7.5s-3.4-7.5-7.5-7.5s-7.5,3.4-7.5,7.5C53,428.4,56.4,431.8,60.6,431.8z"/>
	<path class="st0" d="M60.6,472.3c4.2,0,7.5-3.4,7.5-7.5c0-4.2-3.4-7.5-7.5-7.5s-7.5,3.4-7.5,7.5C53,468.9,56.4,472.3,60.6,472.3z"
		/>
	<path class="st0" d="M485.6,118.1c-3-3.8-5.9-7.4-7.3-10.8c-1.5-3.6-2.1-8.4-2.7-13.4c-1.1-8.8-2.3-18.8-9.3-25.8s-17-8.2-25.8-9.3
		c-5-0.6-9.8-1.2-13.4-2.7c-3.3-1.4-7-4.2-10.8-7.3c-5.3-4.2-11.1-8.7-17.9-10.8v-2.3c0-19.7-16.1-35.8-35.8-35.8H50.2
		C30.5,0,14.4,16.1,14.4,35.8v28.9c0,4.1,3.4,7.5,7.5,7.5s7.5-3.4,7.5-7.5V35.8c0-11.5,9.3-20.8,20.8-20.8h312.4
		c11.5,0,20.8,9.3,20.8,20.8v2.3c-6.9,2.1-12.6,6.6-17.9,10.8c-3.8,3-7.4,5.9-10.8,7.3c-3.6,1.5-8.4,2.1-13.4,2.7
		c-8.8,1.1-18.8,2.3-25.8,9.3c-7,7-8.2,17-9.3,25.8c-0.6,5-1.2,9.8-2.7,13.4c-1.4,3.3-4.2,7-7.3,10.8c-5.6,7.1-12,15.1-12,25.4
		s6.4,18.3,12,25.4c3,3.8,5.9,7.4,7.3,10.8c1.5,3.6,2.1,8.4,2.7,13.4c1.1,8.8,2.3,18.8,9.3,25.8c7,7,17,8.2,25.8,9.3
		c2.6,0.3,5.2,0.6,7.5,1.1v113.4c0,4.4,2.5,8.4,6.5,10.4c4,1.9,8.6,1.5,12.1-1.3l15.9-12.5v136.9c0,11.5-9.3,20.8-20.8,20.8H50.2
		c-11.5,0-20.8-9.3-20.8-20.8V97.8c0-4.1-3.4-7.5-7.5-7.5s-7.5,3.4-7.5,7.5v378.4c0,19.7,16.1,35.8,35.8,35.8h312.4
		c19.7,0,35.8-16.1,35.8-35.8V339.3l15.9,12.5c2.1,1.6,4.6,2.5,7.1,2.5c1.7,0,3.4-0.4,5.1-1.2c4-1.9,6.5-5.9,6.5-10.4V259
		c0-4.1-3.4-7.5-7.5-7.5s-7.5,3.4-7.5,7.5v76.6l-19.9-15.6c-2-1.6-4.5-2.5-7.1-2.5s-5.1,0.9-7.1,2.4l-20,15.6v-98.6
		c0.5,0.4,1.1,0.9,1.6,1.3c7.1,5.6,15.1,12,25.4,12c10.3,0,18.3-6.4,25.4-12c3.8-3,7.5-5.9,10.8-7.3c3.6-1.5,8.4-2.1,13.4-2.7
		c8.8-1.1,18.8-2.3,25.8-9.3c7-7,8.2-17,9.3-25.8c0.6-5,1.2-9.8,2.7-13.4c1.4-3.3,4.2-7,7.3-10.8c5.6-7.1,12-15.1,12-25.4
		S491.2,125.2,485.6,118.1L485.6,118.1z M473.9,159.7c-3.5,4.5-7.2,9.1-9.4,14.3c-2.3,5.5-3,11.5-3.7,17.3c-0.9,7-1.7,13.7-5,17
		c-3.3,3.3-10,4.2-17,5c-5.8,0.7-11.8,1.5-17.3,3.7c-5.3,2.2-9.9,5.8-14.3,9.4c-5.7,4.5-11,8.7-16.1,8.7s-10.4-4.2-16.1-8.7
		c-4.5-3.5-9.1-7.2-14.3-9.4c-0.4-0.1-1.6-0.6-1.9-0.7c-5-1.7-10.3-2.4-15.4-3c-7-0.9-13.7-1.7-17-5c-3.3-3.3-4.2-10-5-17
		c-0.7-5.8-1.5-11.8-3.7-17.3c-2.2-5.3-5.8-9.9-9.4-14.3c-4.5-5.7-8.7-11-8.7-16.1s4.2-10.4,8.7-16.1c3.5-4.5,7.2-9.1,9.4-14.3
		c2.3-5.5,3-11.5,3.7-17.3c0.9-7,1.7-13.7,5-17c3.3-3.3,10-4.2,17-5C349,73,355,72.3,360.5,70c5.3-2.2,9.9-5.8,14.3-9.4
		c5.7-4.5,11-8.7,16.1-8.7c0,0,0,0,0,0c0,0,0,0,0,0c5.1,0,10.4,4.2,16.1,8.7c4.5,3.5,9.1,7.2,14.3,9.4c5.5,2.3,11.5,3,17.3,3.7
		c7,0.9,13.7,1.7,17,5s4.2,10,5,17c0.7,5.8,1.5,11.8,3.7,17.3c2.2,5.3,5.8,9.9,9.4,14.3c4.5,5.7,8.7,11,8.7,16.1
		S478.3,154,473.9,159.7L473.9,159.7z"/>
	<path class="st0" d="M439.1,119.7l-25.5-7.2l-14.8-22c-1.8-2.6-4.7-4.2-7.9-4.2s-6.1,1.6-7.9,4.2l-14.8,22l-25.5,7.2
		c-3,0.9-5.5,3.2-6.4,6.2c-1,3-0.4,6.3,1.6,8.8l16.4,20.8l-1,26.5c-0.1,3.2,1.3,6.2,3.9,8c1.6,1.2,3.6,1.8,5.6,1.8
		c1.1,0,2.2-0.2,3.3-0.6l24.9-9.2l24.9,9.2c3,1.1,6.3,0.6,8.8-1.2s4-4.9,3.9-8l-1-26.5l16.4-20.8c2-2.5,2.5-5.8,1.6-8.8
		C444.6,122.9,442.2,120.6,439.1,119.7L439.1,119.7z M414.5,147.8c-1.4,1.8-2.1,4-2,6.2l0.8,20.3l-19.1-7c-2.1-0.8-4.4-0.8-6.5,0
		l-19.1,7l0.8-20.3c0.1-2.2-0.6-4.4-2-6.2l-12.6-16l19.5-5.5c2.2-0.6,4-2,5.3-3.8l11.3-16.9l11.3,16.9c1.2,1.9,3.1,3.2,5.3,3.8
		l19.5,5.5L414.5,147.8z"/>
</g>
</svg>
