<?xml version="1.0" encoding="utf-8"?>
<!-- Generator: Adobe Illustrator 25.0.0, SVG Export Plug-In . SVG Version: 6.00 Build 0)  -->
<svg version="1.1" id="Capa_1" xmlns="http://www.w3.org/2000/svg" xmlns:xlink="http://www.w3.org/1999/xlink" x="0px" y="0px"
	 viewBox="0 0 512 512" style="enable-background:new 0 0 512 512;" xml:space="preserve">
<style type="text/css">
	.st0{fill:#0070AC;}
</style>
<g>
	<path class="st0" d="M226.7,161.6c4.1,0,7.5-3.4,7.5-7.5v-2c0-4.1-3.4-7.5-7.5-7.5s-7.5,3.4-7.5,7.5v2
		C219.2,158.3,222.6,161.6,226.7,161.6z"/>
	<path class="st0" d="M285.2,161.6c4.1,0,7.5-3.4,7.5-7.5v-2c0-4.1-3.4-7.5-7.5-7.5s-7.5,3.4-7.5,7.5v2
		C277.7,158.3,281,161.6,285.2,161.6z"/>
	<path class="st0" d="M239.3,197.3c4.9,2.5,10.7,3.8,16.6,3.8c5.9,0,11.7-1.3,16.6-3.8c3.7-1.9,5.1-6.4,3.2-10.1
		c-1.9-3.7-6.4-5.1-10.1-3.2c-5.5,2.9-13.9,2.9-19.4,0c-3.7-1.9-8.2-0.5-10.1,3.2C234.2,190.9,235.7,195.4,239.3,197.3L239.3,197.3z
		"/>
	<path class="st0" d="M429.6,448.7h-47.2v-9.8c2.5,0.8,5,1.1,7.5,1.1c9.5,0,18.6-5.2,23.1-14.3c4.8-9.6,3-20.8-3.6-28.4l-8.3-20.5
		c-1.6-3.8-5.9-5.7-9.8-4.1c-3.8,1.6-5.7,5.9-4.1,9.8l0.8,2l-49.6-24.7l-15.1-17c-2.9-3.3-7-5.3-11.4-5.6c-1.8-0.1-3.6,0.1-5.3,0.5
		c-15.1-9.5-32.5-14.6-50.5-14.6c-18,0-35.4,5-50.5,14.5c-1.7-0.5-3.5-0.7-5.3-0.5c-4.4,0.3-8.5,2.2-11.4,5.6l-15.1,17l-49.6,24.7
		l33.5-82.6c6.6-16.3,22.2-26.8,39.8-26.8h22.7c1.8,4.2,4.5,8,8,11c3.5,2.3,11.6,13.1,27.8,13.1c7.8,0,15.7-2.7,22.1-8.2
		c3.7-3.6,10-6.9,13.8-15.9h22.7c17.5,0,33.2,10.5,39.8,26.8l19.4,47.7c1.2,2.9,4,4.7,7,4.7c0.9,0,1.9-0.2,2.8-0.6
		c3.8-1.6,5.7-5.9,4.1-9.8l-5.3-13v-29c0-31.1-15.9-59.2-42.5-75.2c-6.6-4-12.3-9.3-16.8-15.5c4-5.8,6.4-11.2,8.2-20.1h11.5
		c14.8,0,26.8-12,26.8-26.8c0-8.9-4.4-16.8-11-21.7l1.3-59.3c0.4-17.3-6.1-33.6-18.1-45.9c-12.1-12.3-28.2-19.1-45.5-19.1h-0.3
		c-4.6,0-9-1.1-12.8-3.3C262,3,236-2.2,211.8,0.8c-4.1,0.5-7,4.3-6.5,8.4c0.5,4.1,4.3,7,8.4,6.5c21.1-2.6,43.7,1.9,62.1,12.3
		c6.1,3.4,13,5.3,20.2,5.3h0.3c13.2,0,25.5,5.2,34.8,14.6c9.2,9.4,14.1,21.9,13.9,35.1l-1.2,54.5c-0.3,0-0.6,0-0.9,0h-10.5
		c-3-28.2-11.3-60.4-26.2-73.1c-0.2-0.2-0.4-0.3-0.6-0.5l-0.1-0.1c-6.1-5-14.8-5.1-21.1-0.3c-23.5,17.8-51.4,29-80.8,32.3
		c-9.9,1.1-18,8.4-20,18.2c-1.6,7.5-2.8,15.5-3.7,23.6c0,0-11.1,0-11.4,0l-0.7-30.9c-0.1-5.3-2-10.3-5.3-14.1
		c-9.7-11.3-9.8-32.4-0.1-47c5.4-8.1,12.5-14.8,21.1-19.9c3.6-2.1,4.8-6.7,2.7-10.3c-2.1-3.6-6.7-4.8-10.3-2.7
		c-10.6,6.2-19.3,14.4-26,24.5c-13.4,20.1-12.9,48.7,1.2,65.1c1,1.2,1.6,2.9,1.7,4.7l0.8,35.7c-6.7,4.9-11,12.8-11,21.7
		c0,14.8,12,26.8,26.8,26.8h11.5c1.6,7.8,3.8,13.7,8.3,20.2c-4.4,6.1-10.2,11.4-16.7,15.4c-26.6,16-42.5,44.2-42.5,75.2v29
		l-26.9,66.3c-6.6,7.6-8.4,18.8-3.6,28.4c4.5,9,13.6,14.3,23.1,14.3c2.5,0,5-0.4,7.5-1.1v9.8H82.4c-23.1,0-41.8,18.8-41.8,41.8v8.7
		c0,7.1,5.7,12.8,12.8,12.8h299.3c4.1,0,7.5-3.4,7.5-7.5s-3.4-7.5-7.5-7.5H55.6v-6.5c0-14.8,12-26.8,26.8-26.8h64.3
		c9.8,0,19.1-2.9,26.9-8.5c15.7-11.2,35.2-18.2,56.6-18.2h51.5c21.1,0,40.7,6.8,56.6,18.2c7.8,5.6,17.1,8.5,26.9,8.5h64.3
		c14.8,0,26.8,12,26.8,26.8v6.5h-68.7c-4.1,0-7.5,3.4-7.5,7.5s3.4,7.5,7.5,7.5h70.9c7.1,0,12.8-5.7,12.8-12.8v-8.7
		C471.4,467.4,452.6,448.7,429.6,448.7L429.6,448.7z M399.5,419c-2.6,5.3-9.1,7.5-14.4,4.8l-42.3-21.1c1.7-1.3,2.1-1.7,6.5-5.6
		c3.7-3.3,5.6-7.8,5.6-12.4l39.8,19.9c2.6,1.3,4.5,3.5,5.4,6.2C401,413.5,400.8,416.5,399.5,419L399.5,419z M335.9,418
		c0,5.7-0.6,11.4-1.8,16.9c-4.5-2.4-9.1-4.4-13.8-6.2c0.6-3.5,0.9-7.1,0.9-10.7c0-3.1-0.2-6.1-0.6-9.1c0.4,0,0.9,0.1,1.3,0.1l14.1,7
		C335.9,416.8,335.9,417.4,335.9,418L335.9,418z M327.8,370.5c0.1,0.1,0.2,0.2,0.3,0.3l11.4,12.8c0.6,0.6,0.5,1.6-0.1,2.2l-4.7,4.1
		c-6.7,5.9-17,5.3-23-1.4l-8-9c-2.9-3.3-4.3-7.4-4.1-11.8c0.3-4.3,2.2-8.3,5.5-11.2l4.7-4.1c0.3-0.3,0.7-0.4,1.1-0.4
		c0.3,0,0.7,0.1,1.1,0.5L327.8,370.5z M293.2,347.3c-3.5,3.7-6,8-7.4,12.8c-9.2-4.7-19.4-7.2-29.8-7.2s-20.6,2.5-29.8,7.2
		c-1.4-4.8-3.9-9.2-7.4-12.8c11.4-6,24.1-9.2,37.2-9.2S281.8,341.3,293.2,347.3z M200,352.6c0.4-0.4,0.8-0.5,1.1-0.5
		c0.3,0,0.7,0,1.1,0.4l4.7,4.1c3.3,2.9,5.2,6.9,5.5,11.2c0.3,4.3-1.2,8.5-4.1,11.8l-8,9c-5.9,6.7-16.3,7.4-23,1.4l-4.7-4.1
		c-0.6-0.6-0.7-1.6-0.1-2.2L200,352.6z M177.9,435c-1.3-6.1-1.9-12.3-1.8-18.9l14.1-7c0.4,0,0.9-0.1,1.3-0.1
		c-0.9,6.5-0.8,13.2,0.3,19.8C187,430.5,182.4,432.6,177.9,435L177.9,435z M274.1,274.7l-5.8,4.9c-7.1,6.1-17.5,6.1-24.7,0l-5.8-4.9
		c-3.2-2.7-5-6.7-5-10.9v-25.3c7.3,1.6,15.1,2.5,23.1,2.5c0,0,0.1,0,0.1,0c8,0,15.8-0.9,23.1-2.5v25.4
		C279.1,268,277.3,272,274.1,274.7L274.1,274.7z M332.1,239.7c19.5,11.7,32,31.3,34.7,53.4c-9.6-20.1-29.7-32.9-52.2-32.9h-20.4
		v-26.5c6.9-2.9,13.2-6.6,18.5-11C318,229.4,324.6,235.2,332.1,239.7L332.1,239.7z M354.5,164.3c0,6.5-5.3,11.8-11.8,11.8h-9.5
		c0.5-7.3,0.6-15.3,0.2-23.7h9.3C349.2,152.5,354.5,157.8,354.5,164.3z M205.1,110.7c32.1-3.6,62.6-15.7,88.2-35.2
		c0.4-0.3,0.9-0.4,1.3-0.4s0.9,0.2,1.3,0.5l0.4,0.3c10.1,8.6,19,37.3,21.6,69.8c1.1,13.7,0.9,26.9-0.5,37.1
		c-1.3,9.5-3.2,16.3-9.3,23.5c-12.3,14.3-33.6,19.8-52.1,19.8c0,0-0.1,0-0.1,0c-18.6,0-40.1-5.8-52.1-19.7
		c-6.1-7.1-8.1-13.9-9.4-23.5c-1.4-10.2-1.5-23.4-0.4-37.1c0.8-9.7,2.2-19.6,4.1-28.6C198.8,113.6,201.6,111.1,205.1,110.7
		L205.1,110.7z M157.3,164.3c0-6.5,5.3-11.8,11.8-11.8h9.4c-0.4,8.4-0.3,16.4,0.2,23.7h-9.5C162.7,176.2,157.3,170.9,157.3,164.3
		L157.3,164.3z M179.9,239.7c7.4-4.5,14-10.3,19.3-17c5.3,4.4,11.6,8.1,18.6,11v26.5h-20.4c-22.5,0-42.6,12.8-52.2,32.9
		C147.9,270.9,160.5,251.4,179.9,239.7L179.9,239.7z M112.5,419c-1.3-2.6-1.5-5.5-0.6-8.2c0.9-2.7,2.8-4.9,5.4-6.2l39.8-19.9
		c0,4.6,1.9,9.2,5.6,12.4c4.5,4,4.8,4.3,6.5,5.6L127,423.9C121.6,426.5,115.2,424.3,112.5,419L112.5,419z M144.7,448.7v-16.9
		l16.6-8.3c0.4,6.7,1.5,13.3,3.2,19.7c-5.1,3.5-11.3,5.4-17.7,5.4H144.7z M230.3,422c-8.2,0-16.2,0.9-24,2.6
		c-1-7.6-0.3-15.5,2.4-23.1c1-0.9,2-1.9,3-2.9l8-9c3.1-3.5,5.3-7.5,6.6-11.8c8.6-6.4,19.1-9.9,29.9-9.9c10.8,0,21.3,3.5,29.9,9.9
		c1.3,4.3,3.5,8.3,6.6,11.8l8,9c0.9,1,1.9,2,3,2.9c1.9,5.3,2.8,10.8,2.8,16.5c0,2.2-0.1,4.4-0.4,6.5c-7.8-1.7-15.9-2.6-24-2.6
		L230.3,422L230.3,422z M347.5,443.2c1.8-6.4,2.8-13,3.2-19.7l16.6,8.3v16.9h-2.1C358.8,448.7,352.7,446.8,347.5,443.2z"/>
</g>
</svg>
