<?xml version="1.0" encoding="utf-8"?>
<!-- Generator: Adobe Illustrator 25.0.0, SVG Export Plug-In . SVG Version: 6.00 Build 0)  -->
<svg version="1.1" id="Capa_1" xmlns="http://www.w3.org/2000/svg" xmlns:xlink="http://www.w3.org/1999/xlink" x="0px" y="0px"
	 viewBox="0 0 512 512" style="enable-background:new 0 0 512 512;" xml:space="preserve">
<style type="text/css">
	.st0{fill:#0070AC;}
</style>
<g>
	<path class="st0" d="M184.1,448h-68.5c0.1-0.9,0.1-1.9,0.1-2.8c0-24.4-19.9-44.3-44.3-44.3c-24.4,0-44.3,19.9-44.3,44.3
		c0,0.9,0,1.9,0.1,2.8h-4.8c-0.7,0-1.3-0.5-1.4-1.2l-5.6-34.1c-1.4-8.6,0.7-17.5,5.8-24.5l19.4-26.9c2.4-3.4,1.7-8-1.7-10.5
		c-3.4-2.4-8-1.7-10.5,1.7L9,379.3c-7.4,10.2-10.5,23.3-8.4,35.8l5.6,34.1c1.3,8,8.1,13.8,16.2,13.8H31
		c6.9,15.6,22.4,26.5,40.5,26.5c18.1,0,33.6-10.9,40.5-26.5h72.1c4.1,0,7.5-3.4,7.5-7.5C191.6,451.3,188.3,448,184.1,448L184.1,448z
		 M71.5,474.4c-16.1,0-29.3-13.1-29.3-29.3s13.1-29.3,29.3-29.3s29.3,13.1,29.3,29.3S87.6,474.4,71.5,474.4z"/>
	<path class="st0" d="M358.2,391.7c-15.2-24.9-42.9-39.8-84.6-45.7l-23.3-19.8c-26.6-22.6-59.4-36.4-93.9-39.9c-0.1,0-0.1,0-0.2,0
		c-13.2-1.3-20.2-0.7-39.9-0.9c-5.4,0-10.8,0.4-16.2,1.2l-35.8,5.5c-3.9,0.6-7.4,2.9-9.6,6.2c-2.1,3.4-2.7,7.5-1.7,11.3l1.7,6
		L49,324c-2.4,3.4-1.7,8,1.7,10.5c3.4,2.4,8,1.7,10.5-1.7l6.2-8.6c2.5-3.5,3.3-7.8,2.1-11.9l-1.5-5.3c0,0,37-5.7,38.3-5.8
		l-24.4,39.2c-2.6,4.1-2.7,9.3-0.3,13.5c2.4,4.2,6.8,6.9,11.7,6.9h62.4c0,0,0.1,0,0.1,0s0.1,0,0.1,0h114.2c14,1.9,26.3,4.8,36.7,8.8
		l-4.4,13.7c-1.8,5.5-0.9,11.4,2.6,16.1c3.4,4.7,8.7,7.4,14.6,7.4h27.4v22.5c0,4-2.6,7.5-6.4,8.8l-17.4,5.6
		c-0.9-23.7-20.4-42.6-44.2-42.6c-24.4,0-44.3,19.9-44.3,44.3c0,0.9,0,1.9,0.1,2.8h-15.5c-4.1,0-7.5,3.4-7.5,7.5s3.4,7.5,7.5,7.5
		h19.1c6.9,15.6,22.4,26.5,40.5,26.5c19.2,0,35.5-12.2,41.6-29.3l24.5-7.9c10.1-3.2,16.8-12.5,16.8-23.1v-24.9
		C361.8,399.8,360.4,395.3,358.2,391.7L358.2,391.7z M278.7,474.4c-16.1,0-29.3-13.1-29.3-29.3s13.1-29.3,29.3-29.3
		s29.3,13.1,29.3,29.3S294.9,474.4,278.7,474.4z M250,345.7h-86.9v-43.3c28.5,4.4,55.4,16.6,77.5,35.4L250,345.7z M124.3,300.5
		c13.2,0.1,16.5-0.2,23.8,0.3v44.9h-52L124.3,300.5z M316.5,387.8l3.9-11.9c7.7,4.4,14.2,9.7,19.4,15.8h-20.4
		C317.3,391.7,315.9,389.7,316.5,387.8z"/>
	<path class="st0" d="M343.1,210.4h72.1c3.5,0,6.8-1.8,8.7-4.7c2-2.9,2.3-6.6,0.9-9.9l-12.5-29.8c-1.9-4.7-6.5-7.7-11.5-7.7h-14.2
		V107l52.2-27.3c5-2.6,8.1-7.8,8.1-13.4c0-5.7-3.1-10.8-8.1-13.4l-56.3-29.4c-2.3-1.2-5.1-1.1-7.4,0.2c-2.2,1.4-3.6,3.8-3.6,6.4
		v128.3h-14.2c-5.1,0-9.6,3-11.5,7.7l-12.5,29.8c-1.4,3.2-1,6.9,0.9,9.9C336.3,208.6,339.6,210.4,343.1,210.4z M386.7,42.4L432,66.2
		c0,0,0,0.1-0.1,0.2L386.7,90V42.4z M359.1,173.4h40.1l9.2,22h-58.6L359.1,173.4z"/>
	<path class="st0" d="M435.8,261H228.7c-33.8,0-61.2-27.5-61.2-61.2s27.5-61.2,61.2-61.2h61l-11.3,10.3c-3.1,2.8-3.3,7.5-0.5,10.6
		c1.5,1.6,3.5,2.5,5.5,2.5c1.8,0,3.6-0.6,5-2l25.7-23.4c1.5-1.3,2.5-3.4,2.5-5.5c0-2.1-0.9-4.2-2.5-5.5l-25.7-23.4
		c-3.1-2.8-7.8-2.6-10.6,0.5c-2.8,3.1-2.6,7.8,0.5,10.6l11.3,10.3h-61c-42,0-76.2,34.2-76.2,76.2s34.2,76.2,76.2,76.2h207.1
		c33.8,0,61.2,27.5,61.2,61.2c0,33.8-27.5,61.2-61.2,61.2H412c-3.3-12.5-14.8-21.8-28.3-21.8c-4.1,0-7.5,3.4-7.5,7.5
		s3.4,7.5,7.5,7.5c7.9,0,14.3,6.4,14.3,14.3s-6.4,14.3-14.3,14.3c-4.1,0-7.5,3.4-7.5,7.5s3.4,7.5,7.5,7.5c13.6,0,25-9.3,28.3-21.8
		h23.8c42,0,76.2-34.2,76.2-76.2S477.8,261,435.8,261L435.8,261z"/>
</g>
</svg>
