<?xml version="1.0" encoding="utf-8"?>
<!-- Generator: Adobe Illustrator 25.0.0, SVG Export Plug-In . SVG Version: 6.00 Build 0)  -->
<svg version="1.1" id="Capa_1" xmlns="http://www.w3.org/2000/svg" xmlns:xlink="http://www.w3.org/1999/xlink" x="0px" y="0px"
	 viewBox="0 0 512 512" style="enable-background:new 0 0 512 512;" xml:space="preserve">
<style type="text/css">
	.st0{fill:#0070AC;}
</style>
<g>
	<g>
		<g>
			<path class="st0" d="M294.9,272.2H277c-4.1,0-7.5,3.4-7.5,7.5c0,4.1,3.4,7.5,7.5,7.5h17.9c4.1,0,7.5-3.4,7.5-7.5
				S299,272.2,294.9,272.2z"/>
			<path class="st0" d="M345.8,272.2h-17.9c-4.1,0-7.5,3.4-7.5,7.5c0,4.1,3.4,7.5,7.5,7.5h17.9c4.1,0,7.5-3.4,7.5-7.5
				C353.3,275.5,349.9,272.2,345.8,272.2z"/>
			<path class="st0" d="M396.7,272.2h-17.9c-4.1,0-7.5,3.4-7.5,7.5c0,4.1,3.4,7.5,7.5,7.5h17.9c4.1,0,7.5-3.4,7.5-7.5
				S400.8,272.2,396.7,272.2z"/>
			<path class="st0" d="M447.6,272.2h-17.9c-4.1,0-7.5,3.4-7.5,7.5c0,4.1,3.4,7.5,7.5,7.5h17.9c4.1,0,7.5-3.4,7.5-7.5
				C455.1,275.5,451.7,272.2,447.6,272.2z"/>
			<path class="st0" d="M294.9,306.9H277c-4.1,0-7.5,3.4-7.5,7.5c0,4.1,3.4,7.5,7.5,7.5h17.9c4.1,0,7.5-3.4,7.5-7.5
				S299,306.9,294.9,306.9z"/>
			<path class="st0" d="M345.8,306.9h-17.9c-4.1,0-7.5,3.4-7.5,7.5c0,4.1,3.4,7.5,7.5,7.5h17.9c4.1,0,7.5-3.4,7.5-7.5
				C353.3,310.2,349.9,306.9,345.8,306.9z"/>
			<path class="st0" d="M396.7,306.9h-17.9c-4.1,0-7.5,3.4-7.5,7.5c0,4.1,3.4,7.5,7.5,7.5h17.9c4.1,0,7.5-3.4,7.5-7.5
				S400.8,306.9,396.7,306.9z"/>
			<path class="st0" d="M447.6,306.9h-17.9c-4.1,0-7.5,3.4-7.5,7.5c0,4.1,3.4,7.5,7.5,7.5h17.9c4.1,0,7.5-3.4,7.5-7.5
				C455.1,310.2,451.7,306.9,447.6,306.9z"/>
			<path class="st0" d="M482.8,31.6c-18.1,0-399.7,0-415.1,0c-2.5,0-4.9,0.3-7.3,0.9c-12.7,3.3-21.9,14.7-21.9,28.3v229.6
				c-4.2-2.6-9-3.8-14.1-3.7C10.7,287.2,0,298.5,0,312.5v22.6c0,4.1,3.4,7.5,7.5,7.5s7.5-3.4,7.5-7.5v-22.6c0-5.7,4.5-10.6,10-10.8
				c2.8-0.1,5.5,0.9,7.6,2.9c2,2,3.2,4.6,3.2,7.5c0,4.1,3.4,7.5,7.5,7.5s7.5-3.4,7.5-7.5v-9.9c0-2.1,0.6-4.1,1.7-5.8
				c1.9-3,5-4.8,8.3-4.9c2.8-0.1,5.5,0.9,7.6,2.9c2,2,3.2,4.6,3.2,7.5c0,4.1,3.4,7.5,7.5,7.5s7.5-3.4,7.5-7.5v-17.2
				c0-5.7,4.5-10.6,10-10.8c2.9-0.1,5.5,0.9,7.6,2.9c2,2,3.2,4.6,3.2,7.5c0,4.1,3.4,7.5,7.5,7.5c4.1,0,7.5-3.4,7.5-7.5v-86.5
				c0-2.8,1.1-5.5,3.2-7.5c2-2,4.7-3,7.6-2.9c5.5,0.2,10,5,10,10.8v100.7c0,3.9,1.8,7.4,4.9,9.7c3.1,2.3,7.2,3,10.9,1.8
				c7-2.2,13.4,3.7,13.4,10.3c-0.1,54.4,0.2,52.6-0.3,58.2c-2.6,26.7-17.2,35.2-26.6,52.6H35.3l-15.1-35.7c-3.4-8-5.2-16.5-5.2-25.3
				c0-4.1-3.4-7.5-7.5-7.5S0,366.2,0,370.4c0,10.8,2.2,21.3,6.4,31.1l13.9,33c-5,3.3-8.3,9.1-8.3,15.5v11.7
				c0,10.3,8.4,18.7,18.7,18.7h116.6c10.3,0,18.7-8.4,18.7-18.7V450c0-5.4-2.4-10.4-6.2-13.9c7.4-12.4,21.3-23.5,26.1-49.2h297
				c16.1,0,29.2-13.1,29.2-29.2V60.7C512,44.7,498.9,31.6,482.8,31.6L482.8,31.6z M150.9,461.8c0,2-1.6,3.7-3.7,3.7H30.7
				c-2,0-3.7-1.6-3.7-3.7V450c0-2,1.5-3.6,3.5-3.6l0.3,0h116.5c2,0,3.7,1.6,3.7,3.7L150.9,461.8L150.9,461.8z M133.4,172.2
				c-7-0.3-13.5,2.3-18.5,7.1c-5,4.8-7.8,11.3-7.8,18.3v25.6c-7.5-3.3-12.6-10.8-12.6-19.5v-48c0-11.8,9.6-21.3,21.3-21.3h33.5
				c11.8,0,21.3,9.6,21.3,21.3v48c0,8.8-5.2,16.3-12.8,19.5V198C157.9,184,147.2,172.7,133.4,172.2L133.4,172.2z M213.7,372h-26.5
				v-51.5c0-15.5-13.6-27.9-29.2-25.5v-56c16.1-3.8,27.8-18.2,27.8-35.3v-48c0-20-16.3-36.3-36.3-36.3h-33.5
				c-20,0-36.3,16.3-36.3,36.3v48c0,17.1,11.7,31.4,27.7,35.3v21.9c-3.5-1.6-7.3-2.3-11.3-2.2c-11.8,0.4-21.4,8.9-23.8,20.1
				c-3.7-1.8-7.7-2.6-11.9-2.5c-2.3,0.1-4.5,0.5-6.6,1.2V60.7c0-6.6,4.6-12.2,10.6-13.7h0c3.3-0.8-4.7-0.3,149.5-0.4L213.7,372
				L213.7,372z M497,357.8c0,7.8-6.4,14.2-14.2,14.2H228.7V46.6h254.1c7.8,0,14.2,6.4,14.2,14.2V357.8z"/>
			<path class="st0" d="M465.3,161c-4.1,0-7.5,3.4-7.5,7.5v48c0,2.2-1.8,4-4,4h-18.5c-6.9-20.1-21.8-36.5-41-45.3
				c5.3-6.9,8.2-15.4,8.2-24.3c0-22.2-18-40.2-40.2-40.2s-40.2,18-40.2,40.2c0,8.9,3,17.4,8.2,24.3c-19.2,8.8-34.1,25.1-41,45.3
				h-18.5c-2.2,0-4-1.8-4-4v-48c0-4.1-3.4-7.5-7.5-7.5c-4.1,0-7.5,3.4-7.5,7.5v48c0,10.5,8.5,19,19,19h182.9c10.5,0,19-8.5,19-19
				v-48C472.8,164.4,469.4,161,465.3,161L465.3,161z M362.3,125.8c13.9,0,25.2,11.3,25.2,25.2c0,8.5-4.2,16.3-11.3,21
				c-4.1,2.7-8.9,4.2-13.9,4.2s-9.8-1.4-13.9-4.2c-7.1-4.7-11.3-12.5-11.3-21C337.1,137.1,348.4,125.8,362.3,125.8z M305.4,220.6
				c7.1-16.2,20.9-28.7,37.9-34.2c5.8,3.1,12.3,4.8,19,4.8s13.2-1.7,19-4.8c17,5.5,30.8,18,37.9,34.2H305.4z"/>
			<path class="st0" d="M453.7,71.1H270.8c-10.5,0-19,8.5-19,19v43.3c0,4.1,3.4,7.5,7.5,7.5c4.1,0,7.5-3.4,7.5-7.5V90.1
				c0-2.2,1.8-4,4-4h182.9c2.2,0,4,1.8,4,4v43.3c0,4.1,3.4,7.5,7.5,7.5c4.1,0,7.5-3.4,7.5-7.5V90.1
				C472.8,79.6,464.2,71.1,453.7,71.1L453.7,71.1z"/>
		</g>
	</g>
</g>
</svg>
