<?xml version="1.0" encoding="utf-8"?>
<!-- Generator: Adobe Illustrator 25.0.0, SVG Export Plug-In . SVG Version: 6.00 Build 0)  -->
<svg version="1.1" id="Layer_1" xmlns="http://www.w3.org/2000/svg" xmlns:xlink="http://www.w3.org/1999/xlink" x="0px" y="0px"
	 viewBox="0 0 512 512" style="enable-background:new 0 0 512 512;" xml:space="preserve">
<style type="text/css">
	.st0{fill:#0070AC;}
</style>
<g id="_x30_14---GPS-Location" transform="translate(0 -1)">
	<path id="Shape" class="st0" d="M315.7,103.4c0-33-26.7-59.7-59.7-59.7s-59.7,26.7-59.7,59.7s26.7,59.7,59.7,59.7
		C289,163.1,315.7,136.4,315.7,103.4z M256,146.1c-23.6,0-42.7-19.1-42.7-42.7s19.1-42.7,42.7-42.7s42.7,19.1,42.7,42.7
		C298.6,127,279.6,146,256,146.1z"/>
	<path id="Shape_1_" class="st0" d="M198.7,375.5l-42.7-6.1c-4.9-0.7-9.9,0.8-13.6,4c-3.7,3.2-5.9,7.9-5.9,12.9v15.8
		c0,9.4,7.6,17.1,17.1,17.1h42.7c9.4,0,17.1-7.6,17.1-17.1v-9.7C213.3,383.9,207.1,376.7,198.7,375.5z M153.6,402.1v-15.8l42.7,6.1
		v9.7H153.6z"/>
	<path id="Shape_2_" class="st0" d="M356,369.4l-42.7,6.1c-8.4,1.2-14.6,8.4-14.7,16.9v9.7c0,9.4,7.6,17.1,17.1,17.1h42.7
		c9.4,0,17.1-7.6,17.1-17.1v-15.8c0-4.9-2.1-9.7-5.9-12.9C365.8,370.2,360.9,368.7,356,369.4z M358.4,402.1h-42.7v-9.7l42.7-6.1
		V402.1z"/>
	<path id="Shape_3_" class="st0" d="M273.1,367.9h-34.1c-4.7,0-8.5,3.8-8.5,8.5c0,4.7,3.8,8.5,8.5,8.5h34.1c4.7,0,8.5-3.8,8.5-8.5
		C281.6,371.8,277.8,367.9,273.1,367.9z"/>
	<path id="Shape_4_" class="st0" d="M273.1,402.1h-34.1c-4.7,0-8.5,3.8-8.5,8.5c0,4.7,3.8,8.5,8.5,8.5h34.1c4.7,0,8.5-3.8,8.5-8.5
		C281.6,405.9,277.8,402.1,273.1,402.1z"/>
	<path id="Shape_5_" class="st0" d="M503.5,495.9H391c2.1-5.9,1.6-5.2,1.6-44.2c10.2-3.6,17-13.2,17.1-24v-51.2
		c0-11-4.3-21.6-12-29.6c9.6-6.1,14.1-17.8,10.9-28.7c-3.1-10.9-13.1-18.5-24.5-18.5h-20.4l-13.8-48.2
		c-5.5-18.7-20.9-32.7-40.1-36.2c36.7-63.4,34.3-59.1,34.7-60.3c25.1-43.3,15.3-98.3-23.2-130.3S227-6.8,189.1,25.8
		s-46.7,87.9-20.8,130.7l34,58.7c-19.1,3.6-34.7,17.6-40.1,36.3l-13.8,48.2H128c-11.4,0.1-21.3,7.6-24.5,18.5
		c-3.1,10.9,1.3,22.6,10.9,28.7c-7.7,7.9-12,18.5-12,29.6v51.2c0,10.8,6.9,20.4,17.1,24c0,39.3-0.5,38.4,1.6,44.2H8.5
		c-4.7,0-8.5,3.8-8.5,8.5c0,4.7,3.8,8.5,8.5,8.5h494.9c4.7,0,8.5-3.8,8.5-8.5C512,499.8,508.2,495.9,503.5,495.9L503.5,495.9z
		 M392.5,427.7c0,4.7-3.8,8.5-8.5,8.5H128c-4.7,0-8.5-3.8-8.5-8.5v-51.2c0-14.1,11.5-25.6,25.6-25.6h221.9
		c14.1,0,25.6,11.5,25.6,25.6V427.7z M179.2,453.3h153.6c0,37-0.5,36.8,1.6,42.7H177.6C179.7,490.1,179.2,490.7,179.2,453.3
		L179.2,453.3z M384,316.7c3.4,0,6.5,2.1,7.8,5.3c1.3,3.2,0.5,6.9-1.9,9.3c-3.2,3.3-6.7,2.5-16.6,2.5l-4.9-17.1L384,316.7z
		 M183,147.7c-18.7-30.9-15.9-70.1,6.9-98.1s60.7-38.6,94.7-26.5s56.7,44.2,56.8,80.3c-0.2,16.2-4.7,32.1-13.1,46L256,274.1
		C155.9,101,190.7,160.4,183,147.7L183,147.7z M178.5,256.2c4.3-14.7,17.7-24.8,33-24.8l29.7,51.3c3.1,5.3,8.7,8.5,14.8,8.5
		c6.1,0,11.7-3.2,14.8-8.5l29.7-51.3c15.3,0,28.7,10.1,33,24.7l22.2,77.7H156.4L178.5,256.2z M128,316.7h15.5l-4.9,17.1
		c-10.7,0-13.4,0.8-16.7-2.6c-2.4-2.5-3-6.1-1.7-9.2C121.5,318.8,124.6,316.8,128,316.7z M145.1,495.9c-4.7,0-8.5-3.8-8.5-8.5v-34.1
		h25.6v34.1c0,4.7-3.8,8.5-8.5,8.5H145.1z M358.4,495.9c-4.7,0-8.5-3.8-8.5-8.5v-34.1h25.6v34.1c0,4.7-3.8,8.5-8.5,8.5H358.4z"/>
	<path id="Shape_6_" class="st0" d="M401.8,266.5c-4.2,2.1-5.9,7.3-3.7,11.5c2.1,4.2,7.3,5.9,11.5,3.7
		c31.5-16.4,51.2-48.9,51.2-84.4s-19.8-68-51.2-84.4c-4.2-2.1-9.3-0.5-11.5,3.7c-2.1,4.2-0.5,9.3,3.7,11.5
		c25.8,13.5,41.9,40.1,41.9,69.2S427.5,253,401.8,266.5L401.8,266.5z"/>
	<path id="Shape_7_" class="st0" d="M383,147.2c-1,2-1.2,4.4-0.5,6.5c0.7,2.2,2.2,3.9,4.2,5c14.3,7.5,23.3,22.4,23.3,38.5
		s-9,31-23.3,38.5c-2.7,1.4-4.5,4.1-4.6,7.2s1.3,5.9,3.9,7.6c2.6,1.7,5.8,1.8,8.5,0.4c20-10.4,32.6-31.1,32.6-53.7
		s-12.6-43.3-32.6-53.7c-2-1-4.4-1.2-6.5-0.5C385.8,143.7,384,145.2,383,147.2L383,147.2z"/>
	<path id="Shape_8_" class="st0" d="M371.6,205c-3.5,1.8-5.3,5.8-4.4,9.6c0.9,3.8,4.3,6.5,8.3,6.5c10.8-2.8,18.3-12.7,17.9-23.9
		c0-9.7-5.4-18.6-14-23c-4.2-2.1-9.3-0.5-11.5,3.7c-2.1,4.2-0.5,9.3,3.7,11.5c2.9,1.5,4.7,4.5,4.7,7.8
		C376.3,200.5,374.5,203.5,371.6,205L371.6,205z"/>
	<path id="Shape_9_" class="st0" d="M102.5,112.9c-31.5,16.4-51.2,48.9-51.2,84.4s19.8,68,51.2,84.4c2.7,1.4,6,1.2,8.5-0.4
		c2.6-1.7,4-4.6,3.9-7.6c-0.2-3-1.9-5.8-4.6-7.2c-25.8-13.5-41.9-40.1-41.9-69.2s16.2-55.7,41.9-69.2c4.2-2.1,5.9-7.3,3.7-11.5
		C111.8,112.4,106.7,110.7,102.5,112.9L102.5,112.9z"/>
	<path id="Shape_10_" class="st0" d="M117.5,251c4.2,2.1,9.3,0.5,11.5-3.7c2.1-4.2,0.5-9.3-3.7-11.5c-14.3-7.5-23.3-22.4-23.3-38.5
		s9-31,23.3-38.5c2.7-1.4,4.5-4.1,4.6-7.2c0.2-3-1.3-5.9-3.9-7.6c-2.6-1.7-5.8-1.8-8.5-0.4C97.5,154,85,174.7,85,197.3
		S97.5,240.6,117.5,251z"/>
	<path id="Shape_11_" class="st0" d="M140.4,189.5c4.2-2.1,5.9-7.3,3.7-11.5c-2.1-4.2-7.3-5.9-11.5-3.7c-8.6,4.4-14,13.3-14,23
		s5.4,18.5,14,23c4.2,2.1,9.3,0.5,11.5-3.7c2.1-4.2,0.5-9.3-3.7-11.5c-2.9-1.5-4.7-4.5-4.7-7.8S137.5,191,140.4,189.5L140.4,189.5z"
		/>
</g>
</svg>
